<svg id="instagram" version="1.1" xmlns="http://www.w3.org/2000/svg" xmlns:xlink="http://www.w3.org/1999/xlink" x="0px" y="0px" viewBox="0 0 100 100" style="enable-background:new 0 0 100 100;" xml:space="preserve"> <path class="sta" d="M82.8,62.2h3.7c0,0.9-0.1,1.8-0.1,2.9c-0.2,3.9-0.8,6.5-1.7,8.9c-1.9,4.9-5.8,8.8-10.7,10.7
 c-1.1,0.4-2.2,0.8-3.4,1c4.7-2.1,8.5-6,10.3-10.8c0.9-2.4,1.6-5.2,1.8-9.2C82.7,64.4,82.7,63.3,82.8,62.2L82.8,62.2z"></path> <linearGradient id="SVGID_1_" gradientUnits="userSpaceOnUse" x1="13.5766" y1="50.0002" x2="86.7295" y2="50.0002"> <stop offset="0" style="stop-color:#FEDA76"></stop> <stop offset="0.2401" style="stop-color:#F57E22"></stop> <stop offset="0.4844" style="stop-color:#D72977"></stop> <stop offset="0.7265" style="stop-color:#88489C"></stop> <stop offset="0.964" style="stop-color:#88489C"></stop> </linearGradient> <path class="stb" d="M86.5,37.8c0-0.9-0.1-1.8-0.1-2.9c-0.2-3.9-0.8-6.6-1.7-8.9c-0.9-2.5-2.4-4.7-4.2-6.5c-1.8-1.9-4-3.3-6.5-4.2
 c-1-0.4-2.1-0.8-3.4-1c-1.5-0.3-3.3-0.6-5.5-0.7c-3.9-0.2-5.2-0.2-15.1-0.2c-9.9,0-11.2,0-15.1,0.2c-3.9,0.2-6.6,0.8-8.9,1.7
 c-2.5,0.9-4.7,2.4-6.5,4.2c-1.9,1.8-3.3,4-4.2,6.5c-0.9,2.3-1.5,5-1.7,8.9c-0.1,1.1-0.1,2-0.1,2.9c-0.1,2.4-0.1,5-0.1,12.2
 c0,7.2,0,9.8,0.1,12.2c0,0.9,0.1,1.8,0.1,2.9c0.2,3.9,0.8,6.6,1.7,8.9c0.9,2.5,2.4,4.7,4.2,6.5c1.8,1.9,4,3.3,6.5,4.2
 c2.3,0.9,5,1.5,8.9,1.7c3.9,0.2,5.1,0.2,15.1,0.2s11.2,0,15.1-0.2c2.1-0.1,3.9-0.3,5.4-0.7c1.3-0.3,2.4-0.6,3.4-1
 c4.9-1.9,8.8-5.8,10.7-10.7c0.9-2.3,1.5-5,1.7-8.9c0-1.1,0.1-2,0.1-2.9c0.1-2.4,0.1-5,0.1-12.2C86.6,42.8,86.6,40.2,86.5,37.8
 L86.5,37.8z"></path> <linearGradient id="SVGID_2_" gradientUnits="userSpaceOnUse" x1="14.9361" y1="25.5951" x2="87.9089" y2="25.6534"> <stop offset="0" style="stop-color:#FEDA76"></stop> <stop offset="0.2401" style="stop-color:#F57E22"></stop> <stop offset="0.4844" style="stop-color:#D72977"></stop> <stop offset="0.7265" style="stop-color:#88489C"></stop> </linearGradient> <path class="stc" d="M86.5,37.8h-73c0-0.9,0.1-1.8,0.1-2.9c0.2-3.9,0.8-6.5,1.7-8.9c0.9-2.4,2.4-4.6,4.2-6.5c1.8-1.9,4-3.3,6.5-4.2
 c2.3-0.9,5-1.5,8.9-1.7c3.9-0.2,5.1-0.2,15.1-0.2c9.9,0,11.2,0,15.1,0.2c2.2,0.1,3.9,0.3,5.5,0.7c1.3,0.3,2.4,0.6,3.4,1
 c2.4,0.9,4.6,2.4,6.5,4.2c1.9,1.8,3.3,4,4.2,6.5c0.9,2.3,1.5,5,1.7,8.9C86.5,36,86.5,36.9,86.5,37.8L86.5,37.8z"></path> <linearGradient id="SVGID_3_" gradientUnits="userSpaceOnUse" x1="13.5483" y1="74.397" x2="86.5023" y2="74.397"> <stop offset="0" style="stop-color:#FEDA76"></stop> <stop offset="0.2401" style="stop-color:#F57E22"></stop> <stop offset="0.4844" style="stop-color:#D72977"></stop> <stop offset="0.7265" style="stop-color:#88489C"></stop> </linearGradient> <path class="std" d="M86.5,62.2c0,0.9-0.1,1.8-0.1,2.9c-0.2,3.9-0.8,6.5-1.7,8.9c-1.9,4.9-5.8,8.8-10.7,10.7c-1.1,0.4-2.2,0.8-3.4,1
 c-1.5,0.3-3.3,0.6-5.4,0.7c-3.9,0.2-5.1,0.2-15.1,0.2s-11.2,0-15.1-0.2c-3.9-0.2-6.5-0.8-8.9-1.7c-2.4-0.9-4.6-2.4-6.5-4.2
 c-1.9-1.8-3.3-4-4.2-6.5c-0.9-2.3-1.5-5-1.7-8.9c0-1.1-0.1-2-0.1-2.9L86.5,62.2z"></path> <path class="ste" d="M38,6.7v19.8c0,1.8-1.5,3.3-3.3,3.3H29l-3.4,4.9l-3.4-4.9H6.7c-1.8,0-3.3-1.5-3.3-3.3V6.7
 c0-1.8,1.5-3.3,3.3-3.3h28.1C36.5,3.4,38,4.9,38,6.7L38,6.7z"></path> <path class="stf" d="M38,6.7v19.8c0,1.8-1.5,3.3-3.3,3.3H31c1.8,0,3.3-1.5,3.3-3.3V6.7c0-1.8-1.5-3.3-3.3-3.3h3.8
 C36.5,3.4,38,4.9,38,6.7z"></path> <path class="stg" d="M26.1,12c-1.3-1.3-3.3-1.3-4.6,0l-0.8,0.8L19.9,12c-1.3-1.3-3.3-1.3-4.6,0c-1.3,1.3-1.3,3.3,0,4.6l5.4,5.4
 l5.4-5.4C27.4,15.4,27.4,13.3,26.1,12z"></path> <path class="ste" d="M96.6,79.9v13.8c0,1.6-1.3,2.9-2.9,2.9H66.3c-1.6,0-2.9-1.3-2.9-2.9V71.1l7.8,5.9h22.5
 C95.3,77,96.6,78.3,96.6,79.9L96.6,79.9z"></path> <path class="sth" d="M96.6,79.9v13.8c0,1.6-1.3,2.9-2.9,2.9H90c1.6,0,2.9-1.3,2.9-2.9V79.9c0-1.6-1.3-2.9-2.9-2.9h3.8
 C95.3,77,96.6,78.3,96.6,79.9z"></path> <ellipse class="sti" cx="71.9" cy="29.1" rx="3.8" ry="3.8"></ellipse> <linearGradient id="SVGID_4_" gradientUnits="userSpaceOnUse" x1="37.3612" y1="50" x2="62.6287" y2="50"> <stop offset="0" style="stop-color:#FEDA76"></stop> <stop offset="0.2401" style="stop-color:#F57E22"></stop> <stop offset="0.4844" style="stop-color:#D72977"></stop> <stop offset="0.7265" style="stop-color:#88489C"></stop> </linearGradient> <path class="stj" d="M50,62.6c-7,0-12.6-5.7-12.6-12.6S43,37.4,50,37.4S62.6,43,62.6,50S57,62.6,50,62.6z"></path> <g> <path class="sti" d="M44.5,14.8L44.5,14.8c1.5,0,3.3,0,5.6,0c9.9,0,11.2,0,15,0.2c3.3,0.1,5.9,0.6,8.4,1.6c2.2,0.8,4.3,2.2,6,3.9
 c0,0,0,0,0,0c1.7,1.7,3,3.7,3.9,6c1,2.5,1.5,5.1,1.6,8.4c0,0.8,0.7,1.3,1.4,1.3c0,0,0,0,0.1,0c0.8,0,1.4-0.7,1.3-1.5
 c-0.2-3.7-0.7-6.5-1.8-9.3c-1-2.7-2.5-5-4.6-7c-2-2-4.4-3.6-7-4.5c-2.8-1.1-5.7-1.6-9.3-1.8C61.3,12,60,12,50,12
 c-2.3,0-4.1,0-5.6,0c-0.8,0-1.4,0.6-1.4,1.4C43.1,14.2,43.7,14.8,44.5,14.8L44.5,14.8z"></path> <path class="sti" d="M84.2,71c-0.2,0.8,0.3,1.5,1,1.7c0.1,0,0.2,0,0.4,0c0.6,0,1.2-0.4,1.4-1.1c0.5-1.9,0.8-4.1,0.9-6.6
 C88,61.2,88,59.8,88,50c0-4.4,0-6.9,0-8.8c0-0.8-0.6-1.4-1.4-1.4c-0.8,0-1.4,0.6-1.4,1.4c0,1.9,0,4.5,0,8.8c0,9.8,0,11.1-0.2,15
 C84.9,67.3,84.6,69.2,84.2,71L84.2,71z"></path> <path class="sti" d="M57.4,85.2L57.4,85.2c-1.7,0-4,0-7.4,0c-9.8,0-11.1,0-15-0.2c-3.3-0.1-5.9-0.6-8.4-1.6c-2.2-0.8-4.3-2.2-6-3.9
 l0,0c-1.7-1.7-3-3.7-3.9-6c-1-2.5-1.5-5.1-1.6-8.4c-0.2-3.9-0.2-5.2-0.2-15c0-8.7,0-10.7,0.2-13.7c0-0.8-0.6-1.4-1.3-1.5
 c-0.8,0-1.4,0.6-1.5,1.3c-0.1,3-0.2,5-0.2,13.8c0,9.9,0,11.2,0.2,15.1c0.2,3.7,0.7,6.5,1.8,9.3c1,2.6,2.5,5,4.6,7
 c2,2,4.4,3.6,7,4.5c2.8,1.1,5.7,1.6,9.3,1.8c4,0.2,5.3,0.2,15.1,0.2c3.4,0,5.7,0,7.4,0c0.8,0,1.4-0.6,1.4-1.4
 C58.8,85.8,58.2,85.2,57.4,85.2z"></path> <path class="sti" d="M33.7,41.6c-0.7-0.3-1.5,0-1.8,0.7c-1,2.4-1.5,5-1.5,7.7c0,10.8,8.8,19.7,19.7,19.7S69.7,60.8,69.7,50
 S60.8,30.3,50,30.3c-5.6,0-11,2.4-14.8,6.7c-0.5,0.6-0.5,1.5,0.1,2c0.6,0.5,1.5,0.5,2-0.1c3.2-3.6,7.8-5.7,12.6-5.7
 c9.3,0,16.9,7.6,16.9,16.9S59.3,66.8,50,66.8S33.1,59.3,33.1,50c0-2.3,0.4-4.5,1.3-6.6C34.8,42.7,34.4,41.9,33.7,41.6L33.7,41.6z"></path> <path class="sti" d="M50,64c7.7,0,14-6.3,14-14s-6.3-14-14-14c-7.7,0-14,6.3-14,14S42.3,64,50,64L50,64z M50,38.7
 c6.2,0,11.2,5,11.2,11.2s-5,11.2-11.2,11.2s-11.2-5-11.2-11.2S43.8,38.7,50,38.7L50,38.7z"></path> <path class="sti" d="M77.1,29.1c0-2.8-2.3-5.2-5.2-5.2s-5.2,2.3-5.2,5.2s2.3,5.2,5.2,5.2S77.1,31.9,77.1,29.1z M69.6,29.1
 c0-1.3,1.1-2.3,2.3-2.3c1.3,0,2.3,1.1,2.3,2.3c0,1.3-1.1,2.3-2.3,2.3C70.6,31.4,69.6,30.4,69.6,29.1z"></path> <path class="sti" d="M93.7,75.6h-22L64.3,70c-0.4-0.3-1-0.4-1.5-0.1c-0.5,0.2-0.8,0.7-0.8,1.3v22.6c0,2.4,1.9,4.3,4.3,4.3h3
 c0.8,0,1.4-0.6,1.4-1.4c0-0.8-0.6-1.4-1.4-1.4h-3c-0.8,0-1.5-0.7-1.5-1.5V73.9l5.5,4.2c0.2,0.2,0.5,0.3,0.9,0.3h22.5
 c0.8,0,1.5,0.7,1.5,1.5v13.8c0,0.8-0.7,1.5-1.5,1.5H75.8c-0.8,0-1.4,0.6-1.4,1.4s0.6,1.4,1.4,1.4h17.9c2.4,0,4.3-1.9,4.3-4.3V79.9
 C98,77.5,96.1,75.6,93.7,75.6z"></path> <path class="sti" d="M71.1,91.5h18.7c0.8,0,1.4-0.6,1.4-1.4s-0.6-1.4-1.4-1.4H71.1c-0.8,0-1.4,0.6-1.4,1.4S70.3,91.5,71.1,91.5z"></path> <path class="sti" d="M71.1,85.1H88c0.8,0,1.4-0.6,1.4-1.4s-0.6-1.4-1.4-1.4H71.1c-0.8,0-1.4,0.6-1.4,1.4S70.3,85.1,71.1,85.1z"></path> <path class="sti" d="M24.4,35.5c0.3,0.4,0.7,0.6,1.2,0.6s0.9-0.2,1.2-0.6l3-4.3h5c2.6,0,4.7-2.1,4.7-4.7V6.7c0-2.6-2.1-4.7-4.7-4.7
 H16.9c-0.8,0-1.4,0.6-1.4,1.4s0.6,1.4,1.4,1.4h17.8c1,0,1.9,0.8,1.9,1.9v19.8c0,1-0.8,1.9-1.9,1.9H29c-0.5,0-0.9,0.2-1.2,0.6
 l-2.3,3.3l-2.3-3.3c-0.3-0.4-0.7-0.6-1.2-0.6H6.7c-1,0-1.9-0.8-1.9-1.9V6.7c0-1,0.8-1.9,1.9-1.9h3.7c0.8,0,1.4-0.6,1.4-1.4
 S11.2,2,10.4,2H6.7C4.1,2,2,4.1,2,6.7v19.8c0,2.6,2.1,4.7,4.7,4.7h14.7L24.4,35.5z"></path> <path class="sti" d="M19.7,23c0.3,0.3,0.6,0.4,1,0.4s0.7-0.1,1-0.4l5.4-5.4c1.8-1.8,1.8-4.8,0-6.6c-0.9-0.9-2.1-1.4-3.3-1.4h0
 c-1.1,0-2.2,0.4-3.1,1.2c-0.9-0.7-1.9-1.2-3.1-1.2h0c-1.2,0-2.4,0.5-3.3,1.4c-1.8,1.8-1.8,4.8,0,6.6L19.7,23z M16.3,13
 c0.4-0.4,0.8-0.5,1.3-0.5h0c0.5,0,1,0.2,1.3,0.5l0.8,0.8c0.3,0.3,0.6,0.4,1,0.4c0.4,0,0.7-0.1,1-0.4l0.8-0.8
 c0.4-0.4,0.8-0.5,1.3-0.5h0c0.5,0,1,0.2,1.3,0.5c0,0,0,0,0,0c0.7,0.7,0.7,1.9,0,2.6l-4.4,4.4l-4.4-4.4C15.6,14.9,15.6,13.7,16.3,13
 L16.3,13z"></path> </g> </svg>
