<svg id="tiktok" version="1.1" xmlns="http://www.w3.org/2000/svg" xmlns:xlink="http://www.w3.org/1999/xlink" x="0px" y="0px" viewBox="0 0 100 100" style="enable-background:new 0 0 100 100;" xml:space="preserve"> <path class="st8" d="M86.3,41c-0.2-0.2-0.6-0.3-0.9,0l-0.2,0.1L85.1,41c-0.2-0.3-0.6-0.3-0.9,0c-0.2,0.2-0.3,0.6,0,0.9l1,1.1l1.1-1
 C86.5,41.7,86.5,41.3,86.3,41L86.3,41z"></path> <path class="st9" d="M90.9,27.3v14.9c-1.3,0-2.5-0.1-3.7-0.2c-3.8-0.4-7.6-1.3-11.1-2.8c-3-1.3-5.9-2.9-8.4-4.9l0.1,25l0,8.4
 c0,7.6-3,14.7-8.4,20c-4.4,4.4-10,7.1-16,8c-1.4,0.2-2.9,0.3-4.3,0.3c-4.2,0-8.3-0.9-12-2.6c-2-0.9-3.9-2-5.7-3.4
 c-0.9-0.7-1.9-1.5-2.7-2.4c-5.9-5.8-8.9-13.6-8.4-21.9c0.4-6.3,2.9-12.3,7.1-17c5.6-6.2,13.3-9.7,21.7-9.7c0.2,0,0.4,0,0.6,0
 c1.3,0,2.5,0.1,3.7,0.3v15.2c-1.2-0.4-2.4-0.6-3.7-0.7c-0.2,0-0.4,0-0.6,0c-7.6,0-13.7,6.2-13.6,13.8c0.1,4.9,2.7,9.1,6.6,11.4
 c1.8,1.1,4,1.8,6.2,1.9c1.8,0.1,3.5-0.1,5-0.7c5.4-1.8,9.3-6.9,9.3-12.9l0-63.3h15c0,1.5,0.2,2.9,0.4,4.3c1.1,5.7,4.3,10.6,8.8,14
 c3,2.2,6.5,3.8,10.3,4.4C88.4,27.2,89.6,27.3,90.9,27.3C90.9,27.3,90.9,27.3,90.9,27.3L90.9,27.3z"></path> <g> <path class="st10" d="M67.7,67.7c0,7.6-3,14.7-8.4,20c-4.4,4.4-10,7.1-16,8c-1.4,0.2-2.9,0.3-4.3,0.3c-4.2,0-8.3-0.9-12-2.6
 c2.3,0.5,4.6,0.7,6.9,0.7c1.7,0,3.3-0.1,4.9-0.4c6.9-1,13.2-4.2,18.2-9.1c6.1-6.1,10.7-16.9,10.8-25.4L67.7,67.7z"></path> <path class="st10" d="M90.9,27.3v14.9c-1.3,0-2.5-0.1-3.7-0.2V27C88.4,27.2,89.6,27.3,90.9,27.3C90.9,27.3,90.9,27.3,90.9,27.3z"></path> <path class="st2" d="M43.2,39.5v15.2c-1.2-0.4-2.4-0.6-3.7-0.7V39.2C40.7,39.2,42,39.3,43.2,39.5L43.2,39.5z"></path> </g> <path class="st11" d="M43.2,7.2v18.3c0,1.6-1.3,2.9-2.8,2.9H20.1l-7.7,5.8v-27c0-1.6,1.3-2.9,2.8-2.9h25.1
 C41.9,4.3,43.2,5.6,43.2,7.2z"></path> <path class="st12" d="M43.2,7.2v18.3c0,1.6-1.3,2.9-2.8,2.9h-3.7c1.6,0,2.8-1.3,2.8-2.9V7.2c0-1.6-1.3-2.9-2.8-2.9h3.7
 C41.9,4.3,43.2,5.6,43.2,7.2z"></path> <path class="st13" d="M33.1,12c-1.3-1.3-3.3-1.3-4.5,0l-0.8,0.8L27.1,12c-1.3-1.3-3.3-1.3-4.5,0c-1.3,1.3-1.3,3.3,0,4.5l5.3,5.3
 l5.3-5.3C34.4,15.2,34.4,13.2,33.1,12L33.1,12z"></path> <path class="st14" d="M52.6,50.2c0.8,0,1.4-0.6,1.4-1.4l0-43.1h12.3c0.1,1.1,0.2,2.2,0.4,3.2c0.7,3.5,2.1,6.8,4.3,9.7
 c0.5,0.6,1.3,0.7,1.9,0.3c0.6-0.5,0.7-1.3,0.3-1.9c-1.9-2.6-3.2-5.5-3.8-8.6C69.2,7,69,5.7,69,4.3c0-0.8-0.6-1.4-1.4-1.4h-15
 c-0.8,0-1.4,0.6-1.4,1.4l0,44.5C51.2,49.6,51.8,50.2,52.6,50.2L52.6,50.2z"></path> <path class="st15" d="M91.9,26.3c-0.3-0.3-0.7-0.4-1.1-0.4c-4.8,0-9.3-1.5-13.1-4.4c-0.6-0.5-1.5-0.3-1.9,0.3
 c-0.5,0.6-0.3,1.5,0.3,1.9c3.9,3,8.6,4.7,13.5,4.9v12.2c-4.5-0.2-8.8-1.1-12.9-2.9c-2.9-1.2-5.6-2.8-8.1-4.7c-0.4-0.3-1-0.4-1.5-0.1
 c-0.5,0.2-0.8,0.7-0.8,1.2l0.1,33.4c0,7.2-2.9,13.9-8,19c-4.2,4.1-9.5,6.8-15.3,7.6c-1.4,0.2-2.8,0.3-4.1,0.3c-6.2,0-12-2-16.8-5.7
 c-0.6-0.5-1.5-0.4-1.9,0.3c-0.5,0.6-0.4,1.5,0.3,1.9c5.3,4.1,11.7,6.3,18.5,6.3c1.5,0,3-0.1,4.5-0.3c6.4-0.9,12.2-3.9,16.8-8.4
 c5.7-5.6,8.8-13.1,8.9-21L69,37.1c2.1,1.4,4.2,2.5,6.5,3.5c4.9,2.1,10.1,3.1,15.4,3.1h0c0.8,0,1.4-0.6,1.4-1.4V27.3
 C92.3,27,92.2,26.6,91.9,26.3L91.9,26.3z"></path> <path class="st14" d="M41.8,40.7v12.2c-1-0.2-1.9-0.3-2.9-0.3c-4.1,0-7.9,1.6-10.7,4.5c-2.8,2.9-4.4,6.7-4.3,10.7
 c0.1,5.2,2.8,9.9,7.3,12.6c2.1,1.2,4.4,2,6.9,2.1c1.9,0.1,3.8-0.1,5.6-0.7c6.2-2,10.3-7.7,10.3-14.2l0-12.2c0-0.8-0.6-1.4-1.4-1.4h0
 c-0.8,0-1.4,0.6-1.4,1.4l0,12.2c0,5.3-3.4,9.9-8.4,11.6c-1.5,0.5-3,0.7-4.5,0.6c-2-0.1-3.9-0.7-5.6-1.7c-3.7-2.2-5.9-6-6-10.3
 c0-3.3,1.2-6.4,3.5-8.7c2.3-2.4,5.4-3.7,8.7-3.7c1.3,0,2.6,0.2,3.9,0.6c0.4,0.1,0.9,0.1,1.2-0.2c0.4-0.3,0.6-0.7,0.6-1.1V39.5
 c0-0.7-0.5-1.3-1.2-1.4c-1.5-0.2-3-0.3-4.5-0.3c-8.8,0-16.8,3.6-22.7,10.1c-4.4,4.9-7.1,11.3-7.5,17.8c-0.5,7.5,1.9,14.8,6.6,20.6
 c0.3,0.3,0.7,0.5,1.1,0.5c0.3,0,0.6-0.1,0.9-0.3c0.6-0.5,0.7-1.4,0.2-1.9c-4.3-5.2-6.4-11.9-6-18.7c0.4-5.9,2.8-11.7,6.8-16.2
 c5.3-5.9,12.6-9.2,20.6-9.2C39.9,40.5,40.9,40.6,41.8,40.7L41.8,40.7z"></path> <path class="st16" d="M11.8,35.4c0.2,0.1,0.4,0.1,0.6,0.1c0.3,0,0.6-0.1,0.8-0.3l7.3-5.6h19.8c2.3,0,4.2-1.9,4.2-4.2V7.1
 c0-2.3-1.9-4.2-4.2-4.2H24.6c-0.8,0-1.4,0.6-1.4,1.4s0.6,1.4,1.4,1.4h15.7c0.8,0,1.5,0.7,1.5,1.5v18.3c0,0.8-0.7,1.5-1.5,1.5H20.1
 c-0.3,0-0.6,0.1-0.8,0.3l-5.4,4.1V7.1c0-0.8,0.7-1.5,1.5-1.5h3c0.8,0,1.4-0.6,1.4-1.4S19,2.9,18.3,2.9h-3c-2.3,0-4.2,1.9-4.2,4.2v27
 C11.1,34.7,11.3,35.2,11.8,35.4z"></path> <path class="st16" d="M26.8,22.8c0.3,0.3,0.6,0.4,1,0.4c0.4,0,0.7-0.1,1-0.4l5.3-5.3c1.8-1.8,1.8-4.7,0-6.5c-0.9-0.9-2-1.3-3.3-1.3
 c-1.1,0-2.2,0.4-3,1.1C26,9.2,23.3,9.3,21.5,11c-1.8,1.8-1.8,4.7,0,6.5L26.8,22.8z M23.5,12.9c0.4-0.4,0.8-0.5,1.3-0.5
 c0.5,0,0.9,0.2,1.3,0.5l0.8,0.8c0.3,0.3,0.6,0.4,1,0.4c0.4,0,0.7-0.1,1-0.4l0.8-0.8c0.3-0.3,0.8-0.5,1.3-0.5h0
 c0.5,0,0.9,0.2,1.3,0.5c0.7,0.7,0.7,1.9,0,2.6l-4.3,4.3l-4.3-4.3C22.8,14.8,22.8,13.6,23.5,12.9z"></path> </svg>
