<svg id="youtube" version="1.1" xmlns="http://www.w3.org/2000/svg" xmlns:xlink="http://www.w3.org/1999/xlink" x="0px" y="0px" viewBox="0 0 100 100" style="enable-background:new 0 0 100 100;" xml:space="preserve"> <path class="st0" d="M94.8,30.3c-1-4-4.1-7.3-8.1-8.4c-0.8-0.2-1.8-0.4-3-0.6C73.6,19.6,50.1,19,50.1,19s-29.3-0.6-36.6,1.1
 c-4,1-7.3,4.2-8.4,8.1C3,35.6,2.6,50.8,2.6,50.8S2.3,66,4.1,73.3c1,4,4.1,7.3,8.1,8.4c7.4,2.2,36.6,2.8,36.6,2.8s23.6,0.5,33.7-0.6
 c1.2-0.1,2.1-0.3,2.9-0.5c4-1,7.3-4.1,8.4-8.1c2.1-7.3,2.4-22.5,2.4-22.5S96.6,37.7,94.8,30.3L94.8,30.3z"></path> <path class="st1" d="M94.8,30.3c-1-4-4.1-7.3-8.1-8.4c-0.8-0.2-1.8-0.4-3-0.6c3.6,1.4,6.3,4.5,7.2,8.3c1.9,7.6,1.5,23.3,1.5,23.3
 S92.1,68.5,89.9,76c-1.1,3.7-3.9,6.7-7.5,7.9c1.2-0.1,2.1-0.3,2.9-0.5c4-1,7.3-4.1,8.4-8.1c2.1-7.3,2.4-22.5,2.4-22.5
 S96.6,37.7,94.8,30.3L94.8,30.3z"></path> <path class="st2" d="M89.3,31.7C89.3,31.6,89.3,31.6,89.3,31.7c-0.5-2.1-2.1-3.8-4.2-4.4c0,0,0,0,0,0c-0.9-0.3-2.2-0.5-3.9-0.7
 c-7.6-1-22.1-1.7-31.2-1.9c-11-0.2-30.3-0.2-35.2,1c-2,0.5-3.8,2.2-4.4,4.2c-1.5,5.4-2.1,17-2.2,21c-0.1,4,0,15.7,1.3,21.1
 c0.5,2.1,2.1,3.7,4.2,4.3c4.8,1.4,24.1,2.3,35.1,2.6c9,0.2,23.6,0.2,31.3-0.4c1.7-0.1,3-0.3,3.9-0.5c2.1-0.5,3.7-2.1,4.3-4.1
 c1.5-5.4,2.1-17,2.2-21l0,0C90.6,48.7,90.6,37.1,89.3,31.7L89.3,31.7z"></path> <path class="st3" d="M89.3,31.6c-0.5-2.1-2.1-3.8-4.2-4.4c0,0,0,0,0,0c-0.9-0.3-2.2-0.5-3.9-0.7c0,0,0,0.1,0,0.1c0,0,0,0,0,0
 c2.1,0.6,3.7,2.3,4.3,4.5c0,0,0,0,0,0c1.4,5.5,1.4,17.5,1.3,21.6l0,0c-0.1,4.1-0.7,16-2.3,21.5c-0.6,2.1-2.3,3.7-4.4,4.3l0,0
 c1.7-0.1,3-0.3,3.9-0.5c2.1-0.5,3.7-2.1,4.3-4.1c1.5-5.4,2.1-17,2.2-21l0,0C90.6,48.7,90.6,37.1,89.3,31.6
 C89.3,31.6,89.3,31.6,89.3,31.6L89.3,31.6z"></path> <path class="st4" d="M42.9,62.2l18.6-10.2l-18.1-11L42.9,62.2z"></path> <path class="st5" d="M85.3,7.2l-0.4,19.9c0,1.8-1.5,3.3-3.4,3.2l-10.6-0.2L67.4,35l-3.3-5l-10.6-0.2c-1.8,0-3.3-1.5-3.2-3.4
 l0.4-19.9c0-1.8,1.5-3.3,3.4-3.2l28.2,0.6C83.9,3.9,85.4,5.4,85.3,7.2z"></path> <path class="st6" d="M85.3,7.2l-0.4,19.9c0,1.8-1.5,3.3-3.4,3.2l-3.8-0.1c1.8,0,3.3-1.4,3.4-3.2l0.4-19.9c0-1.8-1.4-3.3-3.2-3.4
 l3.8,0.1C83.9,3.9,85.4,5.4,85.3,7.2z"></path> <path class="st4" d="M73.3,12.4c-1.3-1.3-3.3-1.4-4.6-0.1L67.8,13l-0.8-0.8c-1.3-1.3-3.3-1.4-4.6-0.1c-1.3,1.3-1.4,3.3-0.1,4.6
 l5.3,5.5l5.5-5.3C74.5,15.7,74.5,13.7,73.3,12.4L73.3,12.4z"></path> <path class="st5" d="M52,79.7l-0.3,14.2c0,1.6-1.4,2.9-3,2.8l-27.5-0.6c-1.6,0-2.9-1.4-2.8-3l0.5-23.1l7.7,6.1l22.6,0.5
 C50.8,76.7,52,78.1,52,79.7z"></path> <path class="st6" d="M52,79.7l-0.3,14.2c0,1.6-1.4,2.9-3,2.8l-3.8-0.1c1.6,0,2.9-1.2,3-2.8l0.3-14.2c0-1.6-1.2-2.9-2.8-3l3.8,0.1
 C50.8,76.7,52,78.1,52,79.7z"></path> <g> <path class="st7" d="M62.1,53.3c0.4-0.2,0.7-0.7,0.7-1.2c0-0.5-0.2-1-0.7-1.2l-18.1-11c-0.4-0.3-1-0.3-1.4,0
 c-0.4,0.2-0.7,0.7-0.7,1.2l-0.5,21.2c0,0.5,0.2,1,0.7,1.2c0.2,0.1,0.5,0.2,0.7,0.2c0.2,0,0.5-0.1,0.7-0.2l7.9-4.3
 c0.7-0.4,0.9-1.2,0.6-1.9c-0.4-0.7-1.2-0.9-1.9-0.6l-5.8,3.2l0.4-16.3L58.6,52l-3.1,1.7c-0.7,0.4-0.9,1.2-0.6,1.9
 c0.4,0.7,1.2,0.9,1.9,0.6L62.1,53.3z"></path> <path class="st7" d="M13.3,80.6c-0.3-0.1-0.5-0.1-0.7-0.2c-3.5-1-6.2-3.9-7.1-7.4c-1.7-7-1.4-22-1.4-22.2c0-0.2,0.4-15.1,2.4-22.1
 c1-3.5,3.9-6.3,7.4-7.2c3.7-0.9,14.9-1.3,30.7-1.2c0.8,0,1.4-0.6,1.4-1.4c0-0.8-0.6-1.4-1.4-1.4c0,0,0,0,0,0
 c-9.4-0.1-25.9-0.1-31.4,1.2c-4.4,1.1-8.1,4.7-9.4,9.1c-2.1,7.4-2.5,22.2-2.5,22.8c0,0.6-0.3,15.5,1.5,22.9c1.1,4.5,4.6,8.1,9,9.4
 c0.3,0.1,0.6,0.2,0.9,0.2c0.1,0,0.2,0,0.3,0c0.7,0,1.2-0.4,1.4-1.1C14.5,81.5,14,80.7,13.3,80.6L13.3,80.6z"></path> <path class="st7" d="M96.1,29.9c-0.7-2.9-2.4-5.5-4.8-7.3c-0.6-0.5-1.5-0.4-2,0.3c-0.5,0.6-0.4,1.5,0.3,2c1.9,1.4,3.2,3.5,3.8,5.7
 c1.8,7.1,1.4,22.1,1.4,22.2c0,0.2-0.4,15.1-2.4,22.1c-1,3.5-3.9,6.2-7.4,7.1c-3.5,0.8-13.2,1.3-27.4,1.2c-0.8,0-1.4,0.6-1.4,1.4
 c0,0.8,0.6,1.4,1.4,1.4c0,0,0,0,0,0c10.2,0.1,23.4-0.1,28.1-1.3c4.5-1.1,8.1-4.6,9.4-9c2.1-7.4,2.5-22.2,2.5-22.8
 C97.6,52.3,98,37.4,96.1,29.9L96.1,29.9z"></path> <path class="st7" d="M45.8,24.6c0-0.8-0.6-1.4-1.4-1.4c0,0,0,0,0,0c-4,0-24.5-0.2-29.9,1.1c0,0,0,0,0,0C12,24.9,9.9,27,9.1,29.5
 c-0.4,1.4-0.8,3.4-1.1,5.8c-0.1,0.8,0.4,1.5,1.2,1.6c0.1,0,0.1,0,0.2,0c0.7,0,1.3-0.5,1.4-1.2c0.3-2.3,0.6-4.1,1-5.4
 c0.5-1.5,1.8-2.9,3.3-3.3c3.9-0.9,18.2-1.1,29.2-1C45.2,26,45.8,25.4,45.8,24.6z"></path> <path class="st7" d="M57.7,80.4C57.7,80.4,57.7,80.4,57.7,80.4c6.5,0,22.1,0,26.7-1.1c2.6-0.6,4.6-2.6,5.4-5.1
 c1.6-5.5,2.2-17.3,2.3-21.4l0,0c0.1-4.1,0.1-15.9-1.3-21.5l0,0c-0.2-0.8-1-1.2-1.7-1c-0.8,0.2-1.2,1-1,1.7c0,0,0,0,0,0
 c1.3,5.3,1.3,16.7,1.2,20.7l0,0c-0.1,4-0.6,15.4-2.1,20.6c-0.5,1.6-1.7,2.8-3.3,3.2c-3,0.7-12.7,1.1-26,1c-0.8,0-1.4,0.6-1.4,1.4
 C56.3,79.8,56.9,80.4,57.7,80.4L57.7,80.4z"></path> <path class="st7" d="M8.9,40.4c-0.8-0.1-1.5,0.5-1.5,1.3c-0.3,3.6-0.4,7.1-0.5,9.1c-0.1,4.1,0,15.9,1.3,21.5
 c0.6,2.3,2.2,4.2,4.3,5.1c0.2,0.1,0.3,0.1,0.5,0.1c0.6,0,1.1-0.3,1.3-0.9c0.3-0.7,0-1.5-0.7-1.9c-1.3-0.6-2.3-1.7-2.7-3.1
 c-1.3-5.2-1.3-16.7-1.2-20.7c0-2,0.2-5.4,0.5-9C10.2,41.1,9.7,40.5,8.9,40.4L8.9,40.4z"></path> <path class="st7" d="M53.4,31.1l9.9,0.2l2.9,4.4c0.3,0.4,0.7,0.6,1.1,0.6c0.5,0,0.9-0.2,1.2-0.6l3.1-4.3l9.9,0.2
 c2.6,0.1,4.7-2,4.8-4.6l0.4-19.9c0.1-2.6-2-4.7-4.6-4.8L64.3,2.1c-0.8,0-1.4,0.6-1.4,1.4s0.6,1.4,1.4,1.4l17.9,0.4
 c1,0,1.9,0.9,1.8,1.9l-0.4,19.9c0,1-0.9,1.9-1.9,1.8l-10.6-0.2c-0.5,0-0.9,0.2-1.2,0.6l-2.4,3.2l-2.2-3.3c-0.3-0.4-0.7-0.6-1.1-0.6
 l-10.6-0.2c-1,0-1.9-0.9-1.8-1.9L52,6.5c0-1,0.9-1.9,1.9-1.8l3.7,0.1c0.8,0,1.4-0.6,1.4-1.4s-0.6-1.4-1.4-1.4L54,1.8
 c-2.6-0.1-4.7,2-4.8,4.6l-0.4,19.9C48.7,28.9,50.8,31.1,53.4,31.1z"></path> <path class="st7" d="M66.6,23.3c0.3,0.3,0.6,0.4,1,0.4c0.4,0,0.7-0.1,1-0.4l5.5-5.3c1.9-1.8,1.9-4.8,0.2-6.6c0,0,0,0,0,0
 c-1.7-1.8-4.5-1.9-6.4-0.3c-1.8-1.7-4.6-1.7-6.4,0.1c-1.9,1.8-1.9,4.8-0.1,6.6L66.6,23.3z M63.4,13.1c0.4-0.4,0.9-0.5,1.3-0.5
 c0.5,0,1,0.2,1.3,0.6l0.8,0.8c0.5,0.6,1.4,0.6,2,0l0.8-0.8c0.7-0.7,1.9-0.7,2.6,0.1c0.7,0.7,0.7,1.9-0.1,2.6l-4.5,4.3l-4.3-4.5
 C62.7,15,62.7,13.9,63.4,13.1L63.4,13.1z"></path> <path class="st7" d="M49.2,75.3l-22.1-0.5L19.8,69c-0.4-0.3-1-0.4-1.5-0.2c-0.5,0.2-0.8,0.7-0.8,1.2L17,93.1
 c-0.1,2.4,1.8,4.4,4.2,4.4l3.1,0.1c0.8,0,1.4-0.6,1.4-1.4s-0.6-1.4-1.4-1.4l-3.1-0.1c-0.8,0-1.5-0.7-1.5-1.5L20.2,73l5.5,4.4
 c0.2,0.2,0.5,0.3,0.8,0.3l22.6,0.5c0.8,0,1.5,0.7,1.5,1.5l-0.3,14.2c0,0.8-0.7,1.5-1.5,1.5l-17.9-0.4c-0.8,0-1.4,0.6-1.4,1.4
 c0,0.8,0.6,1.4,1.4,1.4l17.9,0.4c2.4,0.1,4.4-1.8,4.4-4.2l0.3-14.2C53.5,77.3,51.6,75.3,49.2,75.3L49.2,75.3z"></path> <path class="st7" d="M26.1,90.9l18.8,0.4c0.8,0,1.4-0.6,1.4-1.4c0-0.8-0.6-1.4-1.4-1.4l-18.8-0.4c-0.8,0-1.4,0.6-1.4,1.4
 C24.7,90.2,25.3,90.9,26.1,90.9L26.1,90.9z"></path> <path class="st7" d="M26.3,84.5l16.9,0.4c0.8,0,1.4-0.6,1.4-1.4S44,82.1,43.3,82l-16.9-0.4c-0.8,0-1.4,0.6-1.4,1.4
 C24.9,83.8,25.5,84.5,26.3,84.5L26.3,84.5z"></path> </g> </svg>
