<?xml version="1.0" encoding="UTF-8"?> <svg xmlns="http://www.w3.org/2000/svg" id="Layer_1" data-name="Layer 1" viewBox="0 0 188 25"><defs><style>.cls-1{fill:#3ae282;}</style></defs><path class="cls-1" d="M8,14v5.73H3.7V4H8.86q6.42,0,6.42,4.65a4.65,4.65,0,0,1-2.67,4.23l4.59,6.86H12.37L9,14Zm0-3.2h.79c1.49,0,2.23-.65,2.23-2,0-1.08-.73-1.62-2.18-1.62H8Z"></path><path class="cls-1" d="M28,19.75H18.63V4H28V7.42h-5.1V9.9H27.6v3.41H22.88v3H28Z"></path><path class="cls-1" d="M37.6,19.75,34.38,8.41h-.1c.15,1.93.23,3.43.23,4.5v6.84H30.74V4H36.4l3.29,11.18h.08L43,4h5.68V19.75H44.76v-6.9c0-.36,0-.76,0-1.2s0-1.51.14-3.22h-.1L41.65,19.75Z"></path><path class="cls-1" d="M61.72,19.75,61,16.8H55.83L55,19.75H50.36L55.5,3.94h5.67l5.21,15.81Zm-1.66-6.44-.67-2.58c-.16-.58-.35-1.32-.58-2.23s-.38-1.57-.45-2c-.06.36-.19,1-.38,1.81s-.61,2.49-1.27,5Z"></path><path class="cls-1" d="M72.33,14v5.73H68.08V4h5.16q6.42,0,6.42,4.65A4.64,4.64,0,0,1,77,12.89l4.59,6.86H76.75L73.41,14Zm0-3.2h.8c1.48,0,2.23-.65,2.23-2q0-1.62-2.19-1.62h-.84Z"></path><path class="cls-1" d="M96.46,19.75H91.65l-3.11-6-1.26.76v5.26H83V4h4.27v6.83a20.46,20.46,0,0,1,1.3-2L91.89,4h4.65l-5,7.05Z"></path><path class="cls-1" d="M107.51,19.75H98.16V4h9.35V7.42h-5.1V9.9h4.72v3.41h-4.72v3h5.1Z"></path><path class="cls-1" d="M117.21,19.75H113V7.48h-3.85V4h11.94V7.48h-3.84Z"></path><path class="cls-1" d="M123.3,19.75V4h4.27V19.75Z"></path><path class="cls-1" d="M146,19.75h-5.58L134.64,8.66h-.1c.14,1.74.21,3.08.21,4v7.1H131V4h5.56L142.26,15h.07c-.1-1.59-.15-2.86-.15-3.83V4H146Z"></path><path class="cls-1" d="M155.7,10.53h6.79V19a18.68,18.68,0,0,1-6.08.95,7.37,7.37,0,0,1-5.63-2.11,8.44,8.44,0,0,1-2-6A7.92,7.92,0,0,1,151,5.9a8.37,8.37,0,0,1,6.09-2.12,13.32,13.32,0,0,1,2.81.28,11.81,11.81,0,0,1,2.3.71l-1.35,3.34a8.32,8.32,0,0,0-3.74-.84,3.55,3.55,0,0,0-2.88,1.21,5.29,5.29,0,0,0-1,3.46,5.27,5.27,0,0,0,.92,3.37,3.19,3.19,0,0,0,2.65,1.16,7.39,7.39,0,0,0,1.75-.19V13.82H155.7Z"></path><path class="cls-1" d="M173.09,6.12c-.09.21-.18.41-.29.61a.28.28,0,0,0,.48.29,6.08,6.08,0,0,0,.33-.68C173.72,6,173.22,5.83,173.09,6.12Z"></path><path class="cls-1" d="M174.21,6.13a5.56,5.56,0,0,1-.42.54c-.24.26.16.64.4.38a3.87,3.87,0,0,0,.48-.59C174.84,6.2,174.41,5.88,174.21,6.13Z"></path><path class="cls-1" d="M175.5,6.44c-.17.14-.34.29-.53.42a.28.28,0,0,0,.31.46,4.44,4.44,0,0,0,.59-.46C176.1,6.64,175.75,6.23,175.5,6.44Z"></path><path class="cls-1" d="M176.69,7c-.2.1-.4.21-.61.29a.28.28,0,0,0,.19.52,4.32,4.32,0,0,0,.69-.32C177.23,7.35,177,6.87,176.69,7Z"></path><path class="cls-1" d="M177.72,7.85c-.22.06-.44.11-.67.15a.28.28,0,0,0,.08.55,3.76,3.76,0,0,0,.74-.16C178.17,8.3,178,7.78,177.72,7.85Z"></path><path class="cls-1" d="M178.53,8.9c-.22,0-.45,0-.68,0a.28.28,0,0,0,0,.56,4.81,4.81,0,0,0,.76,0C178.87,9.43,178.86,8.89,178.53,8.9Z"></path><path class="cls-1" d="M179.09,10.1c-.22,0-.44-.09-.66-.16a.28.28,0,0,0-.18.53,4.7,4.7,0,0,0,.74.18C179.3,10.7,179.41,10.17,179.09,10.1Z"></path><path class="cls-1" d="M179.37,11.4c-.21-.1-.42-.19-.62-.31a.28.28,0,0,0-.28.48,3.83,3.83,0,0,0,.67.34C179.43,12,179.66,11.53,179.37,11.4Z"></path><path class="cls-1" d="M179.34,12.72c-.18-.14-.36-.28-.53-.44a.28.28,0,0,0-.39.4,3.86,3.86,0,0,0,.58.49C179.26,13.35,179.59,12.92,179.34,12.72Z"></path><path class="cls-1" d="M179,14a5.56,5.56,0,0,1-.42-.54.28.28,0,0,0-.47.3,5.41,5.41,0,0,0,.46.61C178.8,14.6,179.22,14.25,179,14Z"></path><path class="cls-1" d="M178.41,15.18a5.83,5.83,0,0,1-.28-.62.28.28,0,0,0-.52.19,4.23,4.23,0,0,0,.3.69C178.07,15.72,178.55,15.47,178.41,15.18Z"></path><path class="cls-1" d="M177.56,16.2c-.05-.23-.1-.45-.13-.67a.28.28,0,0,0-.56.06,3.74,3.74,0,0,0,.15.74C177.11,16.64,177.63,16.51,177.56,16.2Z"></path><path class="cls-1" d="M176.5,17c0-.23,0-.45,0-.68a.28.28,0,0,0-.55-.06,3.77,3.77,0,0,0,0,.75C176,17.32,176.5,17.31,176.5,17Z"></path><path class="cls-1" d="M175.29,17.53c.05-.22.1-.44.17-.66a.28.28,0,0,0-.52-.19,3.76,3.76,0,0,0-.2.73C174.69,17.73,175.22,17.84,175.29,17.53Z"></path><path class="cls-1" d="M174,17.78c.1-.21.2-.41.32-.61a.28.28,0,0,0-.47-.29,4.22,4.22,0,0,0-.36.66C173.36,17.84,173.85,18.07,174,17.78Z"></path><path class="cls-1" d="M172.67,17.73c.14-.18.28-.35.44-.52s-.14-.65-.39-.39a3.93,3.93,0,0,0-.5.57C172,17.64,172.46,18,172.67,17.73Z"></path><path class="cls-1" d="M171.39,17.38a5.52,5.52,0,0,1,.55-.4.28.28,0,0,0-.3-.47A4.28,4.28,0,0,0,171,17C170.8,17.16,171.13,17.58,171.39,17.38Z"></path><path class="cls-1" d="M170.22,16.76c.21-.1.41-.19.63-.27a.28.28,0,0,0-.18-.53,4.34,4.34,0,0,0-.7.3C169.69,16.41,169.93,16.9,170.22,16.76Z"></path><path class="cls-1" d="M169.22,15.89a4.94,4.94,0,0,1,.67-.12.28.28,0,0,0,0-.56,6.54,6.54,0,0,0-.75.13C168.79,15.43,168.91,16,169.22,15.89Z"></path><path class="cls-1" d="M168.44,14.82a5.31,5.31,0,0,1,.69,0,.28.28,0,0,0,.07-.55,3.23,3.23,0,0,0-.76,0C168.13,14.27,168.12,14.81,168.44,14.82Z"></path><path class="cls-1" d="M167.93,13.6l.66.18a.28.28,0,0,0,.19-.52,4.68,4.68,0,0,0-.73-.21C167.74,13,167.62,13.52,167.93,13.6Z"></path><path class="cls-1" d="M167.7,12.29c.2.11.41.21.6.33a.28.28,0,0,0,.31-.47,5.25,5.25,0,0,0-.66-.36C167.65,11.66,167.42,12.15,167.7,12.29Z"></path><path class="cls-1" d="M167.77,11c.18.15.35.29.51.45a.28.28,0,0,0,.41-.38,5.37,5.37,0,0,0-.56-.51C167.87,10.34,167.53,10.76,167.77,11Z"></path><path class="cls-1" d="M168.14,9.7c.14.18.27.36.4.55A.27.27,0,0,0,169,10a3.27,3.27,0,0,0-.43-.62C168.37,9.11,168,9.44,168.14,9.7Z"></path><path class="cls-1" d="M168.78,8.54a4.91,4.91,0,0,1,.26.63.28.28,0,0,0,.54-.17,4.3,4.3,0,0,0-.29-.7C169.15,8,168.65,8.25,168.78,8.54Z"></path><path class="cls-1" d="M169.67,7.56a4.93,4.93,0,0,1,.11.67.28.28,0,0,0,.56,0,3.67,3.67,0,0,0-.12-.75C170.14,7.13,169.61,7.24,169.67,7.56Z"></path><path class="cls-1" d="M170.76,6.8c0,.23,0,.45,0,.68a.28.28,0,0,0,.55.08,4.73,4.73,0,0,0,0-.75C171.31,6.49,170.77,6.48,170.76,6.8Z"></path><path class="cls-1" d="M172,6.31c-.06.22-.12.44-.2.65a.28.28,0,0,0,.52.2,4.29,4.29,0,0,0,.22-.72C172.6,6.13,172.07,6,172,6.31Z"></path><path class="cls-1" d="M173,3.73c-.13.29-.26.58-.41.86a.39.39,0,0,0,.67.39,6.45,6.45,0,0,0,.47-1C173.88,3.61,173.18,3.31,173,3.73Z"></path><path class="cls-1" d="M174.58,3.75c-.2.25-.39.51-.6.75a.39.39,0,0,0,.57.53,5.27,5.27,0,0,0,.66-.82C175.46,3.84,174.85,3.39,174.58,3.75Z"></path><path class="cls-1" d="M176.39,4.17c-.25.21-.49.41-.75.6a.39.39,0,0,0,.43.65,6.59,6.59,0,0,0,.84-.66C177.23,4.46,176.73,3.88,176.39,4.17Z"></path><path class="cls-1" d="M178.06,5c-.29.14-.57.29-.87.41a.39.39,0,0,0,.28.73,6,6,0,0,0,1-.45C178.81,5.46,178.46,4.78,178.06,5Z"></path><path class="cls-1" d="M179.5,6.16c-.31.08-.62.16-.94.21a.39.39,0,0,0,.11.77,5.35,5.35,0,0,0,1-.22C180.13,6.79,179.94,6.05,179.5,6.16Z"></path><path class="cls-1" d="M180.64,7.63c-.32,0-.64,0-1,0a.39.39,0,0,0-.07.78,6.26,6.26,0,0,0,1.06,0C181.12,8.38,181.09,7.62,180.64,7.63Z"></path><path class="cls-1" d="M181.43,9.32c-.32-.07-.63-.13-.94-.23a.39.39,0,0,0-.24.74,6,6,0,0,0,1,.26C181.72,10.15,181.87,9.41,181.43,9.32Z"></path><path class="cls-1" d="M181.81,11.14c-.29-.14-.58-.27-.86-.43a.39.39,0,0,0-.41.66,6.11,6.11,0,0,0,1,.49C181.91,12,182.22,11.33,181.81,11.14Z"></path><path class="cls-1" d="M181.77,13c-.25-.2-.5-.4-.74-.62a.39.39,0,0,0-.54.56,5.91,5.91,0,0,0,.81.69C181.67,13.88,182.13,13.27,181.77,13Z"></path><path class="cls-1" d="M181.32,14.8c-.2-.25-.4-.5-.58-.76a.39.39,0,0,0-.66.42,5.91,5.91,0,0,0,.64.85C181,15.63,181.6,15.15,181.32,14.8Z"></path><path class="cls-1" d="M180.47,16.45a8.53,8.53,0,0,1-.39-.87.39.39,0,0,0-.74.26,6.07,6.07,0,0,0,.43,1C180,17.2,180.67,16.86,180.47,16.45Z"></path><path class="cls-1" d="M179.27,17.88c-.07-.32-.14-.62-.18-.94a.39.39,0,0,0-.78.09,6.16,6.16,0,0,0,.2,1C178.64,18.5,179.38,18.32,179.27,17.88Z"></path><path class="cls-1" d="M177.79,19c0-.32,0-.63,0-1A.39.39,0,0,0,177,18,6.27,6.27,0,0,0,177,19C177,19.45,177.79,19.44,177.79,19Z"></path><path class="cls-1" d="M176.09,19.75a9,9,0,0,1,.24-.93.39.39,0,0,0-.74-.26,5.3,5.3,0,0,0-.27,1C175.24,20,176,20.19,176.09,19.75Z"></path><path class="cls-1" d="M174.26,20.1a8.6,8.6,0,0,1,.45-.85.4.4,0,0,0-.67-.42,5.6,5.6,0,0,0-.49.94C173.38,20.18,174.06,20.5,174.26,20.1Z"></path><path class="cls-1" d="M172.4,20a8.67,8.67,0,0,1,.63-.73.39.39,0,0,0-.55-.55,4.84,4.84,0,0,0-.7.8C171.52,19.91,172.12,20.38,172.4,20Z"></path><path class="cls-1" d="M170.61,19.55a8.5,8.5,0,0,1,.77-.57.39.39,0,0,0-.41-.67,6.72,6.72,0,0,0-.86.62C169.78,19.23,170.25,19.82,170.61,19.55Z"></path><path class="cls-1" d="M169,18.67a8.64,8.64,0,0,1,.88-.38.39.39,0,0,0-.25-.74,5.63,5.63,0,0,0-1,.41C168.23,18.18,168.56,18.86,169,18.67Z"></path><path class="cls-1" d="M167.56,17.45c.32-.07.63-.14.95-.18a.39.39,0,0,0-.08-.77,5.27,5.27,0,0,0-1,.18C167,16.8,167.12,17.54,167.56,17.45Z"></path><path class="cls-1" d="M166.47,15.94c.33,0,.64,0,1,0a.39.39,0,0,0,.1-.77,6.22,6.22,0,0,0-1.06-.06C166,15.17,166,15.93,166.47,15.94Z"></path><path class="cls-1" d="M165.75,14.23a7.4,7.4,0,0,1,.92.26.4.4,0,0,0,.28-.74,6.5,6.5,0,0,0-1-.29C165.49,13.38,165.31,14.12,165.75,14.23Z"></path><path class="cls-1" d="M165.43,12.39c.29.15.57.29.84.46a.39.39,0,0,0,.43-.65,6,6,0,0,0-.93-.51C165.37,11.51,165,12.19,165.43,12.39Z"></path><path class="cls-1" d="M165.53,10.54q.38.3.72.63a.39.39,0,0,0,.56-.54,6.57,6.57,0,0,0-.78-.71C165.67,9.66,165.19,10.25,165.53,10.54Z"></path><path class="cls-1" d="M166.05,8.75c.19.26.38.51.55.78a.39.39,0,0,0,.68-.4,6.48,6.48,0,0,0-.61-.87C166.38,7.93,165.78,8.39,166.05,8.75Z"></path><path class="cls-1" d="M167,7.13c.13.29.26.58.37.88a.39.39,0,0,0,.74-.23,5.66,5.66,0,0,0-.39-1C167.46,6.4,166.77,6.71,167,7.13Z"></path><path class="cls-1" d="M168.2,5.75c.06.31.12.62.16.94a.39.39,0,0,0,.77-.06,5.33,5.33,0,0,0-.16-1C168.86,5.15,168.11,5.3,168.2,5.75Z"></path><path class="cls-1" d="M169.72,4.68c0,.32,0,.64-.06,1a.39.39,0,0,0,.78.11,6.23,6.23,0,0,0,.07-1.06C170.5,4.25,169.74,4.23,169.72,4.68Z"></path><path class="cls-1" d="M171.45,4c-.08.31-.16.62-.27.92a.39.39,0,0,0,.72.28,6.22,6.22,0,0,0,.32-1C172.3,3.74,171.57,3.55,171.45,4Z"></path></svg> 