<svg xmlns="http://www.w3.org/2000/svg" xmlns:xlink="http://www.w3.org/1999/xlink" width="295" zoomAndPan="magnify" viewBox="0 0 221.25 30.000001" height="40" preserveAspectRatio="xMidYMid meet" version="1.0"><defs><g/><clipPath id="f010dbc76f"><path d="M 193.617188 3.066406 L 216.117188 3.066406 L 216.117188 26 L 193.617188 26 Z M 193.617188 3.066406 " clip-rule="nonzero"/></clipPath><clipPath id="b198f32178"><path d="M 193.617188 14 L 216.117188 14 L 216.117188 26.289062 L 193.617188 26.289062 Z M 193.617188 14 " clip-rule="nonzero"/></clipPath></defs><g fill="#ffffff" fill-opacity="1"><g transform="translate(2.029637, 25.329765)"><g><path d="M 20.765625 0 L 20.703125 -10.96875 L 15.375 -2.046875 L 12.78125 -2.046875 L 7.484375 -10.671875 L 7.484375 0 L 2.078125 0 L 2.078125 -20.703125 L 6.890625 -20.703125 L 14.171875 -8.75 L 21.265625 -20.703125 L 26.09375 -20.703125 L 26.140625 0 Z M 20.765625 0 "/></g></g></g><g fill="#ffffff" fill-opacity="1"><g transform="translate(30.245739, 25.329765)"><g><path d="M 15.9375 -4.015625 L 7.1875 -4.015625 L 5.5625 0 L -0.421875 0 L 8.71875 -20.703125 L 14.5 -20.703125 L 23.65625 0 L 17.5625 0 Z M 14.234375 -8.34375 L 11.5625 -14.96875 L 8.90625 -8.34375 Z M 14.234375 -8.34375 "/></g></g></g><g fill="#ffffff" fill-opacity="1"><g transform="translate(53.492975, 25.329765)"><g><path d="M 11.125 -5.5 L 7.921875 -5.5 L 7.921875 0 L 2.078125 0 L 2.078125 -20.703125 L 11.53125 -20.703125 C 13.40625 -20.703125 15.03125 -20.390625 16.40625 -19.765625 C 17.789062 -19.148438 18.859375 -18.265625 19.609375 -17.109375 C 20.359375 -15.953125 20.734375 -14.597656 20.734375 -13.046875 C 20.734375 -11.546875 20.382812 -10.238281 19.6875 -9.125 C 18.988281 -8.007812 17.988281 -7.132812 16.6875 -6.5 L 21.140625 0 L 14.875 0 Z M 14.8125 -13.046875 C 14.8125 -14.015625 14.503906 -14.765625 13.890625 -15.296875 C 13.285156 -15.828125 12.382812 -16.09375 11.1875 -16.09375 L 7.921875 -16.09375 L 7.921875 -10.03125 L 11.1875 -10.03125 C 12.382812 -10.03125 13.285156 -10.289062 13.890625 -10.8125 C 14.503906 -11.332031 14.8125 -12.078125 14.8125 -13.046875 Z M 14.8125 -13.046875 "/></g></g></g><g fill="#ffffff" fill-opacity="1"><g transform="translate(75.379679, 25.329765)"><g><path d="M 10.0625 -7.515625 L 7.875 -5.171875 L 7.875 0 L 2.078125 0 L 2.078125 -20.703125 L 7.875 -20.703125 L 7.875 -12.09375 L 15.890625 -20.703125 L 22.328125 -20.703125 L 13.875 -11.53125 L 22.78125 0 L 15.96875 0 Z M 10.0625 -7.515625 "/></g></g></g><g fill="#ffffff" fill-opacity="1"><g transform="translate(97.621312, 25.329765)"><g><path d="M 18.6875 -4.53125 L 18.6875 0 L 2.078125 0 L 2.078125 -20.703125 L 18.3125 -20.703125 L 18.3125 -16.171875 L 7.875 -16.171875 L 7.875 -12.6875 L 17.0625 -12.6875 L 17.0625 -8.3125 L 7.875 -8.3125 L 7.875 -4.53125 Z M 18.6875 -4.53125 "/></g></g></g><g fill="#ffffff" fill-opacity="1"><g transform="translate(117.496809, 25.329765)"><g><path d="M 6.484375 -16.0625 L 0.125 -16.0625 L 0.125 -20.703125 L 18.65625 -20.703125 L 18.65625 -16.0625 L 12.328125 -16.0625 L 12.328125 0 L 6.484375 0 Z M 6.484375 -16.0625 "/></g></g></g><g fill="#ffffff" fill-opacity="1"><g transform="translate(136.277969, 25.329765)"><g><path d="M 2.078125 -20.703125 L 7.921875 -20.703125 L 7.921875 0 L 2.078125 0 Z M 2.078125 -20.703125 "/></g></g></g><g fill="#ffffff" fill-opacity="1"><g transform="translate(146.304445, 25.329765)"><g><path d="M 21.765625 -20.703125 L 21.765625 0 L 16.953125 0 L 7.8125 -11.03125 L 7.8125 0 L 2.078125 0 L 2.078125 -20.703125 L 6.890625 -20.703125 L 16.03125 -9.671875 L 16.03125 -20.703125 Z M 21.765625 -20.703125 "/></g></g></g><g fill="#ffffff" fill-opacity="1"><g transform="translate(170.143215, 25.329765)"><g><path d="M 15.9375 -10.796875 L 21.125 -10.796875 L 21.125 -2.21875 C 19.9375 -1.375 18.570312 -0.722656 17.03125 -0.265625 C 15.5 0.191406 13.960938 0.421875 12.421875 0.421875 C 10.253906 0.421875 8.300781 -0.0351562 6.5625 -0.953125 C 4.832031 -1.878906 3.472656 -3.160156 2.484375 -4.796875 C 1.492188 -6.429688 1 -8.285156 1 -10.359375 C 1 -12.421875 1.492188 -14.269531 2.484375 -15.90625 C 3.472656 -17.550781 4.84375 -18.832031 6.59375 -19.75 C 8.351562 -20.664062 10.335938 -21.125 12.546875 -21.125 C 14.472656 -21.125 16.203125 -20.796875 17.734375 -20.140625 C 19.273438 -19.492188 20.5625 -18.554688 21.59375 -17.328125 L 17.859375 -13.953125 C 16.460938 -15.492188 14.789062 -16.265625 12.84375 -16.265625 C 11.0625 -16.265625 9.628906 -15.726562 8.546875 -14.65625 C 7.460938 -13.582031 6.921875 -12.148438 6.921875 -10.359375 C 6.921875 -9.210938 7.164062 -8.1875 7.65625 -7.28125 C 8.15625 -6.382812 8.847656 -5.6875 9.734375 -5.1875 C 10.617188 -4.6875 11.632812 -4.4375 12.78125 -4.4375 C 13.90625 -4.4375 14.957031 -4.660156 15.9375 -5.109375 Z M 15.9375 -10.796875 "/></g></g></g><g clip-path="url(#f010dbc76f)"><path fill="#ffffff" d="M 216.117188 14.472656 C 216.117188 14.539062 216.117188 14.609375 216.117188 14.679688 C 216.007812 20.878906 211.011719 25.875 204.867188 25.875 C 198.722656 25.875 193.726562 20.878906 193.617188 14.679688 C 193.617188 14.609375 193.617188 14.539062 193.617188 14.472656 C 193.617188 8.175781 198.652344 3.070312 204.867188 3.070312 C 211.082031 3.070312 216.117188 8.175781 216.117188 14.472656 Z M 216.117188 14.472656 " fill-opacity="1" fill-rule="nonzero"/></g><path fill="#7ed957" d="M 199.964844 14.679688 C 199.960938 14.625 199.960938 14.574219 199.960938 14.523438 C 199.960938 11.78125 202.160156 9.550781 204.867188 9.550781 C 207.574219 9.550781 209.777344 11.78125 209.777344 14.523438 C 209.777344 14.574219 209.773438 14.625 209.773438 14.679688 C 209.691406 12.003906 207.523438 9.855469 204.867188 9.855469 C 202.210938 9.855469 200.042969 12.003906 199.964844 14.679688 Z M 204.867188 21.683594 C 201.015625 21.683594 197.886719 18.5625 197.804688 14.679688 C 197.800781 14.730469 197.800781 14.78125 197.800781 14.832031 C 197.800781 18.785156 200.964844 21.992188 204.867188 21.992188 C 208.769531 21.992188 211.933594 18.785156 211.933594 14.832031 C 211.933594 14.78125 211.933594 14.730469 211.929688 14.679688 C 211.851562 18.5625 208.71875 21.683594 204.867188 21.683594 Z M 204.867188 21.683594 " fill-opacity="1" fill-rule="nonzero"/><path fill="#7ed957" d="M 204.867188 7.363281 C 200.964844 7.363281 197.800781 10.570312 197.800781 14.523438 C 197.800781 14.578125 197.800781 14.628906 197.804688 14.679688 C 197.882812 18.5625 201.015625 21.683594 204.867188 21.683594 C 208.71875 21.683594 211.851562 18.5625 211.929688 14.679688 C 211.933594 14.628906 211.933594 14.578125 211.933594 14.523438 C 211.933594 10.570312 208.769531 7.363281 204.867188 7.363281 Z M 209.773438 14.679688 C 209.691406 17.351562 207.523438 19.5 204.867188 19.5 C 202.210938 19.5 200.042969 17.351562 199.964844 14.679688 C 199.960938 14.625 199.960938 14.574219 199.960938 14.523438 C 199.960938 11.78125 202.160156 9.550781 204.867188 9.550781 C 207.574219 9.550781 209.777344 11.78125 209.777344 14.523438 C 209.777344 14.574219 209.773438 14.625 209.773438 14.679688 Z M 209.773438 14.679688 " fill-opacity="1" fill-rule="nonzero"/><g clip-path="url(#b198f32178)"><path fill="#ffffff" d="M 216.117188 14.679688 C 216.117188 14.746094 216.117188 14.816406 216.117188 14.882812 C 216.117188 21.179688 211.082031 26.285156 204.867188 26.285156 C 198.652344 26.285156 193.617188 21.179688 193.617188 14.882812 C 193.617188 14.816406 193.617188 14.746094 193.617188 14.679688 C 193.726562 20.878906 198.722656 25.875 204.867188 25.875 C 211.011719 25.875 216.007812 20.878906 216.117188 14.679688 Z M 216.117188 14.679688 " fill-opacity="1" fill-rule="nonzero"/></g></svg>