<svg xmlns="http://www.w3.org/2000/svg" xmlns:xlink="http://www.w3.org/1999/xlink" viewBox="0 0 732.3 802.32"><defs/><defs><linearGradient id="a" x1="430.16" x2="430.16" y1="160.18" y2="148.39" gradientUnits="userSpaceOnUse"><stop offset="0" stop-color="#366ab3"/><stop offset="1" stop-color="#181819"/></linearGradient><linearGradient id="d" x1="430.16" x2="430.16" y1="161.08" y2="152.29" xlink:href="#a"/><linearGradient id="e" x1="370.36" x2="370.36" y1="163.75" y2="155.58" xlink:href="#a"/><linearGradient id="f" x1="370.36" x2="370.36" y1="163.43" y2="155.5" xlink:href="#a"/><linearGradient id="b" x1="389.52" x2="402.67" y1="76.35" y2="76.35" gradientUnits="userSpaceOnUse"><stop offset="0" stop-color="#0c0c0c"/><stop offset=".49" stop-color="#434343"/><stop offset="1" stop-color="#0c0c0c"/></linearGradient><linearGradient id="g" x1="393.54" x2="404.21" y1="75.81" y2="75.81" xlink:href="#b"/><linearGradient id="h" x1="397.34" x2="406.68" y1="75.42" y2="75.42" xlink:href="#b"/><linearGradient id="i" x1="402.02" x2="409.1" y1="75.81" y2="75.81" xlink:href="#b"/><linearGradient id="j" x1="406.04" x2="414.49" y1="74.95" y2="74.95" xlink:href="#b"/><linearGradient id="k" x1="408.89" x2="416.64" y1="75.19" y2="75.19" xlink:href="#b"/><linearGradient id="l" x1="419.41" x2="423.9" y1="72.62" y2="72.62" xlink:href="#b"/><linearGradient id="m" x1="420.32" x2="424.69" y1="75.03" y2="75.03" xlink:href="#b"/><linearGradient id="n" x1="423.85" x2="430.48" y1="75.42" y2="75.42" xlink:href="#b"/><linearGradient id="o" x1="433.59" x2="438.89" y1="74.41" y2="74.41" xlink:href="#b"/><linearGradient id="p" x1="439.83" x2="449.02" y1="79.93" y2="79.93" xlink:href="#b"/><linearGradient id="q" x1="443.97" x2="452.4" y1="81.65" y2="81.65" xlink:href="#b"/><linearGradient id="r" x1="385.95" x2="395.8" y1="75.42" y2="75.42" xlink:href="#b"/><linearGradient id="s" x1="385" x2="392.99" y1="75.19" y2="75.19" xlink:href="#b"/><linearGradient id="t" x1="378.88" x2="384.62" y1="75.73" y2="75.73" xlink:href="#b"/><linearGradient id="u" x1="379.89" x2="386.64" y1="75.81" y2="75.81" xlink:href="#b"/><linearGradient id="v" x1="376.5" x2="381.03" y1="75.42" y2="75.42" xlink:href="#b"/><linearGradient id="w" x1="341.17" x2="360.03" y1="86.39" y2="86.39" xlink:href="#b"/><linearGradient id="x" x1="348.96" x2="362.62" y1="82.04" y2="82.04" xlink:href="#b"/><linearGradient id="y" x1="356.84" x2="367.6" y1="79.23" y2="79.23" xlink:href="#b"/><linearGradient id="z" x1="361.73" x2="370.65" y1="76.9" y2="76.9" xlink:href="#b"/><linearGradient id="c" x1="385.06" x2="394.14" y1="75.81" y2="75.81" gradientUnits="userSpaceOnUse"><stop offset="0" stop-color="#0c0c0c"/><stop offset=".49" stop-color="#595758"/><stop offset="1" stop-color="#0c0c0c"/></linearGradient><linearGradient id="A" x1="395.17" x2="405.64" y1="75.89" y2="75.89" xlink:href="#c"/><linearGradient id="B" x1="419.8" x2="425.51" y1="74.8" y2="74.8" xlink:href="#c"/><linearGradient id="C" x1="433.1" x2="440.54" y1="76.28" y2="76.28" xlink:href="#c"/><linearGradient id="D" x1="441.67" x2="450.67" y1="80.79" y2="80.79" xlink:href="#c"/><linearGradient id="E" x1="345.1" x2="361.2" y1="84.76" y2="84.76" xlink:href="#c"/><linearGradient id="F" x1="377.91" x2="383.06" y1="75.34" y2="75.34" xlink:href="#c"/><linearGradient id="G" x1="328.16" x2="330.18" y1="151.11" y2="151.11" xlink:href="#c"/><linearGradient id="H" x1="329.45" x2="332.95" y1="147.93" y2="147.93" xlink:href="#c"/><linearGradient id="I" x1="322.98" x2="330.14" y1="128.42" y2="128.42" xlink:href="#c"/><linearGradient id="J" x1="324.23" x2="330.15" y1="133.09" y2="133.09" xlink:href="#c"/><linearGradient id="K" x1="332.7" x2="336.29" y1="127.64" y2="127.64" xlink:href="#c"/><linearGradient id="L" x1="334.39" x2="336.31" y1="130.8" y2="130.8" xlink:href="#c"/><linearGradient id="M" x1="334.39" x2="336.31" y1="135.97" y2="135.97" xlink:href="#c"/><linearGradient id="N" x1="335.23" x2="337.27" y1="138.31" y2="138.31" xlink:href="#c"/><linearGradient id="O" x1="335.23" x2="337.26" y1="142.2" y2="142.2" xlink:href="#c"/><linearGradient id="P" x1="334.39" x2="340.61" y1="110.52" y2="110.52" xlink:href="#c"/><linearGradient id="Q" x1="334.39" x2="339.66" y1="113.79" y2="113.79" xlink:href="#c"/><linearGradient id="R" x1="461.32" x2="469.73" y1="120.33" y2="120.33" xlink:href="#c"/><linearGradient id="S" x1="462.12" x2="469.73" y1="123.75" y2="123.75" xlink:href="#c"/><linearGradient id="T" x1="463.18" x2="469.75" y1="126.92" y2="126.92" xlink:href="#c"/><linearGradient id="U" x1="465.43" x2="469.73" y1="131.92" y2="131.92" xlink:href="#c"/><linearGradient id="V" x1="465.4" x2="469.73" y1="134.8" y2="134.8" xlink:href="#c"/><linearGradient id="W" x1="464.52" x2="469.73" y1="137.76" y2="137.76" xlink:href="#c"/><linearGradient id="X" x1="463.6" x2="469.73" y1="140.25" y2="140.25" xlink:href="#c"/><linearGradient id="Y" x1="463.59" x2="468.28" y1="143.69" y2="143.69" xlink:href="#c"/><linearGradient id="Z" x1="462.09" x2="466.56" y1="144.03" y2="144.03" xlink:href="#c"/><linearGradient id="aa" x1="467.48" x2="469.75" y1="160.03" y2="160.03" xlink:href="#c"/><linearGradient id="ab" x1="469.5" x2="471.66" y1="159.55" y2="159.55" xlink:href="#c"/><linearGradient id="ac" x1="468.47" x2="470.7" y1="169.2" y2="169.2" xlink:href="#c"/><linearGradient id="ad" x1="467.44" x2="469.76" y1="171.85" y2="171.85" xlink:href="#c"/><linearGradient id="ae" x1="453.63" x2="468.28" y1="101.18" y2="101.18" xlink:href="#c"/><linearGradient id="af" x1="456.19" x2="467.23" y1="98.74" y2="98.74" xlink:href="#c"/><linearGradient id="ag" x1="456.18" x2="469.7" y1="107.25" y2="107.25" xlink:href="#c"/><linearGradient id="ah" x1="470.46" x2="475.52" y1="128.27" y2="128.27" xlink:href="#c"/></defs><g data-name="Layer 1"><path fill="#add136" d="M732.12 374.23c3-81.45-26.3-163.9-90.8-203.15-31.85-19.38-69.08-30.71-106.33-29.05-40 1.79-77.58 18.06-115.27 31.44s-78.49 24.14-117.34 14.61c-28.11-6.89-52.83-23.9-80.72-31.66-109.49-30.45-204.89 93.87-151.28 192.66 13.16 24.24 33.46 43.67 50.48 65.37s31.35 47.88 29.06 75.37c-1.89 22.74-14.87 43-20.23 65.2-10.28 42.49 10.09 89.25 45.32 115.14s82.74 32 125.14 21.36 79.84-36.75 109.29-69c15.77-17.3 31.14-37.52 53.8-43.4 21.72-5.63 44.13 3.53 66.17 7.74a152.37 152.37 0 00117.55-26.78c53.31-39.41 82.41-112.22 85.16-185.85z"/><path fill="#fff" d="M732.12 374.23c3-81.45-26.3-163.9-90.8-203.15-31.85-19.38-69.08-30.71-106.33-29.05-40 1.79-77.58 18.06-115.27 31.44s-78.49 24.14-117.34 14.61c-28.11-6.89-52.83-23.9-80.72-31.66-109.49-30.45-204.89 93.87-151.28 192.66 13.16 24.24 33.46 43.67 50.48 65.37s31.35 47.88 29.06 75.37c-1.89 22.74-14.87 43-20.23 65.2-10.28 42.49 10.09 89.25 45.32 115.14s82.74 32 125.14 21.36 79.84-36.75 109.29-69c15.77-17.3 31.14-37.52 53.8-43.4 21.72-5.63 44.13 3.53 66.17 7.74a152.37 152.37 0 00117.55-26.78c53.31-39.41 82.41-112.22 85.16-185.85z" opacity=".7"/><path fill="#192e35" stroke="#192e35" stroke-linecap="round" stroke-linejoin="round" d="M653.03 346.82h-86a12.74 12.74 0 00-12.73 12.74v46a12.73 12.73 0 0012.73 12.73h2.68c-2.67 5.94-7.8 14.95-16.07 20.33 0 0 17.44-1.22 35.62-20.33h63.75a12.74 12.74 0 0012.74-12.73v-46a12.75 12.75 0 00-12.72-12.74z"/><path fill="#add136" stroke="#192e35" stroke-linecap="round" stroke-linejoin="round" d="M595.26 380.92a6.56 6.56 0 10-6.56 6.55 6.56 6.56 0 006.56-6.55zM617.55 380.92a6.56 6.56 0 10-6.56 6.55 6.56 6.56 0 006.56-6.55zM639.84 380.92a6.56 6.56 0 10-6.56 6.55 6.56 6.56 0 006.56-6.55z"/><path fill="#100f0f" d="M591.52 412.35c-1.42 4.16-10.66 10.09-21.65 13.84a134.73 134.73 0 00-12.21-11.29 145 145 0 01-3.27-16.21s7 2.69 10.68 4.13 11.65 5.71 17.37 6.53c4.16.58 7.88.86 9.08 3z"/><rect width="169.48" height="71.46" x="98.38" y="243.9" fill="#192e35" stroke="#192e35" stroke-linecap="round" stroke-linejoin="round" rx="2.82"/><path fill="#100f0f" d="M198.5 377.52a36 36 0 01-7-6.79s-10.11 27.58-11.95 36.77c0 0-22.69-11.86-24.07-24.46 3.2-11.6 10.28-8.82 15.8-10.24s23.12-5.2 23.12-5.2 2.03 5.25 4.1 9.92z"/><path fill="none" stroke="#fff" stroke-linecap="round" stroke-linejoin="round" d="M151.64 268.19h96.43M151.64 276.47h96.43M151.64 284.76h96.43M151.64 293.04h96.43"/><circle cx="248.02" cy="410.01" r="36.53" fill="#192e35" stroke="#192e35" stroke-linecap="round" stroke-linejoin="round" transform="rotate(-9.27 113.8 541.236)"/><circle cx="248.02" cy="410.01" r="30.81" fill="#fff" stroke="#192e35" stroke-linecap="round" stroke-linejoin="round" transform="rotate(-48.71 214.61 425.358)"/><path fill="none" stroke="#192e35" stroke-linecap="round" stroke-linejoin="round" stroke-width="2" d="M225.14 367.8v22.29h15.08"/><path fill="#1d1a1a" d="M591.52 412.35c-1.42 4.16-10.66 10.09-21.65 13.84a134.73 134.73 0 00-12.21-11.29c-10.44-8.54-25.32-17.83-35.27-11.89-16.76 10-11.68 36.36-12 41.88s8 18.69-14.07 21.75-103.2 2.44-125.3 6.12-102 .92-107.85-5.21-14.41-18.07-14.41-28.19-31.25-56.07-40.75-57.6a22.42 22.42 0 01-9.51-4.24 36 36 0 01-7-6.79s-10.11 27.58-11.95 36.77c0 0-22.69-11.86-24.07-24.46a9.77 9.77 0 01.17-3.4 38.36 38.36 0 012.41-7.23c4.76-10.79 14-20.81 21.49-34.14 9.19-16.23 24.41-39.42 30.74-44.33a42 42 0 0116.7-8.06 53.42 53.42 0 0115.58-1.13s-.61-5.3 12.45-1.84c6.64 1.59 6.64 2.81 10.93 1.13s8.58 2.29 10.87-1.53 7.68 1.37 12.26-.61 6.59-1.53 10.42-.92 7.06-2 8.12-2.76 2.29-4.75 7.2-3.68 4.45-1.26 8.74-3.61 7.51-6.66 15.62-3.89 17.77 19.15 41.06 19.15 48.9-9.33 48.9-9.33a10.49 10.49 0 017.17 5.65s4.13-.76 7.81 4v.05c3.68 4.7 9 4.7 12.54 4.55s5.36 1.53 8.26 4.44 5.06 2.94 7.82 2.84 3.53 2.83 6.27 1.45 3.84.46 5.23 1.54 4.13-1.54 7.64.91 2.31-2.75 8.74-2 4.13-1.37 8 .15 4.9 0 10.72 3.38 8.73 4.13 15.93 7.35a39.63 39.63 0 0117.78 16.75 37.07 37.07 0 011.83 3.93c4 10.11 8.44 22.22 10.89 28s9 20.54 12.4 25.28 11.34 21.14 13.33 25.13a2.6 2.6 0 01.02 2.09z"/><path fill="#100f0f" d="M262.55 394.02s2.76-12.26-2.14-20.22c0 0 4.59 3.88 4.9 8 0 0-.1-17.36-5.82-26.35s-11.64-15.93-12.26-22.06c0 0 5.72 11.65 11.65 15.32 0 0-8.38-13.48-8.58-20.83 0 0 10.62 15.93 12.25 24.1 0 0 .82-18.59-1.84-25.74 0 0 3.89 18.8 3.27 26.15s2.86 4.49 3.27-1.43.61-20.63 4.29-28a40.53 40.53 0 010 25.33c-4.49 14.1-5.72 19.82-4.7 27.17s-2.04 13.62-4.29 18.56zM498.63 405.8s-5.87-44.67-14.25-60.4c0 0 8.79 15.32 10.62 28.4 0 0-.66-14.1-3.49-22.06 0 0 6.35 11.23 5.74 16.95 0 0 4.29-14.71 3.27-23.29s1.23-18.58 4.08-21.85c0 0-3.67 14.91-1.83 25.53a38.42 38.42 0 01-1.84 19.41 34.16 34.16 0 005.31-11c1.43-5.93 4.08-6.75 4.08-6.75s-3.88 8-2.86 12.06a43.93 43.93 0 005.11-10.63c1.64-5.51 6.13-13.68 11-16.75 0 0-5.72 13.28-6.13 19.41s-15.93 16.55-16.54 22.47-2 9.6.82 7.15 5.92-3.07 2.24 2.65-5.62 14.17-5.36 18.73"/><path d="M326.12 269.27a25.38 25.38 0 00-1.55 9.52 18.53 18.53 0 00.87 4.74c.14.38.31.75.46 1.12a5.61 5.61 0 00.53 1.07c.21.34.39.7.61 1l.74 1a70.18 70.18 0 006.8 6.89q3.62 3.25 7.44 6.25c2.55 2 5.15 3.94 7.83 5.74a28.28 28.28 0 004.23 2.3c1.46.68 3 1.31 4.45 1.93a185.7 185.7 0 0018.3 6.47 43 43 0 004.68 1.13 23.93 23.93 0 004.78.26 26.33 26.33 0 009.26-2.37c2.95-1.29 5.77-2.91 8.66-4.38s5.78-3 8.72-4.34c1.48-.68 3-1.34 4.48-1.93s3-1.13 4.49-1.84a47.73 47.73 0 008.31-4.95 21.46 21.46 0 006.42-7.12 9.77 9.77 0 001.05-4.66 9.88 9.88 0 00-1.39-4.6 9.88 9.88 0 011.48 4.6 9.75 9.75 0 01-1 4.74 21.65 21.65 0 01-6.36 7.33 47.92 47.92 0 01-8.34 5.06c-1.46.72-3 1.3-4.51 1.87s-3 1.26-4.44 1.95c-2.92 1.39-5.8 2.87-8.67 4.39s-5.68 3.12-8.67 4.45a26.77 26.77 0 01-9.47 2.48 24.62 24.62 0 01-4.93-.23 41 41 0 01-4.78-1.12 185.37 185.37 0 01-18.33-6.62c-1.5-.63-3-1.27-4.46-2a27.62 27.62 0 01-4.29-2.37c-2.69-1.83-5.28-3.79-7.83-5.81s-5-4.12-7.42-6.32a69.08 69.08 0 01-6.8-7l-.73-1c-.23-.34-.4-.71-.61-1.07a6.29 6.29 0 01-.53-1.11c-.14-.38-.31-.75-.44-1.14a18.83 18.83 0 01-.79-4.82 25.58 25.58 0 011.75-9.49z"/><path fill="#100f0f" d="M346.54 293.47s5.33 7.58.73 4.89-7.2-4-3.22.57 3.45 6.32 10.46 10.49 21 7.89 21 7.89 9.88 4.34 19.17-.31 17.08-8.59 17.08-8.59l9.59-4.11s10.24-5.28 12.68-8.7-1.76-1.62-5.44 1.29-2.15.35 1.22-3.42-4.74 2.21-8.12 4.89-3.67.68.31-2.08 13.91-7.94 8.56-19-15.3-8.62-28.93-6.38-43.67 8.67-47.5 6.22-7.62 16.34-7.62 16.34"/><path d="M233.12 295.86c9.19 7.77 15.62 22.17 14.09 30.14 0 0-4.59-22.37-26-29.42-8.27-2.42-11 4-6.44 12.26s4 4.9-6.12 6.13-19.94 8.27-10.13 15.62 9.82 9.81-2.44 11.34-.91 8.58 13.49 6.74 27.57 8.58 30.94 17.63-3.09.14-14.88-4.45-17.29-7.36-30.16-4.91-11.33 4.29-1.22 4.91 6.12 1.84-4.91 1.84c-7 0-20.95 3.79-31.29 8.7 4.76-10.79 14-20.81 21.49-34.14 9.19-16.23 24.41-39.42 30.74-44.33a42 42 0 0116.7-8.06c8.57-.66 15.58-1.13 15.58-1.13s12.56-1.65 17.82 22.27c0 0-8.51-18.19-22.34-19.3s-14.09.38-4.92 8.16z" style="mix-blend-mode:screen" fill="#262021" opacity=".1"/><path fill="#100f0f" d="M553.02 327.89a34 34 0 00-16.76 3.19c-7.35 3.68-13.88 0-7.35-2.56s-.41-10.52-12.26-5-3.67-4.7-3.67-12.34-5.31-4.61-9 1.92-6.53 19.61-6.09 10.42-11.47-3.07-8.61 10-6.54-3.27-13.89-18 1.63 9 6.53 22.47-1.22 16.75-1.63 10.62-3.68-14.3-13.9-29.52c-9.89-14.75-21.55-31.59-22.28-32.63 3.68 4.7 9 4.7 12.54 4.55s5.36 1.53 8.26 4.44 5.06 2.94 7.82 2.84 3.53 2.83 6.27 1.45 3.84.46 5.23 1.54 4.13-1.54 7.64.91 2.31-2.75 8.74-2 4.13-1.37 8 .15 4.9 0 10.72 3.38 8.73 4.13 15.93 7.35a39.63 39.63 0 0117.76 16.82zM558.51 348.27a14.54 14.54 0 00-20.63-5.19 53.54 53.54 0 00-6.93 5.14c-5.31 4.91-12.66 13.18-13.48 18s3.27 2.13 9-1.62 12.26-.06 3.68 4.23-2 7.55 6.94 3.06 12.12-2.86 17.3 4.08 3.54 5.31-7.08 7.77-12.67 2.85.4 3.67 21.49 1.64 25.25 6.54 9.07 2.45 1.72-6.13-17.56-15.74-18.4-23.15 5.31-2.47 7.36 2.41c1.38 3.29.35-8.93-5.13-18.81z"/><path d="M306.85 321.53a5.31 5.31 0 00-10-1.3c-3.73 7.8-6.86 16.5-6.73 23.54.3 17.16-13.18 19.61-11.34 32.78s5.21 5.83 9.5 0 8.58 0 2.45 17.47-6.3 31.25 3 41.06 8.36.91 8.66-12.26 4.6-24.67 6.44-2.07 12.87 42.58 16.85 18.49 12.56-40.93 12.56-21.32 19 6.74 12.56-19.31-8.37-38.61 1.33-28.34 25.33-9 23.19-22.21-2.46 11-26.66 7-1.23-16.86-10.11-32.18 2.41.92-6.15 13.79-11-4.59-10.09-23-9.19 1.84-8 16.24c.81 9.07-5.19 2.51-7.46-8.38z" style="mix-blend-mode:screen" fill="#262021" opacity=".1"/><path fill="#100f0f" d="M421.81 313.26a7.29 7.29 0 0110.08 5.72c.54 4.41.12 9.51-3.07 13.76-7.35 9.8-18 13.9-18.79 45.55s-2.82 47.49-14.71 60.26-8.17-2.66-4.9-12.36-2.74-13.38-8.52 4.19-18.86 31.05-6.39-2.05 9.6-40.14 16.14-58.06.94-14.14-3.21-4-6.19 4 2-10.26 22.77-40.45 10.77-29-21.6 14.3-30.89 11.44-2.77-2 5.21-6.54 3.54-6.75-9.77-3.37-24.34-13.19-8.82-9.4 32.28 7.46 41.26 2.15c6.4-3.78 16.36-5.07 23.61-8.03z"/><path d="M397.77 439.77c2.46-.41 18-16 18-41.09s3.27-38.57 11.44-45.11 7.35 2.18 2 11.1-2 7 5.56 1.62 15.69-9.94 15.69 2.36 4.49 15.89 6.53 0 6.95-26.51 9.81-6.5 5.31 25.74 6.94 14.3 16.34-16.75 10.62 11-6.53 30.23-2.86 41.26-7.76 12.87-15.11-2.55-3.27-9.29-12.67 3.78-14.21 6.94-12-6.13.23-13.89-6.95.82-37 15.14-37 15.14z" style="mix-blend-mode:screen" fill="#262021" opacity=".1"/><path fill="#100f0f" d="M498.57 427.72s-.5-10-3.77-15.52-9.19-4.14-6.33 8.55 1.34 13.1-.76 9-4.17.41-2 5.32-7 2.24-4.18 9.6-11.23 2.86-6.33 11.64 42.9 20.63 38.61 2a74.63 74.63 0 00-15.23-30.64M257.65 416.08s4.9-24.51 8.58-13.79 4.81 13.79 7.31 7.05 6.13 1.07 5.08 11.41 3.24 17.08 3.85 9.42 4-3.67 5.21 6.74 6.43 20.53 11.95 23.6-19.61 6.43-29.42 1.53-23.28-5.46-26-13.45 13.44-32.51 13.44-32.51z"/><path fill="#1d1a1a" d="M527.28 731.08s-51.16 12.23-72.62 14.68-47.49 9.5-65.57 13.48-98 2.15-122.25-6.43-51.47-10.73-55.46-32.48c0 0 .92-18.08 3.07-24.21s.61-9.8-3.07-16.23 3.07-23.6 6.44-31.26 3.37-16.85 7.35-26.65.61-26.35 6.13-36.46.61-41.67.61-41.67 20.84-4.5 40.12-8.42c14.85-3 28.79-5.68 31.58-5.68 6.43 0 90.07 13 106.61 15.25s98.9 14.86 98.9 14.86-3.54 27.6-.46 53.57c.13 1.22.29 2.43.46 3.64 3.88 27 6.33 55.16 10.42 69s8.58 35.18 7.74 45.01z"/><path fill="#100f0f" d="M508.64 613.43a95.89 95.89 0 00-18.77 19.58c-12.26 16.54-11-.62-4.18-16.55s6.05-12.87-8-5.51-8.64 15.32-14.3 43.5-23.14 20.23-16.14-1.22-.87-15.32-10.06 3.06-6.74 45.35-14.71 65-25.74 30-47 32.48 15.74-22.68 25.54-37.38-.61-22.68-17.6-5.52-30.81 6.74-6.39-8.58 22.15-46 37.56-72.31-6.83-13.48-20.92 1.23-15.32 4.29 4.08-17.77 21-19.61 10-26.35-25.12-.62-38.93 10.41-32.15-.61-16.83-10.41 18.38-12.26 3.68-11.36-28.19 2.17-39.83 19.32-26.35 19-20.23 9.81 9.2-19.61-8-9.81-10.33-6.74 6.83-21.43-11-6.75-32.3-2-19.79.73-6.09-10.91 0-19.61 0-19.61 6.47-2.38 16-5.66c14.85-3 28.79-5.68 31.58-5.68 6.43 0 90.07 13 106.61 15.25s98.88 14.85 98.88 14.85-3.56 27.6-.48 53.57z"/><path d="M249.02 582.08a11.29 11.29 0 00-8.65 5.17 39.19 39.19 0 00-6 21.29c0 16.74-6.53 33.49-12.66 43.3s-7 19.61-2.45 33.91-7.75 24.92-2.85 34.31 27.77 19.61 41.25 25.74 52.7 4.09 27.78-4.49-18-12.26 6.13-9.4 38.81-3.68 45.75-17.57 1.23-14.29-12.25-2-28.19 12.26-38 10.62 16.75-12.25 32.48-18a43.31 43.31 0 0028.38-38.88c.82-18.32 1.64-22.13-14.29 0s-29.42 19.27-18.39 2.11 23.29-49.43 4.29-33.09-17.76 26.15-37.78 25.74 0-5.65 13.07-15.29 25.32-35.37.4-18.21-45.75 21.65-34.31 8.17 30.64-32.68 11.85-22.47-27 13.48-15.53-1.64c10.59-14.04 11.54-30.83-8.22-29.32z" style="mix-blend-mode:screen" fill="#262021" opacity=".1"/><path fill="#100f0f" d="M513.8 723.7s.81-43.43-7.36-58.08-3.26 3.75-11.44 16.82-8.17-2.58-4.49-16.82-6.54-29.88-14.71 0-13 38.47-24.06 46.64 8.54-14.3-2.08-22.47-4.5 14.71-11.44 27.78-13.81 27 2.08 17.57 34.69-12.26 24.47-3.27.41 8.58 11 3.68 31.08 2.86 38.03-11.85z"/><path fill="#fac5c0" d="M385.42 311.46a21.55 21.55 0 01-8.2-1.78c-2.49-1-4.68-1.8-6.8-2.58-6-2.17-10.69-3.89-16.92-8.55-1.32-1-2.76-2-4.28-3-7.83-5.24-17.58-11.76-17.06-27.19v-.16l.14-.06c.06 0 5.14-2.4 5.13-19.24 0-2.52-.12-5.38-.38-8.49-.1-1.35-.16-2.4-.17-3.32 0-2.74.29-4.36 1-5.09a1.42 1.42 0 011-.42c1.94 0 5 3.61 8.86 8.18 5.39 6.36 12.09 14.28 18.17 15.08a11.31 11.31 0 001.48.09c15.25 0 58.8-24.32 59.24-24.57l.43-.24-.06.49s-.42 3.33-.86 8c-.95 10.32-2.11 28.44.83 33.91.58 1.08 1.13 2.05 1.64 2.94 3.22 5.67 4.69 8.25.19 15.08-1.87 1.94-6.72 4.13-13.37 7l-.34.15c-5.79 2.53-11.78 5.14-15.16 7.62-5.08 3.82-9.3 6.15-14.51 6.15z"/><path fill="#211b18" d="M426.78 230.61s-.42 3.27-.86 8c-1 10.6-2.11 28.54.86 34.05 4.29 8 6.95 10 1.84 17.77-1.89 1.95-7.38 4.36-13.26 6.91s-12.07 5.26-15.54 7.79c-4.77 3.51-9.08 6.05-14.4 6.05a21.39 21.39 0 01-8.1-1.76c-9.58-3.88-15.29-4.83-23.67-11.1s-21.85-11.78-21.24-29.95c0 0 5.3-2.19 5.28-19.47 0-2.51-.12-5.33-.38-8.51-.1-1.25-.16-2.34-.17-3.3 0-3.76.6-5.26 1.77-5.26 4.46 0 16.54 21.87 27 23.26a10.16 10.16 0 001.51.1c15.5 0 59.36-24.61 59.36-24.61m.62-.92l-.86.49c-.44.24-43.93 24.54-59.12 24.54a10.85 10.85 0 01-1.45-.09c-6-.8-12.65-8.68-18-15-4.06-4.8-7-8.26-9-8.26a1.63 1.63 0 00-1.19.5c-.77.77-1.11 2.45-1.08 5.27 0 .91.07 2 .17 3.33.26 3.1.38 6 .38 8.47 0 16.58-4.93 19-5 19l-.28.12v.32c-.52 15.57 9.29 22.13 17.17 27.41 1.52 1 3 2 4.27 3 6.26 4.68 11 6.41 17 8.59 2.12.77 4.31 1.57 6.8 2.58a22 22 0 008.29 1.79c5.28 0 9.54-2.35 14.69-6.14 3.36-2.46 9.33-5.07 15.11-7.59l.34-.15c6.68-2.9 11.55-5.09 13.42-7 4.58-7 3.09-9.59-.18-15.34-.5-.87-1.06-1.86-1.64-2.94-2.91-5.41-1.75-23.48-.8-33.76.44-4.7.85-8 .86-8l.12-1z"/><path fill="#fac5c0" d="M481.31 571.73a264.07 264.07 0 01-52.41-5.09c-29.23-6-81.34-17.95-109.39-25.43-.22.09-29.52 9.12-59.17 9.12a118.94 118.94 0 01-19.22-1.46 145.39 145.39 0 00-24.33-1.95c-4 0-7.72.14-11 .26-2.7.1-5.25.2-7.54.2-8.11 0-13.53-1.17-17.28-7.14-12-19.15-11.4-44.42-9.88-66.6 1.45-21.12 3.46-43.75 8.33-66.17 0-.19 4.38-20 11.95-36.79 1.36-3 4.36-4.51 8.93-4.51 12 0 31.69 10.22 44.94 20.31 5.66 4.3 9.95 8.43 12.41 11.94a11.72 11.72 0 012.29 5.08c.62 5.26.57 25.12-2.92 32.39-1.88 3.93-1.79 5.11-1.57 5.47a.43.43 0 00.39.19 1.29 1.29 0 00.54-.15 22.82 22.82 0 0111.2-3.39 15.24 15.24 0 013.13.31c4.07.85 7 4.58 9.75 8.19 2.24 2.89 4.35 5.61 6.81 6.36l.37.11a36.71 36.71 0 005.19.78h.19c6.7.67 16.63 1 22 1.11 1.79.06 3.09.09 3.51.13h.43c5.36 0 49.72-1.78 64.53-3.84 5-.69 10.74-1.61 16.33-2.51 11.41-1.83 23.22-3.72 28.88-3.72h.42c.34-.72 3.08-5.68 15.38-8.38 0 0 1.75-1.83 3.31-1.83a1.63 1.63 0 01.85.22 11 11 0 003 .91 9.63 9.63 0 012.74.83 58.23 58.23 0 007.34 2.45l2 .6c2.46.75 8.31 8.13 10 11.72a2.87 2.87 0 01.65-.07 2.29 2.29 0 012 1 36.65 36.65 0 0112 2.25 28.31 28.31 0 008.09 1.74 15.31 15.31 0 014.38.84c-1.1-1.61-4.27-7.62-3.34-22.28l.13-2.06c.82-12.94 1.36-21.48.74-27.1a4.07 4.07 0 013.44-4.53c3.42-.49 10.31-1.5 18-2.69a154.61 154.61 0 0122.48-1.63h4.9c4.47 0 15.48 3.26 19.12 12.95s7.56 39.44 8.18 53.65c.16 3.78.55 8.35 1 13.18 1.15 13.4 2.58 30.08.56 44.45-.56 3.94-.85 8.08-1.14 12.09-1.17 16.21-2.27 31.51-19.5 34-1.66 0-3.4-.11-5.4-.23-2.63-.17-5.61-.35-9.29-.35a143.75 143.75 0 00-24.8 2.41 205.53 205.53 0 01-34.63 2.66z"/><path fill="#211b18" d="M200.28 366.29c11.64 0 31.34 10 44.87 20.29 5.42 4.12 9.85 8.31 12.38 11.91a11.61 11.61 0 012.26 5c.62 5.21.62 25-2.9 32.32-2.42 5-1.74 5.83-1.07 5.83a1.48 1.48 0 00.6-.16 22.48 22.48 0 0111.14-3.38 15.21 15.21 0 013.11.32c7.35 1.53 11 12.86 16.54 14.54l.38.11a37 37 0 005.21.79h.17c9 .9 23.83 1.12 25.49 1.24h.43c5.25 0 49.68-1.78 64.55-3.85 15.09-2.09 36.77-6.23 45.2-6.23h.59s2.24-5.52 15.32-8.38c0 0 1.76-1.83 3.29-1.83a1.48 1.48 0 01.79.2c1.64.91 4.29.91 5.73 1.74s7 2.34 9.4 3.06 8.27 8.06 10 11.74a2.76 2.76 0 01.72-.09 2.22 2.22 0 011.94 1 36.82 36.82 0 0112 2.24c5.51 2.26 10.62 1.34 13 2.86-.26-.28-4.75-5.49-3.66-22.66.89-14.21 1.52-23.26.87-29.18a3.94 3.94 0 013.33-4.39c4-.59 10.69-1.57 17.95-2.7a158.77 158.77 0 0122.48-1.55h4.9c4.1 0 15.32 3.07 19 12.87s7.56 39.53 8.17 53.62 4.29 38 1.54 57.6.91 42.9-20.53 46c-3.82 0-8.21-.57-14.71-.57a141 141 0 00-24.82 2.41 205.73 205.73 0 01-34.63 2.64 265.83 265.83 0 01-52.38-5.09c-29.73-6.17-81.81-18.12-109.39-25.48 0 0-29.22 9.12-59.2 9.12a119.19 119.19 0 01-19.22-1.45 146.66 146.66 0 00-24.35-1.95c-7.37 0-13.46.45-18.52.45-8 0-13.45-1.14-17.18-7.08-12.16-19.37-11.36-44.6-9.85-66.53 1.53-22.33 3.6-44.4 8.32-66.14 0 0 4.29-19.76 11.95-36.77 1.41-3.11 4.58-4.44 8.81-4.44m0-.25c-4.62 0-7.66 1.55-9 4.59-7.58 16.84-11.92 36.62-12 36.82-4.86 22.42-6.87 45.05-8.32 66.18-1.53 22.2-2.15 47.5 9.89 66.67 3.78 6 9.24 7.2 17.39 7.2 2.29 0 4.84-.09 7.54-.19 3.26-.12 6.95-.26 11-.26a146.22 146.22 0 0124.31 1.94 119.15 119.15 0 0019.28 1.47c29 0 57.59-8.62 59.21-9.11 28.06 7.48 80.11 19.39 109.32 25.41a263.77 263.77 0 0052.44 5.1 206.83 206.83 0 0034.67-2.64 142.55 142.55 0 0124.78-2.41c3.68 0 6.65.18 9.28.34 2 .12 3.77.23 5.43.23 17.36-2.48 18.47-17.84 19.63-34.1.29-4 .59-8.13 1.14-12.07 2-14.38.59-31.07-.56-44.48-.41-4.83-.8-9.4-1-13.17-.62-14.23-4.53-44-8.19-53.7s-14.73-13-19.23-13h-4.9a156.23 156.23 0 00-22.5 1.64c-7.61 1.18-14.52 2.19-18 2.69a4.18 4.18 0 00-3.54 4.66c.61 5.61.07 14.16-.74 27.09l-.13 2.05c-.88 13.82 1.88 20 3.14 22a17.84 17.84 0 00-4-.7 28.7 28.7 0 01-8.05-1.74 37.28 37.28 0 00-12-2.26 2.45 2.45 0 00-2.07-1 3.9 3.9 0 00-.58.05c-1.79-3.63-7.6-10.94-10.07-11.69l-2-.6a57.69 57.69 0 01-7.33-2.44 9.9 9.9 0 00-2.78-.85 10.62 10.62 0 01-2.95-.89 1.76 1.76 0 00-.91-.23c-1.48 0-3.1 1.53-3.41 1.85-11.92 2.63-14.88 7.4-15.36 8.35h-.43c-5.67 0-17.48 1.89-28.9 3.73-5.59.89-11.37 1.82-16.33 2.51-14.8 2.05-59.15 3.84-64.52 3.84h-.41c-.43 0-1.73-.07-3.53-.12-5.33-.16-15.24-.45-21.95-1.12h-.17a36.29 36.29 0 01-5.18-.78l-.36-.11c-2.43-.73-4.53-3.45-6.75-6.32-2.81-3.62-5.71-7.37-9.82-8.23a15.68 15.68 0 00-3.16-.32 22.81 22.81 0 00-11.27 3.42 1.37 1.37 0 01-.47.12.3.3 0 01-.28-.13c-.17-.27-.35-1.33 1.58-5.35 3.55-7.41 3.56-27 2.92-32.45a11.85 11.85 0 00-2.31-5.14c-2.47-3.53-6.77-7.66-12.43-12-13.27-10.11-33-20.34-45-20.34z"/><path fill="#f8b1a9" d="M576 521.17c-2.76 19.61.91 42.9-20.53 46-7.36 0-16.86-2.14-39.53 1.84s-57.29 3.68-87-2.45-81.82-18.12-109.4-25.48c0 0-43.2 13.48-78.44 7.66s-51.78 4.59-60.05-8.58c-12.16-19.37-11.36-44.6-9.85-66.53 1.53-22.33 3.6-44.4 8.32-66.14 0 0 4.29-19.76 11.95-36.77 5.28-11.67 35.22 1.79 53.68 15.85 0 0-34.89-21.15-47.55-1.55s-17.16 69-12.26 93.68-1.63 22.76-2.45 14.18-.4-18.39-3.68 1.28 7.76 45.69 25.34 43.24 47.79 5.31 78.43 3.68 99.28-32.69 118.06-40.85 41.27-7.35 41.27-7.35c-18.54 4.92-82.94 41.25-96 45.34s53.52 7.76 78.85 6.53 27 6.13 17.16 5.73-21.66-1.23-4.9 4.48 66.58 7.36 95.59 2.46 21.24-27.37 16.34-43.5-2.86-21 2-10.43 9 18 6.12-2.86 2.45-25.33 2.86-54.33-18-49.23-18-49.23h4.9c4.1 0 15.32 3.07 19 12.87s7.56 39.53 8.17 53.62 4.35 38 1.6 57.61z"/><path fill="#f8b0aa" d="M428.62 290.46c-1.89 1.95-7.38 4.36-13.26 6.91a6.81 6.81 0 01-2.37-7.53c2.45-7.66-2.75-7.66-7.8-.3s-5.68 5.82-5.37-3.37-5.52-6.74-17.92-3.68-10.58 0-4.58-6.43 2.58-18.08 2.58-18.08 35.24-9.81 41.37-19.3c1.32-2.06 2.91-1.79 4.65 0-1 10.6-2.11 28.54.86 34.05 4.34 7.92 6.95 9.97 1.84 17.73z"/><path fill="#fcdcd9" d="M405.19 298.35c-4.55 3.54-14.36 4-20.69 0s2.24 12.12-5.52 5.8-7.35-13.9-15.53-11.65-18.78-1-18.38-10.41-2-14.1-3.68-9.4-5.3 4.29-2.45-5.52a27.75 27.75 0 00-1.25-18.24c0-2.51-.12-5.33-.38-8.51-.1-1.25-.16-2.34-.17-3.3a8.42 8.42 0 014.87 2.88c6.12 6.95 30.66 21.66 30.66 21.66s2.43 4.08-2.06 12.46-6.33 15.52 4.49 14.71 19-3.68 18.8 3.47 3.87 5.72 8.77 3.67 7.07-1.15 2.52 2.38z"/><path fill="#211b1a" d="M501.44 457.65a48.39 48.39 0 003.33 6 26 26 0 002 2.75 10.63 10.63 0 002.48 2.22l.2.12v.24a32 32 0 00-.29 4.15 18 18 0 00.37 4.1l.13.52h-.54c-3.32.18-6.65.53-10 .91s-6.62.84-9.9 1.46-6.55 1.26-9.76 2.18a66.49 66.49 0 00-9.42 3.37 52.4 52.4 0 019.26-3.92 90.61 90.61 0 019.76-2.49 135.4 135.4 0 0120-2.41l-.42.55a18.49 18.49 0 01-.34-4.31 32.19 32.19 0 01.43-4.26l.17.36a10.9 10.9 0 01-2.57-2.45 21.59 21.59 0 01-2-2.89 43 43 0 01-2.89-6.2z"/><path fill="#f8b1a9" d="M287.59 453.08a214.4 214.4 0 00-23.81-2.09c-14.1-.31-27.58 5.82-35.54 0s-21.12-7.67-21.12-7.67c13.18-6.47 28.33 5.79 38.3 0s12.13-44.83 12.13-44.83a11.61 11.61 0 012.26 5c.62 5.21.62 25-2.9 32.32s-.47 5.67-.47 5.67 6.89-4.6 14.25-3.06 11 12.86 16.54 14.54z"/><path fill="#211b1a" d="M319.54 541.08l14.12-6.65q7.05-3.33 14.07-6.73c9.37-4.5 18.58-9.38 28.15-13.51s19.23-8 29-11.62 19.59-7.08 29.67-9.7c-5 1.48-9.9 3.19-14.79 5s-9.76 3.59-14.61 5.46c-9.69 3.75-19.35 7.62-28.86 11.81-4.76 2.08-9.49 4.22-14.15 6.52s-9.34 4.58-14.07 6.77c-9.44 4.37-18.95 8.65-28.53 12.65z"/><path fill="#211b1a" d="M255.43 439.43s-3.3 7.29-4.93 8.72c0 0 6.54-1.23 10.21 0 0 0 .62-1.64-2-1.84s.74-1.23 2.11-1.63-3.42-3.18 0-5.27-5.39.02-5.39.02z" opacity=".54"/><path fill="#211b18" d="M476.32 477.15c-1.74 2.05-3 1.43-3 1.43-1.12 2.55-4.29 7.76-4.29 7.76-3.47.61-17.87 3.48-23.49 5.11s-15.51 2.72-15.51 2.72c4.83-2.79 15.82-11.09 15.82-11.09a54.45 54.45 0 00.41-5.93c0-2.76-1.22-4-4.9-11.23-3.17-6.26.05-15.73 1-18.2.1-.23.18-.44.24-.6-3.57-2.24-13.38-2-13.38-2s2.24-5.52 15.32-8.38c0 0 2.45-2.55 4.08-1.63s4.29.91 5.73 1.74 7 2.34 9.4 3.06 8.27 8.06 10 11.74a2.44 2.44 0 012.66.92c.82 3.77-.62 3.68-.62 3.68 3.95 7.78.52 17.36.52 17.36 1.23 1.09 1.74 1.47.01 3.54z"/><path d="M446.7 446.2c-7.26 14.4.92 23 2 25.5s.41 8.62.41 10.46a8.05 8.05 0 01-1 3.57l-2.23-2.65a54.45 54.45 0 00.41-5.93c0-2.76-1.22-4-4.9-11.23-3.17-6.26.05-15.73 1-18.2.1-.23.18-.44.24-.6a5 5 0 012.86-3.06c1.23-2.55-.92-7.35-.92-7.35s2.45-2.55 4.08-1.63c1.12 1.32 1.53 2.24 1.84 5.3s-1.96 3.58-3.79 5.82z" style="mix-blend-mode:screen" fill="#211b18" opacity=".39"/><path d="M450.5 441.82c13.15-4.87 22.07 7.77 23.18 9.67a.74.74 0 00.08.13c.71 1.34 2 4.6 2 4.6h0" style="mix-blend-mode:screen" fill="none" stroke="#211b18" stroke-miterlimit="10" opacity=".39"/><path fill="#13100f" d="M473.35 478.58c-1.12 2.55-4.29 7.76-4.29 7.76a7.87 7.87 0 00-4 0v-1.94c-5.44.54-13.27-2.45-13.27-2.45l-1.31 2.45-2.36 1.33c1.34-2.35 2-7.45 1.13-11.72s1.82-.73 1.82-.73c10.91 11.48 22.24 4.64 22.24 4.64z"/><path d="M450.5 472.66s6.41 7.25 15.19 7.55 10.63-6.63 10.63-6.63" style="mix-blend-mode:screen" fill="none" stroke="#211b18" stroke-miterlimit="10" opacity=".39"/><path d="M462.02 446.57s-9.66-5.37-13 1.22-1.77 17.16 4.48 23 8.85 6.75 12.38 5.67 4.13-5.06-1.08-4.75-3.37-6.13 1.38-3.37 9.47-.85 2.44-3.8-9.48-6.16-6.11-8.3 4.18 1.58 7.6 4.08 7-4.7-1.63-6.84-10.45-5.84-6.46-6.91z" style="mix-blend-mode:screen" fill="#211b18" opacity=".1"/><path fill="#211b18" d="M250.5 448.15a33.85 33.85 0 01-9.9 1.51 36.6 36.6 0 01-10-1.28 62.69 62.69 0 00-7.38-3.3 31 31 0 00-7.85-1.77 27.4 27.4 0 018 1.44 51.68 51.68 0 017.47 3.17h-.05a44.83 44.83 0 004.88 1 37.39 37.39 0 005 .35 36.11 36.11 0 005-.24 31.67 31.67 0 004.83-.88z"/><path fill="#fcdcd9" d="M408.04 473.37c-4.95 2.42-10 4.47-14.45 6.24-17 6.72-35.59 9.28-53.83 8.37-40.85-2-25.73-.82-14.7-4.9s13.89-10.36-15.53-4-56 20.68-79.66 9-25.53-23-22.75-7.86-7.45 12.26-11.94 0-7.77-7.76-2.46 7.76.89 22.13-6.53 16.34-3.27 19.61 11 24.92 24.92.41 53.31 4.9 53.27 1.23 81.89-14.3 74.24-31.15 89.9-31 19.13-6.76 17.73-12.4-5.07-14.4-3-20.22-.81-8.07-7.76 1.42c-4.81 6.55-12.9 11.66-21.22 15.73zM483.57 489.21s-33.91 2.45-61.69 18.79-49.43 27.4-57.2 28-10.21 5.09 4.5 5.09 63.12-7.76 78.95 0 10.15 10.21 2.37 11.44 1.2 4.49 16.72 2.86 64.55 3.26 73.13-8.58 3.27-26.15 0-36.77-9.6 20-50.76 19.2-42.72-6.13-15.8-10.62 51.33-26.16 9.78-29.41zM533 401.78s-10.22 6.54-4.9 20.84 12.66 19.6 9.39 31.86-2.86-4.68-8.58-6 0 18.49-6.53 28-7-7.54-13.28-15.77-8.38-29.53-6.33-39.92 2.78-19.33 30.23-19.01z"/><path fill="#fac5c0" stroke="#000" stroke-miterlimit="10" stroke-width=".5" d="M305.44 152.63s-9.66-2.45-8.69 4.2a130.94 130.94 0 002.25 13.94c1.12 4.32 3.72 8.15 4.75 12.45.72 3 4 6.89 4.34 11s4.9 8.72 11.26 2.61 5 4.91 7.93 7.51 9.17 13.46 13.16 17.32 18.1 16.46 26.55 18 34.15 7.7 43.81-4.91 19.43-28.21 22.81-35.65 5.19-7.19 8.81-5 9.29-1.64 10.74-8.53c1.93-9.18 9.94-18.39 7.12-28.13-.84-2.92 2.32-12.37-7.12-10.16h0s-9.29-23.53-9.29-29.33 3.14-18.65-1.33-28.11-15.69-19.38-24.38-21a69.26 69.26 0 00-26.43 0c-9.78 1.75-28.72 3.85-34.76 3.38s-32.46 3.62-36.93 7.59-10.38 23.59-11.22 29-1.81 30.46-.61 35.07-2.77 8.82-2.77 8.82"/><path fill="#f8afa8" d="M387.59 126.79a27.54 27.54 0 00-7.2 21.64c1.56 13.07 3 19.92-.19 23.56 0 0 10-4.19 12.25-2.78s-4.73 7-6.95 7.77 2.05 4.95 5.77 2.27 5.29-5.6 8.18-4.9 8.33 7.35 9.42 11.2c0 0-2.69-9-7.32-13.54s-9.3-9.92-9.62-16.23-2.56-9.4 2.91-6.68 12 6 20.06 2.13 14-5.57 20-3.78a28.24 28.24 0 00-6.56-8.77c-4.06-3.33 2-7.84-7.56-11.89a45.63 45.63 0 00-25-2.53 60.35 60.35 0 00-8.19 2.53zM365.12 126.95s7.08 7.47 5.47 21.48-3.87 18.54.24 22.5c0 0-10.06-1.6-10.7 1.65 0 0 .64 2.42 4.1 3.32 0 0-6-1.09-6.58-6.22 0 0-4 6.09-7.61 9.23s-5.16.65.64-5.46 12.15-13.7 13.31-20.82-3.05-4-9.69-1.05c-4 1.78-8.65 3.22-13.14 2.67-3.08-.37-5.55-2.37-8.08-3.91a11.58 11.58 0 00-3.51-1.58c-.62-.13-4.12-.37-4.24.65 0 0 .93-7.93 6.72-13.24s18.52-7.35 12.66-8.52 14.84-5.14 20.41-.7z" opacity=".36"/><path fill="#f8afa8" d="M365.12 128.64s6.21 5.43 4.52 18.85-4.68 18.84-.74 22.69a25.4 25.4 0 00-5.12-.5s-1.31-2.11 1.35-11.91 3.93-19.42-.89-25.51c0 0 3.95 2.29 5.39 8.95a23.24 23.24 0 00-4.51-12.57z"/><path fill="#f8afa8" d="M386.22 176.8s7.64-1.74 8.53-4.91-5.14-4.94-10.9-1.71-8.53 3.54-12.15 1.22-10.54-2.66-11.55.49 4.79 4.21 7.56 4.91 3.71-.24 5.41.7 2.55 1.52 4.43 0 5.33.33 8.67-.7z"/><path fill="#bf6d6a" d="M362.94 126.17s6.87 6.27 6.7 15c0 0-1.61-7.22-5.39-8.95a11.79 11.79 0 011 7.37s-1.53-5.76-5.07-6.92 4.43 6-.8 3.72-7.89-5.12-13.84-3.1-7.51 1.87-10.35 6.3-5 6.54-7.6 6.54a31.29 31.29 0 005.23-7.68c2.1-4.46 9.32-7.42 14.08-7.5s9.67-.55 6.12-1.55-3.54-3.74 2.41-2.88 7.51-.35 7.51-.35z"/><path fill="#f5928d" d="M352.99 148.74c-5.59 2-11.56 1.44-16 .5a39.29 39.29 0 01-6.77-2c2.33-1.64 5.31-6.07 6.6-7.94s5.81-6.39 14.66-4.76c7.08 1.32 10.17 5.51 11.12 7.13a6.07 6.07 0 01.34.65s.75 2.68-9.95 6.42z" opacity=".54"/><path fill="#f5928d" d="M352.99 148.74c-5.59 2-11.56 1.44-16 .5 8.15.56 16-1.63 18.27-4s-2.64-3.16-2.64-3.16.07-1.71 6.2-.85c1.51.21 2.76.31 3.76.4a6.07 6.07 0 01.34.65s.77 2.72-9.93 6.46z" opacity=".64"/><path fill="#f5928d" d="M390.12 143.2a2.41 2.41 0 01-.07-.78c.17-2.52 3.66-5.07 5.47-6.56a18.46 18.46 0 0113.34-4.12c6.65.52 9.93 3.87 12.55 7.32a17.47 17.47 0 007 5.06 16 16 0 00-10.66.09c-2.71.92-5.11 2.75-8 3.16-3.5.5-6.68-1.43-10-2.41-2.13-.64-8.84 1.12-9.63-1.76z" opacity=".54"/><path fill="#f8afa8" d="M387.59 126.79s-7.93 9-6.42 21.17 4.32 17.35.35 23.44a11.54 11.54 0 005.58-2.93c2.18-2.3 2.16-8.62 0-15.89s-3.78-12.11.49-18.44a15.06 15.06 0 00-3.07 3.43s1.34-8.6 3.07-10.78z" opacity=".47"/><path fill="#ab6661" d="M387.59 126.79s-5.55 6.68-4.75 15.48c0 0 1.13-5.64 4.75-8.93 0 0-2 4.72-.49 7.18 0 0 6.68-7.73 15.74-8.78s12.91-1.15 16.65 4.23 6.15 5.25 8.89 5.58c0 0-6.13-3.95-6.69-7s-4.67-6-11.7-6-11 .55-4.6-2.13-5-3.94-10.55-3-7.25 3.37-7.25 3.37z"/><path fill="#f5928d" d="M309.3 162.32s-4.53-6.81-8.57-6.42-2.65 4.44-.6 9.81 2.11 7.82 3.59 11.79 3.65 8.64 6.3 10.39 2.54 1.87 1.69 3.85 2.66.47 2.06-1.4-.13-2.22-2.66-3.5-6.64-7.24-6-13.43-5.99-12.84 4.19-11.09z" opacity=".64"/><path fill="#f5928d" d="M312.92 158.82s-2.9 4.71-2.78 9.65-3.13 6.11.73 10 5.19 5.37 4.95 8.29 2.1 1.5 1.47-4.16-3-14.87-3.45-16.62-.92-7.16-.92-7.16z" opacity=".39"/><path fill="#f5928d" d="M318.96 189.98s-1.67 5.88-5.12 5.22-2.8 1.09-.65 1.68 6.23.28 7.45-3.45-1.68-3.45-1.68-3.45z" opacity=".35"/><path fill="#f5928d" d="M450.87 155a23.5 23.5 0 004.76-3.3c1.76-1.75 3.93-1.68 3.08 3.3a60.54 60.54 0 00-.84 9.07c-.24 3.39-1.38 6.19-3 10.39s-1 6.77-4 8.29 2.41-2.1 3.26-8.4 1.57-20.27-3.26-19.35z" opacity=".64"/><path fill="#f5928d" d="M445.76 160.08s5.79 3.89 5.79 9.11-1 9.57-2.89 11.91-1-4.29-2.9-2.69-2.74-2.06 0-5-.48-6.9-1.13-7 1.13-6.33 1.13-6.33z" opacity=".39"/><path fill="#f5928d" d="M439.98 178.91s1.13 3.76 4 4.85 5.15 2.34 3.77 4.21-3.76-1.42-3.69.92-3.55 1.88-4.23-1.86a26 26 0 01.15-8.12z" opacity=".35"/><path fill="#f9bbb6" d="M351.12 70.76s6.22 10.11-3.16 17.66c-2.49 2-5.88 4.29-7.34 7.31-2 4.08.57 6.86 2.77 10.22 6.12 9.32 4.56 15.55 4.56 15.55s-18.78 3.21-20.41 8.36-12.74 17.49-14.37 9.7-3.67-20.34-3.85-26.46-.51-40.11 41.8-42.34zM370.85 74.49s4.23 12.14 20.42 12.14 26.21 1.87 20.07 14.32-8.25 15.42-1.35 19.93a17 17 0 0013.24 2.65s23.17-20.4 22.21-27.25-16.42-32.06-22.21-33.93-52.38 12.14-52.38 12.14z"/><path fill="#f8b0aa" d="M320.95 88.42s-.78 26.24 17.09 33.39c0 0-22.22 16.81-19.33 39.69s21.15 31.22 18.3 42.81-7.92 3.45-11.66-1.58-11.51-36.79-11.51-36.79-4.71-27.61-4.87-42.41 2.15-30.67 11.98-35.11zM434.94 82.59s-1.5 27.38-11.71 40.94c0 0 23.09 17.27 11.71 40s-23.13 28-17.58 45.11 3.87 6.65 11-3.3 11.64-23.24 11.6-26.43 9.39-25.11 8.21-36.84-1.29-35.58-3.47-43.91-9.76-15.57-9.76-15.57z"/><path fill="#fbcfca" d="M351.48 121.97s.83-8.41-3.38-14.79-4.52-14 4.89-11.52 6.36 8.09 20.19 6.07 21.81-10.27 23.78-.78 5.05 17.91-1.1 21-16.05 1.71-15.66-2.81-.9-7.93-5.08-1.86-8.93 6.71-15.09 6.23-8.55-1.54-8.55-1.54zM400.78 156.45a2.77 2.77 0 00-3.38 3.46 25.19 25.19 0 006.72 10.95c6.6 5.9 7.28 8 7.26 12.24s5.13 7.62 11.89-4.19 10.94-19.43 10.46-25-5.31-5.45-13.36 0c-6.17 4.17-13.93 3.86-19.59 2.54zM326.36 155.88s-.16 15.74 6.43 21.34c2.14 1.82 4.29 3.65 7.08 2.19 5.11-2.68 8.59-7.43 12.18-11.7 3.36-4 8.87-8.33 9.27-13.83.16-2.2-.73-1.58-2.28-1-6.37 2.5-10.33 5.76-17.53 4.37-4.67-.91-8.62-3.24-13.06-4.69-2.74-.86-2.09 3.32-2.09 3.32z"/><path fill="#f8afa8" d="M394.84 193.73s5.1.22 5.1-3.75 6.76-2.29 8.69 5.22-2.8 18.78-14.36 23.28-13.77-4.21-16.18-1.87-1-4.62-4.86-5.53 6.84 1.36 11.62-3.81a110.65 110.65 0 009.99-13.54z" opacity=".36"/><path fill="#f2a9a5" d="M395.44 206.83s5-4.23 8.4-4.5 5.95-1.67 2.33-3.15-5.71 0-7.4-3.21-3.33 10.86-3.33 10.86zM356.12 203.84c-1.21-.26-5.54-4.52-9.25-2.69s-2.9-6.5.64-5.95 5.18 3 10.64 0-2.03 8.64-2.03 8.64z"/><path fill="#421d1c" d="M384.12 128.82s-1.69-4.44 3.26-8.64c0 0-2.58 3-1.77 6.18 0 0 .32-4.43 4.3-6.18 0 0-2.29 1.86-2.29 4.32 0 0 1.57-4.32 8.32-5.26 0 0-2.89.47-3.5 2.57 0 0 3.14-2.68 11.47-3.73 0 0-3.5.46-4.83 2a38 38 0 0115.81-2c8.69.81 14.61 4.78 19.68 14.35a8.81 8.81 0 00-1.21-4s4.1 5.6 2.29 14.82c0 0-.84-7-12.91-11.91a9.09 9.09 0 013.44 1.23 27.87 27.87 0 00-14.18-5.43 6.55 6.55 0 012.71 0s-5.61-2.22-15.87.23a6.08 6.08 0 012.35-1.1s-7.48.93-11 3a4.78 4.78 0 011.69-1.52s-4 1.25-5.67 2.79a2.86 2.86 0 011.81-2.2 5.77 5.77 0 00-2.54 1.92 1.2 1.2 0 01.55-1.63s-1.39 1.08-1.39 1.91c0 0-.12-2.2.36-2.67-.03.07-.75.36-.88.95zM366.51 129.52s-.37-4 1.2-6.77a7.66 7.66 0 00-1.59 4.33s1-3.89-1.12-5.44a4.15 4.15 0 01.8 3.93s.4-3.16-3.3-4.56c0 0 2.34 1.33 2.62 3.19 0 0-1.81-3.81-8.17-4.59 0 0 3.78.78 4.43 2.34a27.64 27.64 0 00-11.75-3.43 11.08 11.08 0 014.59 1.64s-13-4.91-22.33 1.63a6 6 0 013-.58s-8.81 2.68-12.07 11.79c0 0 1.08-2.49 1.93-2.41a21.54 21.54 0 00-3.38 10.7 11.69 11.69 0 017.24-4 5.77 5.77 0 00-2.9.35 12.57 12.57 0 014.11-1.52 7.38 7.38 0 00-2.9.35 10.49 10.49 0 013.86-1.34 7.53 7.53 0 00-2.71.41 9.08 9.08 0 013.92-1.4 6.91 6.91 0 00-3 .4 19.35 19.35 0 0110.44-4.37 9.61 9.61 0 00-3.44.23 30.47 30.47 0 0116.54-1.63 17 17 0 00-5-.94 35.47 35.47 0 0111.58 2 21.37 21.37 0 00-4.24-1.51s5.07.45 7.48 1.51a13.9 13.9 0 00-2.89-1.39 31.71 31.71 0 015.73 2 7.93 7.93 0 00-2.66-1.75s2.84.87 3.56 1.69a3.29 3.29 0 00-1.38-1.52 4 4 0 011.8.66z"/><path fill="#5e4340" d="M362.4 163.53a15.24 15.24 0 00-2.48 3.08 6.14 6.14 0 00-.95 3.67 5.26 5.26 0 001.79 3.29 15.43 15.43 0 003.25 2.25 11.39 11.39 0 01-3.51-2 5.5 5.5 0 01-2-3.52 6.23 6.23 0 011.13-3.92 11.12 11.12 0 012.77-2.85zM390.73 162.59a16.19 16.19 0 013.23 2.85 9.32 9.32 0 012.09 3.83 4.78 4.78 0 01-1.07 4.19 9.21 9.21 0 01-3.61 2.36 11.13 11.13 0 003.31-2.6 4.8 4.8 0 00.89-1.83 4.4 4.4 0 000-2 9.36 9.36 0 00-1.9-3.69 24.5 24.5 0 00-2.94-3.11z"/><path fill="#5e4340" d="M369.73 174.71l.46.1c.51.07 1 .13 1.54.15.71 0 2.19 0 1.13-.93-1.85-1.55-7.24-3.34-8.85-2.33s-1.69 2.33 1.77 2.26a8.34 8.34 0 012.12.09c.64.14 1.22.47 1.83.66zM383.48 174.97s-4.34-.39-1.12-3a7.76 7.76 0 018-1.24c1.37.62 1.45 2.33-1 2.95a4.32 4.32 0 01-2 0 2.12 2.12 0 00-2 .34c-.58.46-1.13 1.06-1.88.95z"/><path fill="#dc5a5a" d="M402.26 201.66c-1.26 1.53-3.22 3.52-3.47 3.76a24.19 24.19 0 01-4 3.21c-.59.38-1.19.75-1.81 1.08a39.88 39.88 0 01-5.53 2.51c-4.83 1.77-9.95 1.27-14.93.35a38.23 38.23 0 01-11-3.56 21 21 0 01-2.79-1.74 17.4 17.4 0 01-3.43-3.32c-.29-.37-2.48-3-3.52-4.34a6.78 6.78 0 01-.55-.74 4 4 0 01.24-.32 24.59 24.59 0 016.86-6.05 25.12 25.12 0 0113.65-3.59c5.16 1.09 5.64 1.23 11.27 0 3.06 0 7.36 1.43 11.39 3.73a29.28 29.28 0 018.51 7.09l.18.22c.09.19-.39.88-1.07 1.71z"/><path d="M394.79 208.63c-.59.38-1.19.75-1.81 1.08 1.37-4.49-1.49-4.9-2.2-4.61s-.41 1-.33 1.21c-.51-1.2-2.48-1.28-4.81-1.21s-1.93 1.09-1.88 1.24c-.67-1.11-1.93-1.24-3.19-1a20 20 0 01-3.35.06c-1.59.06-1.83 1-1.83 1-.61-1-2.78-1.44-4.77-1.44s-5.42-1.35-8.39-1.2c-3.88 1-.75 5.29-.75 5.29a21 21 0 01-2.79-1.74 6.08 6.08 0 01.16-4.94 18.92 18.92 0 014.12-1.69c2.86-.89-2.65-2-4.27-2.82a3.37 3.37 0 01-1.52-3 2 2 0 011 .94c.28.66.93.34.83-.36s.64.06 1.29.55.57.15.74-1.31 1.15.58 1.39 1.12.79-.13.79-1.06.84.23 1.51 1.06 1-.3 1.27-1.48.72.25 1.74 1.12.3-.24.49-1.12.78.13 1.5.88.79-.23 1.21-1.28 1-.06 1.21.76 1.87.52 2.35-1.05.67.06 1.63 1.28.73-.81 1.11-1.43.7.5 1.42 1.49.55-.06.8-1.12.84.47 1.62 1.18.55-.17 1.15-.91.54.15.78.85.78-.06 1.26-.68 1.09.68 1.63 1.27.49-.12 1.68-1 .5.7 1 .88.66-.35 1.09-.74.72 0 .91.74a.64.64 0 001.26.06c.24-.76 1.21-.82 1.12-.35s.87 1.69.87.84 1.58-1.79 1.92-1c1.14 2.9-.25 4.4-.25 4.4l-2 2.48.47 1.08c3.37 2.64 1 5.47.82 5.68z" style="mix-blend-mode:multiply" fill="#f2948f" opacity=".39"/><path d="M360.43 200.8c-3.38 1.78-1.87 6.19-1.77 6.47a17.4 17.4 0 01-3.43-3.32c-.29-.37-2.48-3-3.52-4.34a6.78 6.78 0 01-.55-.74 4 4 0 01.24-.32 24.59 24.59 0 016.86-6.05 3.43 3.43 0 00.43 5.33l1.6 1.36s3.63-.22.14 1.61zM402.26 201.66c-1.26 1.53-3.22 3.52-3.47 3.76a24.33 24.33 0 01-4 3.22 3.79 3.79 0 00-.77-5.68s-2.66-.46.54-2.57c3.74-2.46 0-7.76 0-7.76a29.28 29.28 0 018.51 7.09l.18.22c.17.2-.31.89-.99 1.72z" style="mix-blend-mode:multiply" fill="#db5656"/><path fill="#49252b" d="M360.06 202.72a35.54 35.54 0 01-5.86-2.77 3.84 3.84 0 00-2.51-.35 6.78 6.78 0 01-.55-.74 4 4 0 01.24-.32c.95-.53 1.25 0 3.1-.72a6.78 6.78 0 014.19 0s2.29 5.1 1.39 4.9zM402.26 201.66a5.09 5.09 0 01-1-.05c-.32-.1-.32-.25-.69.27s-.87 1.07-1.45 1.07-2 .23-3 .23-1.82-.4-2.69-.12-2 .18-2.65.42a8.31 8.31 0 01-2 .25s.9-.09.87-.58-2-.09-2.13-1.09 3.49-2 4-2.12 1.56 1.26 2 1.34.56-1.94 2-1.88 2.65.25 3.4-.22a1.49 1.49 0 001.42.54c1.06-.07 2 .81 2.76 0l.18.22c.14.2-.34.89-1.02 1.72z"/><path fill="#eaeaea" d="M358.99 200.39a5.22 5.22 0 00.09 1.51 3.71 3.71 0 001.83.68c.65.06 2.18.33 2.32.35s2.45.35 3.18.47 2.73.29 3.32.31 1.93.23 2.07.23 3.66.2 4.22.2h5.74l5.8-.38s1.59.17 1.67-.37-.33-.41-1.05-.55a.76.76 0 01-.66-.8 11.21 11.21 0 00-3.18-.52c-.67.19-3.94-.7-5.65-.88s-5.63.6-7.56.13a49.28 49.28 0 00-5.82-1.18 34.42 34.42 0 00-4.32.39c-.36.1-2 .41-2 .41z"/><path fill="#eaeaea" stroke="#442d2c" stroke-linejoin="bevel" stroke-width=".25" d="M394.86 201.86c-.17.26-.82.17-1.58 0-.36-.08-.73-.16-1.11-.22-1.17-.19-1-.73-1-.73a3.24 3.24 0 01-3.65 1.13c-.25 1-.49 1.2-4.07 1.4s-4.05-1.13-4.05-1.13c-.87 1.32-1.86.87-3.83.85-3.22.23-4.56-1.55-4.56-1.55-1.13.74-4.81-.08-5.09-.48a2.7 2.7 0 00-.72-.58l-.21-.11c-2.94 2.41-4.59.34-4.59.34a1.85 1.85 0 01-1.44-.41 3.41 3.41 0 01-.84-2.38 15.14 15.14 0 012.47-.28c.48 0 2.5-.2 2.8-.17a24.71 24.71 0 002.88-.4 23.53 23.53 0 012.61-.26 13.12 13.12 0 002.62-.11c.53-.21 2.79-.74 3-.79a8.85 8.85 0 011.55 0 24 24 0 012.78.63 3.66 3.66 0 001.83.21c.65-.08 2.2-.27 2.59-.27s1.3.21 1.77.28 2.25.93 2.62.76a7 7 0 012.3.18c.41.11.6.56 1.27.77a8.11 8.11 0 002.14.14c.81 0 1.93.58 2.07 1.19a4.38 4.38 0 01-.56 1.99z"/><path fill="#b5b5b6" d="M394.86 201.86c-.17.26-.82.17-1.58 0 0 0 .9-1.62-.19-1.79a2.24 2.24 0 00-1.89.84 1.9 1.9 0 00-1.76-1.54c-1.45 0-1.89 2.67-1.89 2.67a4.57 4.57 0 00-4.43-3.56c-2.65-.06-3.67 3.85-3.67 3.85a4.33 4.33 0 00-4.26-3.85 3.87 3.87 0 00-3.83 3.11l-.28-.24c-.06-2.08-1.33-2.9-3.43-2.87s-1.65 2.47-1.65 2.47l-.75-.38-.21-.11c-.46-1.5-1.38-1.8-2.77-1.71s-1.58 1.75-1.58 1.75l-.28-.11c-1.07-1.77-1.4 0-1.4 0a3.41 3.41 0 01-.84-2.38 15.14 15.14 0 012.47-.28c.48 0 2.5-.2 2.8-.17a24.71 24.71 0 002.88-.4 23.53 23.53 0 012.61-.26 13.12 13.12 0 002.62-.11c.53-.21 2.79-.74 3-.79a8.85 8.85 0 011.55 0 24 24 0 012.78.63 3.66 3.66 0 001.83.21c.65-.08 2.2-.27 2.59-.27s1.3.21 1.77.28 2.25.93 2.62.76a7 7 0 012.3.18c.41.11.6.56 1.27.77a8.11 8.11 0 002.14.14c.81 0 1.93.58 2.07 1.19a4.38 4.38 0 01-.61 1.97z" opacity=".54"/><path fill="#c1716f" d="M358.3 198.16a2.59 2.59 0 012.13 2.65s.24.27.24-.31-.64-2.57 1.45-2.69 2.62.27 2.9 2.65c0 0 .52.69.92.69s-1.69-3.14 1.21-3.84a4.24 4.24 0 013 .13 2.55 2.55 0 011.21 2c.08.74-.28 1.41-.27 2.14 0 .43.22.29.29 0 .16-.67.28-1.76.4-2.53a3.48 3.48 0 013.5-3c2.69-.12 4.57 2.22 4.19 6.23 0 0-.25-5.41 3.25-5.57s4.5 1 4.87 5.29c0 0-.65-4.32 1.65-4.28s2 3.15 2 3.15.28-2.1 2-2.06 2.41 1.17 1.65 3a3.37 3.37 0 00.64-2.45 11.07 11.07 0 00-1.75-.8 13.77 13.77 0 00-2.12-.34 7.38 7.38 0 01-1.76-.68c-1.05-.51-2.51-.32-3.66-.58-.69-.16-1.32-.34-2-.45a18.45 18.45 0 00-2.35-.18 15.05 15.05 0 01-2.42-.06c-.7-.14-1.39-.28-2.11-.37a13.88 13.88 0 00-5.14.15c-2.74.7-4.59.31-6.84.82s-8.26.79-7.08 1.29z"/><path fill="#c1716f" d="M358.99 200.39a2.59 2.59 0 00.66 1.62c.6.53 1.43.6 2.61-.38a3.41 3.41 0 002.76-1.17 4.84 4.84 0 01-1.95 1.44c-1 .29.45 1.05 1.23 1.05a1.33 1.33 0 001.42-1.28c0-.75.48-.39.33.37s.19 1.17 1.27 1.29 3 .39 3.23-1.47a4.41 4.41 0 01.18 1.55c-.15.3 2.47.38 3.35.38s1.05-.15 1.35-.6c0 0-.32.43.16.6s4.72.79 3.76-1.35c0 0 .73.54.7 1s.61.58 1.18.54 5-.28 6.36-.24c0 0-5.84.58-7.93.54-3 0-5.91-.06-8.87-.18a65.81 65.81 0 01-8.52-1c-1-.17-2.3-.19-3.08-.83a1.39 1.39 0 01-.53-1.06c0-.27.33-.63.33-.82z"/><path d="M363.78 208.26a8.77 8.77 0 002.74 1.11c1.48.41 2.94.87 4.44 1.23a37.23 37.23 0 0011.66 1.1c9.11-.75 4-4.78-2.23-4.43s-6.22-.41-10.2-1.17c-2-.37-5-1.22-6.93-.44-.79.32-.82.89-.44 1.57a3.38 3.38 0 00.96 1.03zM364.37 194.67a3.84 3.84 0 01.07-2.15c.16-.48 1-2.3 1.56-1.37.13.2.23.44.45.53.43.18.8-.29 1.1-.63a4.33 4.33 0 013.63-1c2.54.18 5 1.11 7.57.86 1.41-.14 2.75-.63 4.15-.81a11.89 11.89 0 014.2.29 7.35 7.35 0 014.71 2.9c.11.18.19.43 0 .56a.41.41 0 01-.24.08 19.26 19.26 0 01-2.4-.09 3.79 3.79 0 00-2.3.51 1.89 1.89 0 01-.45.28 1.18 1.18 0 01-1.21-.46 4.17 4.17 0 00-.95-1l-.89 1.32-.6-1.52a.67.67 0 00-.19-.3c-.31-.23-.7.2-.79.57s-.2.85-.59.89-.56-.3-.75-.56a1.53 1.53 0 00-1.15-.73c-.47 0-.95.48-.76.9l-1.12-.81a.6.6 0 00-.25-.13c-.32-.05-.47.37-.51.69s-.32.71-.6.56a.49.49 0 01-.16-.19c-.16-.29-.22-.63-.4-.91a.68.68 0 00-.87-.3.84.84 0 00-.27.34 6.57 6.57 0 01-1.29 1.59.54.54 0 01-.38.19c-.33 0-.36-.47-.43-.78a1.08 1.08 0 00-1-.79 1.09 1.09 0 00-1.06.67c-.1.26-.16.63-.45.66a.6.6 0 01-.44-.27l-.85-1c-.1-.11-.26-.24-.39-.16a.33.33 0 00-.11.26l-.15 1.47-1.11-1.51a.47.47 0 00-.22-.2c-.26-.11-.5.19-.62.45a9.06 9.06 0 01-.94 1.46c-.1.11-.24.23-.37.16a.24.24 0 01-.12-.17 2.24 2.24 0 01-.06-.35z" style="mix-blend-mode:screen" fill="#f2948f" opacity=".39"/><path fill="#f0efef" d="M421.42 140.78a9.33 9.33 0 00-2 0 10.05 10.05 0 00-2.09.43c-.4.13-.72.26-1 .36l-.42.22a17.47 17.47 0 01-2.22.48 26.32 26.32 0 01-3.43.3 40.44 40.44 0 01-6.8-.43c-1-.14-1.67-.28-2-.35a9.29 9.29 0 01-2.36-.31 4.74 4.74 0 01-.53-.17h-.05a2.11 2.11 0 01-.57-.31 2.6 2.6 0 01-.72-.82 3.08 3.08 0 01-.35-2c0-.23.07-.37.07-.37l3.78-3 .09-.08a6.65 6.65 0 01.56-.36c4.43-2.75 8.88-1.5 11.22-.61.56.21 1 .4 1.28.51a8.13 8.13 0 011.46.8 28.62 28.62 0 012.32 1.74c.59.48 1 .89 1.19 1 .55.37 2.57 2.97 2.57 2.97z"/><path fill="#828282" d="M417.36 141.19c-.4.13-.72.26-1 .36l-.42.22a17.47 17.47 0 01-2.22.48c1-2.82-2.88-5.16-9-4.12s-3.19 3.64-3.19 3.64a9.29 9.29 0 01-2.36-.31 4.74 4.74 0 01-.53-.17h-.05c-.36-1.48-.43-3.6.34-4.57 1-1.23 14.22-1 16.47.33a4.66 4.66 0 011.96 4.14z" opacity=".5"/><path fill="#828282" d="M416.41 141.36c.3-2.87-2.05-5.36-10.86-5.12h-.87a14.17 14.17 0 00-1.82.24c-5.51 1.07-3.39 4.84-3.39 4.84s0 .11-.25.1a1.53 1.53 0 01-.53-.17h-.05a4.24 4.24 0 01-.57-.31 1.81 1.81 0 01-.72-.82 4.93 4.93 0 01-.35-2 3.15 3.15 0 000-.39c-.14-.61 2.13-2 3.34-2.78a3.84 3.84 0 01.55-.24 19.84 19.84 0 012.82-.7c1.24-.23 2.64-.44 3.9-.56a17.49 17.49 0 013.08-.07 14.18 14.18 0 014.81 1.59 8.23 8.23 0 012.32 1.74 7.67 7.67 0 011.67 4.06 9.92 9.92 0 00-3.05.79.61.61 0 01-.03-.2z"/><path fill="#c1826c" d="M396.96 137.72s-.19 2.22 1.11 3.24a6 6 0 01-2.14.23c-.88-.14-2.35-.37-2.27-.82s3.3-2.65 3.3-2.65z"/><path fill="#2c5a91" d="M413.75 137.08a6.21 6.21 0 01-3.42 5.52 40.44 40.44 0 01-6.8-.43 6.14 6.14 0 01-2.72-5.09 5.83 5.83 0 01.69-2.77c4.43-2.75 8.88-1.5 11.22-.61a6.07 6.07 0 011.03 3.38z"/><path fill="url(#a)" d="M436.25 157a5.85 5.85 0 01-3.22 5.19 38.29 38.29 0 01-6.4-.4 5.81 5.81 0 01-2.56-4.79 5.67 5.67 0 01.64-2.62c4.18-2.59 8.37-1.41 10.57-.57a5.69 5.69 0 01.97 3.19z" transform="translate(-22.88 -19.92)"/><path fill="#471b1e" d="M417.68 137.28a2.73 2.73 0 01-.39 3.93 13.62 13.62 0 014.4-.49s-2.95-3.32-4.01-3.44z"/><path fill="url(#d)" d="M435.89 157a5.52 5.52 0 01-3 4.89 38.48 38.48 0 01-6-.38 5.47 5.47 0 01-2.41-4.51 5.15 5.15 0 01.61-2.46c3.92-2.44 7.87-1.33 9.94-.54a5.34 5.34 0 01.86 3z" transform="translate(-22.88 -19.92)"/><path fill="#2b1412" d="M420.24 138.67c-3.8-4.7-10-7.68-16.11-5.88a20.69 20.69 0 00-7.86 4.59 17.63 17.63 0 00-2.66 2.73 2.43 2.43 0 00-.2.25c-.19.28.7.59.89.66a6.71 6.71 0 001.76.4 12.75 12.75 0 001.38.07h.42a.71.71 0 01.15 0 9.65 9.65 0 003.58.31 21.07 21.07 0 01-3.52-.81 12 12 0 01-3.64-.3c-.23-.06-.62-.13-.43-.42a5.51 5.51 0 011.06-1c.47-.34 1-.65 1.49-1h.07c.12 2.34 1.45 2.75 1.45 2.75a2.26 2.26 0 01-.85-1.31c-.42-1.6.8-2.7 2.08-3.57a18.16 18.16 0 015-2.47 13.28 13.28 0 016.36-.24 15.66 15.66 0 017.75 4.61c.37.38.74.77 1.1 1.17.14.16.87 1.22 1.05 1.21a9 9 0 00-4.57 1.41 11.2 11.2 0 017.25-.42 12.55 12.55 0 01-3-2.74z"/><path fill="#5859a7" d="M411.34 137.04l-2.03.24 2.03.24h-2.04l1.98.48-2.03-.24 1.91.71-1.98-.48 1.8.94-1.91-.72 1.67 1.14-1.8-.93 1.51 1.33-1.67-1.14 1.33 1.5-1.51-1.33 1.13 1.64-1.33-1.5.91 1.77-1.13-1.65.68 1.87-.91-1.77.44 1.93-.68-1.87.19 1.97-.44-1.93-.06 1.98-.19-1.97-.31 1.95.06-1.98-.55 1.91.31-1.96-.8 1.82.56-1.9-1.02 1.71.8-1.82-1.23 1.58 1.02-1.71-1.42 1.42 1.23-1.58-1.59 1.24 1.42-1.42-1.74 1.04 1.6-1.24-1.86.83 1.74-1.04-1.95.6 1.86-.82-2.01.36 1.95-.6-2.04.12 2.01-.36-2.04-.12 2.04-.12-2.01-.37 2.04.13-1.95-.6 2.01.36-1.86-.82 1.95.6-1.74-1.04 1.86.82-1.59-1.24 1.73 1.04-1.42-1.41 1.59 1.24-1.23-1.58 1.42 1.42-1.02-1.71 1.23 1.57-.8-1.82 1.03 1.72-.56-1.9.79 1.82-.31-1.96.56 1.9-.07-1.97.31 1.95.19-1.97.07 1.98.43-1.93-.19 1.97.68-1.87-.44 1.93.92-1.77-.68 1.87 1.12-1.65-.91 1.77 1.33-1.5-1.13 1.64 1.51-1.33-1.33 1.5 1.67-1.14-1.51 1.33 1.8-.93-1.67 1.14 1.91-.72-1.8.94 1.98-.48-1.91.71 2.03-.24-1.98.48h2.04z" opacity=".4"/><ellipse cx="406.81" cy="136.7" fill="#2d2320" rx="2.05" ry="1.98"/><path fill="#f0efef" d="M403.99 139.01s-2.39-2.58-.28-5.06c.52-.61 3.21-.8 3.7-.61s.94 1.19-.13 1.17-2.36.14-2.12.45.9.07 1.8 0 1.46.61-.14.85-2.45.12-2.05.58 1.94-.23 2.51.27.25 1.43 0 1-.4-.62-.46-.15-.12 1-.7.5-1.11-1.1-.84-.43.13 2.29-1.29 1.43z" opacity=".29"/><path fill="#c1826c" d="M357.9 139.24s2.79 1.42 2.81 2.07-.9.76-1.52.76a22.12 22.12 0 01-2.22-.26z"/><path fill="#f4f4f5" d="M357.66 140.34a2.32 2.32 0 01-.11.56 2.69 2.69 0 01-.57.92.78.78 0 01-.16.15 3.49 3.49 0 01-1.3.52 14.55 14.55 0 01-1.84.29 9.67 9.67 0 01-1.64.52 35.24 35.24 0 01-8 .8h-1.32c-.4 0-.86-.07-1.22-.11a5.8 5.8 0 01-.61-.13l-.77-.3a8.49 8.49 0 00-1.9-.44 4.47 4.47 0 00-3.09.6 18.33 18.33 0 003-3 2.29 2.29 0 00.2-.37 3.36 3.36 0 01.76-1 13.74 13.74 0 011.51-1.18 32.44 32.44 0 012.87-1.7c2.29-1.24 5-.8 6.87-.56a15.28 15.28 0 013.81 1.21l.28.13.16.08.33.15c1.32.66 2.41 1.41 2.61 2a2.25 2.25 0 01.13.86z"/><path fill="#828282" d="M356.82 141.97a3.49 3.49 0 01-1.3.52 14.55 14.55 0 01-1.84.29s3.45-2.38-2.59-2.56-11.61.79-8.33 3.84c-.46 0-.86-.07-1.22-.11a5.8 5.8 0 01-.61-.13l-.77-.3a5.08 5.08 0 01.49-3.9c1.55-2 5.16-2.92 7.51-2.59s7.09.6 8.14 1.64a2.67 2.67 0 01.52 3.3z" opacity=".5"/><path fill="#828282" d="M357.86 139.67c-.07.19-.13.42-.2.67s-.07.36-.11.56a2.69 2.69 0 01-.57.92 2.84 2.84 0 01-1.47.68l.14-.24s2.43-2.72-4.2-4-13.89 1.84-9.92 5.68a5.8 5.8 0 01-.61-.13 9.36 9.36 0 00-2.67-.74 4.21 4.21 0 01-.07-2.38 2.64 2.64 0 011-1.39l.1-.07c2.55-1.83 4.14-2.8 5.84-3.19s7.81.51 9.4 1.16l.16.08.33.15c1.26.65 3.25 1.13 2.85 2.24z"/><path fill="#2c5a91" d="M354.32 138.39a6.44 6.44 0 01-2.29 4.92 35.24 35.24 0 01-8 .8 6.54 6.54 0 01-3.43-5.72 2 2 0 010-.25 32.44 32.44 0 012.87-1.7c2.29-1.24 5-.8 6.87-.56a15.28 15.28 0 013.81 1.21 8 8 0 01.17 1.3z"/><path fill="url(#e)" d="M376.71 158.41a6 6 0 01-2.12 4.57 32.14 32.14 0 01-7.4.75 6.08 6.08 0 01-3.18-5.32 1.85 1.85 0 010-.23c.8-.54 1.74-1.08 2.66-1.58 2.13-1.14 4.62-.74 6.38-.52a14.76 14.76 0 013.54 1.13 6.87 6.87 0 01.12 1.2z" transform="translate(-22.88 -19.92)"/><path fill="url(#f)" d="M375.87 158.6a5.21 5.21 0 01-1.84 4 28.88 28.88 0 01-6.42.65 5.28 5.28 0 01-2.76-4.61 1.48 1.48 0 010-.21c.69-.46 1.51-.94 2.31-1.37 1.84-1 4-.64 5.54-.45a13.26 13.26 0 013.06 1 6 6 0 01.11.99z" transform="translate(-22.88 -19.92)"/><path fill="#471b1e" d="M340 143.4a2.6 2.6 0 01-.57-3.77s-2.65 2.26-3.1 2.84.17.71.65.59a6.19 6.19 0 013.02.34z"/><path fill="#5b2d28" d="M391.24 135.85a20.38 20.38 0 013.83-3.22 19.27 19.27 0 014.49-2.25 16.86 16.86 0 015-.78 40.82 40.82 0 015 .47 36.36 36.36 0 014.94.82 15.94 15.94 0 014.72 1.87 10.68 10.68 0 013.4 3.77c.81 1.43 1.61 2.91 3.11 3.69v.07a5.29 5.29 0 01-2.07-1.43 16.75 16.75 0 01-1.51-2 10.91 10.91 0 00-3.34-3.42c-2.73-1.67-6.06-2.29-9.28-3a21 21 0 00-4.9-.61 14.49 14.49 0 00-4.76 1.1 33.44 33.44 0 00-8.47 5z"/><path fill="#2b1412" d="M361.3 141.54a4.59 4.59 0 00-1.14-1.34c-.53-.47-1.15-.82-1.72-1.24a22.16 22.16 0 00-3.24-2 15.83 15.83 0 00-8.35-2 13.78 13.78 0 00-6.54 2.4 18.52 18.52 0 00-4.7 5 15 15 0 01-3.54 3.73 17.52 17.52 0 003.7-2.18c1.21-1.09 3.62-.7 5.15-.15 0 0-2.46-1.29-3.66-1.17a9.43 9.43 0 011.11-1.82 12.78 12.78 0 014.12-3.5 10.28 10.28 0 017.41-1.19 22.37 22.37 0 014.08 1.33 16.91 16.91 0 011.9 1c.58.35 1.25.59 1.46 1.27a2.18 2.18 0 01-.37 2.09 3 3 0 00.89-2.14l2.26 1.45a.33.33 0 01-.12.6 13.07 13.07 0 01-3 .1 29 29 0 01-3.3 1 12.33 12.33 0 003.38-.51l.64.06a9 9 0 001.47 0 4.73 4.73 0 001.58-.36c.11-.06.22-.11.33-.18a2.15 2.15 0 00.24-.18s-.02-.04-.04-.07z"/><path fill="#5859a7" d="M351.48 138.68l-1.69.1 1.66.3-1.69-.1 1.62.5-1.67-.3 1.54.68-1.62-.5 1.45.87-1.54-.69 1.32 1.03-1.44-.86 1.18 1.17-1.33-1.03 1.03 1.31-1.18-1.17.84 1.42-1.02-1.31.67 1.51-.85-1.42.46 1.57-.66-1.51.26 1.62-.46-1.57.05 1.64-.26-1.63-.15 1.64-.06-1.64-.36 1.6.16-1.63-.57 1.54.37-1.6-.76 1.47.57-1.55-.94 1.37.76-1.47-1.11 1.25.94-1.37-1.25 1.11 1.1-1.25-1.38.95 1.25-1.1-1.49.77 1.38-.95-1.58.6 1.49-.78-1.64.4 1.58-.59-1.68.2 1.64-.4h-1.69l1.68-.2-1.68-.2h1.69l-1.64-.4 1.68.2-1.58-.59 1.64.4-1.49-.78 1.58.6-1.38-.95 1.49.78-1.25-1.11 1.38.95-1.1-1.25 1.25 1.11-.94-1.37 1.11 1.25-.76-1.47.94 1.37-.57-1.55.76 1.47-.37-1.6.57 1.54-.16-1.63.36 1.6.06-1.64.15 1.64.26-1.62-.05 1.64.46-1.58-.26 1.62.66-1.51-.46 1.58.85-1.43-.67 1.51 1.02-1.3-.84 1.42 1.18-1.18-1.03 1.31 1.33-1.03-1.18 1.18 1.44-.87-1.32 1.03 1.54-.69-1.45.87 1.62-.5-1.54.69 1.67-.31-1.62.5 1.69-.1-1.66.3 1.69.1z" opacity=".4"/><ellipse cx="348.1" cy="138.68" fill="#2d2320" rx="1.96" ry="1.9"/><path fill="#f0efef" d="M346.12 140.58s-3-3.12-.55-4.15 4.46.38 3 .35-2.83.12-1.75.2 2.7.67 1.23.55-2.57.26-1.57.56 2 1.24.95 1.12-2.4-.09-1.17.46.68 1.55-.14.91z" opacity=".29"/><path fill="#5b2d28" d="M360.12 136.08a17.75 17.75 0 00-8.29-3.84 17 17 0 00-9.16.81 22.14 22.14 0 00-4.16 2 11.58 11.58 0 00-3.36 3c-.93 1.21-1.69 2.58-2.58 3.89a10 10 0 01-3.38 3.3v-.06c2.55-1.92 3.46-5 5.36-7.61a9.58 9.58 0 011.65-1.78 14.89 14.89 0 012-1.36 17.32 17.32 0 014.4-1.79 41.16 41.16 0 014.63-.91 19.34 19.34 0 014.75-.13 13.92 13.92 0 014.53 1.47 12.51 12.51 0 013.72 2.93z"/><path fill="#574a48" d="M440.69 176.45l-1.46 3.26c-.89 4.86-6.16 12.74-6.49 13.22 1.59-2.48 1.76-8.24 1.76-8.24a47.91 47.91 0 01-5.63 12.54 17.66 17.66 0 002.25-7.25 37.09 37.09 0 01-6.57 10.61c1.91-2.45 2.71-7.63 2.71-7.63-1.67 5.56-6.3 10.16-6.87 10.71a12.76 12.76 0 002.84-6.2c-4 7.94-7 7.35-7 7.35 2.29-.93 1.81-2.46 1.81-2.46-4.83 6.17-3.87-8.87-7.36-14.13s-12.56-6.15-12.56-6.15a30.54 30.54 0 017.2 1.5c-8-4.21-14.55-3.24-15.14-3.14a14.26 14.26 0 016.64-.48c-8.82-1.83-14.4.49-14.4.49 1-1.15 3.12-1.43 4.28-1.51a19 19 0 00-8.58 2.64v-2.44l-.88 2.33-.53-1.52-.49 2-1.1-2.35v2.1l-.95-2.1v2l-2.54-2.22 1.66 2.22c-3-2.52-9.74-3.28-10.57-3.37a24.7 24.7 0 016.08 2.19c-5.05-1.73-11.77-1.51-11.77-1.51a23.54 23.54 0 017 1.53 23.83 23.83 0 00-13.55.88 25.13 25.13 0 016.07-.88 20.21 20.21 0 00-12.24 6.53 17.43 17.43 0 016.81-3.89c-8.57 4.1-7.51 10.73-9 15.94-1.39 5-6.37 1.61-6.74 1.35a7.06 7.06 0 003 2.32 7.76 7.76 0 01-6.87-4.45c.67 3.14 2.27 4.28 2.5 4.43-4.44-2.46-6.73-8.63-6.73-8.63 0 2.6 1.77 5.81 1.88 6-4.25-4.38-6.1-13.14-6.1-13.14a18.92 18.92 0 001.92 8.24c-4.82-5.77-9.4-25.51-9.4-25.51s-1-7.29-1.29 0 2.38 4.29 3.46 16.81c1 11.52 5.47 24.8 6.19 26.84a19.11 19.11 0 01-.48-4.75c.72 4.33 2.85 8.65 4.85 12.55 1.73 3.38 4.47 6.1 6.7 9.17 2.43 3.34 3.71 7.28 6 10.73a48.58 48.58 0 01-1.59-5.55c1.46 4.33 5.61 9.52 6.44 10.53-.69-1-1-3.88-1-3.88 1.93 4.83 7.89 7.94 7.89 7.94a29.56 29.56 0 01-2.4-3.25 29.4 29.4 0 0017.36 7.92 31.47 31.47 0 01-5.74-.46c12.25 4.19 29.23 1.09 29.23 1.09-3.69 2.17-11.77 1.71-11.77 1.71 14.14 2 23-3.58 23-3.58-1.93 2.17-7.05 3.58-7.05 3.58a31.7 31.7 0 0017.51-9.49c-.88 2.67-4.53 5.1-5.21 5.53 11.46-6.47 14.48-13.86 14.65-14.31a30.76 30.76 0 01-2.27 5.33 57.41 57.41 0 008.44-16.56 22.52 22.52 0 01-1.31 5.57c3.14-5.15 4.81-14.56 4.81-14.56a28.52 28.52 0 01-.59 5.14 122.85 122.85 0 003.37-12.73c.38 1.77-.68 5.36-.79 5.74 2.55-5.3 3.44-14.41 3.44-14.41a17.91 17.91 0 01-.22 4.85c3.51-12.74 2.15-24.75 3-27.31s.48-3.37.48-3.37zm-34.47 33.27c-.48 6.2-6.4 11.09-6.4 11.09a9.82 9.82 0 004.09-3.6c-1.94 7.11-9.05 8.85-9.05 8.85a7.91 7.91 0 005.55-2c-4.47 5.81-11.15 2-11.15 2 1.16 2 4.07 2 4.07 2-6.13.59-8.6-3.74-8.6-3.74a5.49 5.49 0 002.05 3.19c-3.62-1.61-4.47-5.76-4.47-5.76a3.91 3.91 0 00.36 2.91c-2.7-2.92-2.16-9.91-2.16-9.91l-.67 1.68-.41-1.45-.56 1.45-.17-1.5-.58 1.15-.55-1.23-.69 1.11-.17-1.16-.64 1.28-.36-1-.36 1.33-.55-1.68-.68 1.35-.37-1.45-.63 1.28v-1.35l-1 1.86-.3-1.74-.49 2.63-.6-2.57c.73 6.54-3.62 8.87-3.62 8.87a4.75 4.75 0 003.61-2.53c-.62 4.18-6.47 4.41-6.47 4.41a4.28 4.28 0 004.37-.53c-4.1 4-9.95.42-9.95.42a5.1 5.1 0 004.2 2.09 7.61 7.61 0 01-7.95-4.55c-.13 1.64 2.23 4.08 2.23 4.08-4.77-2.68-4.52-9-4.52-9a8 8 0 000 5.35 14.56 14.56 0 01-1.51-12.66c-1.37 1.42-1.6 5.29-1.6 5.29-1.13-4.67.64-10.64.64-10.64a7 7 0 00-1.77 2.86 17.74 17.74 0 011.05-4.72 9.71 9.71 0 00-1.85 5.1c-2-4.94-.09-10.46.27-11.38a8.37 8.37 0 00.05 4.25 16.31 16.31 0 015.54-10.44c-1.12 1-1.54 3.81-1.59 4.15.67-2.18 4.24-5.37 5.1-6.1a8.49 8.49 0 00-1.26 3.4c1.17-2.61 5-4.67 5.24-4.8-1 .79-1.52 3.1-1.52 3.1a13 13 0 014.15-3.79 4.43 4.43 0 00-1.64 3c1-2.19 4.28-3.86 4.48-4a7.25 7.25 0 00-1.84 2.86c1.16-1.66 4.52-3.23 4.74-3.33a4 4 0 00-1.23 2.45c1.7-2.22 3.24-2.46 3.24-2.46v2.34l1.79-1.64.12 1.52 1.83-1.52 1.12 1.76 1-1.29 1.61 1.4.61-1.29 2.28 1.4v-2l1.69 2.11-.24-2.11 3.06 2.11-1-2.11c2.41.24 4.83 2.64 4.83 2.64-.36-1.72-2.49-2.64-2.49-2.64 2.8.36 5.78 4.32 5.78 4.32-.21-1.5-2.61-3.27-2.61-3.27 3.23.59 6.81 4.56 6.81 4.56 0-1.76-2.78-3.63-2.78-3.63 4.34.94 5.79 5.85 5.79 5.85.11-1.65-1.26-3.82-1.43-4.07 2.66 2.58 5.05 8.27 5.05 8.27a19.6 19.6 0 00-.86-4.09c4.57 4 1.47 12 1.47 12a16.45 16.45 0 002.53-5.83c.37 4.45-4 14-4 14a18.51 18.51 0 002.94-4.56z"/><path fill="#121212" d="M315.12 166.17s-5.79-32.68 6.28-51.83c0 0-4.23 5.37-5.55 10.27a33.59 33.59 0 014.27-10.27 36.54 36.54 0 00-4.22 6.89s1.81-5.49 3.74-8.06c0 0-3.38 3.74-4.1 5.72 0 0 1.81-5.13 3.13-6.89a21.72 21.72 0 00-3.25 4.91s1.32-4.32 3-6.19c0 0-3.38 3.85-3.62 5.25 0 0 1.69-3.38 3.26-5.95a31.79 31.79 0 00-3 4 25.75 25.75 0 012.45-5.14s-2.21 2.69-3.17 4.21c0 0 2-5 3.17-6.31a14.41 14.41 0 00-3.17 4.09s1.51-4.09 3.17-5.84a41.7 41.7 0 00-3.17 3.74s1.87-4.32 3.17-5.72a20.4 20.4 0 00-2.93 3.5s4-19.27 14.56-25.1 18.38-6.77 28-3 16 .94 16 .94-9.43 1.4-13-1.25c0 0 9.82 1.71 18.51-.62a5.75 5.75 0 01-2.41 1.56s3.94-1 6.12-2.92a5.43 5.43 0 01-2.93 2.53s4.54-.77 7.19-2.88a5.57 5.57 0 01-3.38 3.12s4.91-1.48 7-3.58a11.27 11.27 0 01-2.57 2.8s2.42-1.4 5.71-3.74a16.43 16.43 0 01-3.34 3.86s5.43-2.57 7.73-4.91a40.53 40.53 0 01-3.5 4s4.76-2.92 6.54-4.9a29.93 29.93 0 01-3.29 4s4.83-2.1 6.64-4c0 0-1.6 2.92-3 3.73a19.06 19.06 0 006.09-2.45c2.92-1.87 11.61-1.4 17.64 5s8.21 7.82 10.26 13.43 3.14 8.4 5.19 10.15a10 10 0 01-2.78-2.68 12.39 12.39 0 003.38 4.32 7.63 7.63 0 01-2.65-1.81 13.39 13.39 0 003.32 3.56 8.6 8.6 0 01-2.84-1.75 25.92 25.92 0 003.44 3.21s-3.14-1.28-4-2.34a16.92 16.92 0 003.07 3 18.52 18.52 0 01-3.38-2 11.86 11.86 0 003.22 3.25 11.6 11.6 0 01-3.2-2 20.34 20.34 0 003.14 3.1 16.66 16.66 0 01-3.26-1.87 15.71 15.71 0 003 3 29 29 0 01-3.68-2.45 20.33 20.33 0 003.26 3.33 17.39 17.39 0 01-4.26-3.11 21.46 21.46 0 003.58 3.91s-2.45-1.75-3.58-2.8a20.72 20.72 0 002.72 3.42 16.34 16.34 0 01-3.06-2.41 15.57 15.57 0 002.9 3.31s-2.78-1.17-3.62-2.75c0 0 9.65 18.27 8.69 34.15a94.4 94.4 0 01-3.14 26.72c-1.45 6.44-1.45 7.84-1.45 7.84s7.48-13.08 10.38-27.32c1.93-6.07 3.62-5.84 3.62-5.84s6.28-40.39-1.21-59.07a31.13 31.13 0 013.68 7.94s-3.19-28.25-20.81-43.9-17.19-18.44-27.54-18.44c0 0 4.36-1.29 10.28 1.16 0 0-5.67-5.83-19.49-3-15 3-23.06.41-35.18 2.1-9.59 1.34-22.14 5.45-27.73 14 0 0 3.52-7.24 6.81-8.87 0 0-9.82 5.6-12.8 15.64s-4.18 14.94-10.46 19.38-21.24 34.32-22 45.53a14.48 14.48 0 012.89-6.54s-4 8.41-1.81 17.16c0 0-.36-4.32.85-7.12 0 0 0 11.05 2.05 16s5.19 10.82 4.71 13.39c.05-.28 3.54 2.3 3.71 2.48a12 12 0 012.43 4.3c.32.94 1.61 10.27 2.71 10.27h1.29z"/><path fill="#1a181d" d="M387.4 178.89h-.61.61z"/><path fill="url(#b)" d="M389.79 94.72a26.11 26.11 0 003.72-3.56 23.18 23.18 0 002.94-4.16 19.26 19.26 0 001.83-4.7l.16-.61.09-.62.19-1.25v-1.25a7.58 7.58 0 000-1.26c-.1-1.65-.43-3.38-.64-5.1a45 45 0 01-.4-5.21 10.19 10.19 0 011.13-5.15 17.87 17.87 0 013.5-3.85 19.93 19.93 0 00-3.06 4.09 9.65 9.65 0 00-.79 4.91c.1 1.69.32 3.4.57 5.1s.57 3.37.7 5.17a17.32 17.32 0 01-2.62 10.12 22.71 22.71 0 01-7.32 7.33z" transform="translate(-22.88 -19.92)"/><path fill="url(#g)" d="M404 58.76a13.12 13.12 0 00-3.15 3.5 9.7 9.7 0 00-1.54 4.31 11.56 11.56 0 000 2.28l.2 1.13.27 1.17c.35 1.56.63 3.14.83 4.74a32.72 32.72 0 01.15 4.85 19.16 19.16 0 01-.92 4.78 14.38 14.38 0 01-2.35 4.25 14.23 14.23 0 01-3.67 3.08 14.64 14.64 0 005.29-7.57 24.07 24.07 0 00.5-9.27c-.17-1.57-.44-3.12-.75-4.67l-.23-1.16-.2-1.18v-1.24c0-.41.08-.83.12-1.24a11.19 11.19 0 015.45-7.76z" transform="translate(-22.88 -19.92)"/><path fill="url(#h)" d="M397.67 92.85a17.14 17.14 0 002.57-3.85 20.81 20.81 0 001.64-4.31 26 26 0 00.58-9.13 61.68 61.68 0 01-.39-9.43 12.54 12.54 0 011.12-4.64 9.83 9.83 0 013.17-3.49 10.72 10.72 0 00-2.73 3.68 12.12 12.12 0 00-.79 4.48 90.91 90.91 0 00.61 9.29 23.43 23.43 0 01-.84 9.45 17.68 17.68 0 01-4.94 7.95z" transform="translate(-22.88 -19.92)"/><path fill="url(#i)" d="M408 58.76a9.77 9.77 0 00-.54 4.39 33.18 33.18 0 00.52 4.44c.27 1.46.6 2.92.83 4.44a34.83 34.83 0 01.32 4.56 27 27 0 01-1.5 9 13.91 13.91 0 01-5.29 7.26 12.38 12.38 0 002.82-3.43 17.22 17.22 0 001.74-4.07 25.67 25.67 0 00.92-4.33 32.87 32.87 0 00.31-4.43 36.45 36.45 0 00-.26-4.43c-.16-1.47-.48-2.94-.64-4.46a29.91 29.91 0 01-.25-4.54 17.3 17.3 0 01.24-2.27 5.53 5.53 0 01.78-2.13z" transform="translate(-22.88 -19.92)"/><path fill="url(#j)" d="M406.36 92.85a13.21 13.21 0 002.38-4 20.31 20.31 0 001.26-4.56 36.26 36.26 0 00.2-9.37 66.14 66.14 0 01-.31-9.56 12.23 12.23 0 011.11-4.71 12.19 12.19 0 013.17-3.6 12.75 12.75 0 00-2.72 3.81 11.6 11.6 0 00-.8 4.54c0 1.56 0 3.13.16 4.71s.23 3.15.37 4.73a31.21 31.21 0 01-.44 9.59 15.56 15.56 0 01-4.38 8.42z" transform="translate(-22.88 -19.92)"/><path fill="url(#k)" d="M416.34 58.76a11.44 11.44 0 00-2.43 3.52 14.54 14.54 0 00-1.18 4.06 20.7 20.7 0 00-.08 4.24l.27 4.34a49.16 49.16 0 01-.26 8.74 22.6 22.6 0 01-1.06 4.27 10.37 10.37 0 01-2.34 3.68 11.33 11.33 0 001.87-3.84 21.4 21.4 0 00.76-4.2 68.69 68.69 0 000-8.61l-.22-4.33a18.67 18.67 0 01.28-4.41 14.48 14.48 0 011.5-4.16 10.45 10.45 0 012.89-3.3z" transform="translate(-22.88 -19.92)"/><path fill="url(#l)" d="M423.42 60c-.22 1.05-.47 2.09-.67 3.14s-.45 2.08-.65 3.12c-.38 2.09-.79 4.18-1.09 6.28s-.55 4.2-.69 6.31c-.05 1-.13 2.12-.08 3.17s.08 2.12.12 3.2a25.44 25.44 0 01-.81-6.39 43.32 43.32 0 01.45-6.43 53.82 53.82 0 011.33-6.3 46.4 46.4 0 012.09-6.1z" transform="translate(-22.88 -19.92)"/><path fill="url(#m)" d="M424.23 61.88c-.3 1.08-.61 2.15-.85 3.24s-.52 2.16-.73 3.24c-.43 2.18-.79 4.36-1 6.56a56.22 56.22 0 00-.38 6.61v1.67l.11 1.65c0 1.12.23 2.21.3 3.33a29 29 0 01-1.19-6.62 36.25 36.25 0 01.16-6.75 42.26 42.26 0 011.26-6.62 35.1 35.1 0 012.32-6.31z" transform="translate(-22.88 -19.92)"/><path fill="url(#n)" d="M429.86 61.88a45.06 45.06 0 01.43 7.07 45.56 45.56 0 01-.56 7.08 31.64 31.64 0 01-1.8 6.89 17.87 17.87 0 01-3.7 6c.3-.51.61-1 .93-1.49s.52-1 .79-1.56a11.82 11.82 0 00.68-1.6 14.56 14.56 0 00.58-1.64 46.17 46.17 0 001.54-6.8c.38-2.29.59-4.62.78-7 .1-1.16.16-2.33.2-3.5s.1-2.27.13-3.45z" transform="translate(-22.88 -19.92)"/><path fill="url(#o)" d="M438.39 63.59a49.16 49.16 0 01-.76 11.1A32.74 32.74 0 01434 85.23c.58-1.77 1-3.54 1.49-5.32s.79-3.59 1.11-5.4c.7-3.61 1.21-7.25 1.79-10.92z" transform="translate(-22.88 -19.92)"/><path fill="url(#p)" d="M448.52 70.91a26.39 26.39 0 01-2.19 10 23.25 23.25 0 01-2.55 4.47 17 17 0 01-3.61 3.62 32.85 32.85 0 003-4.06 35.76 35.76 0 002.28-4.44c.66-1.52 1.23-3.09 1.75-4.68s.93-3.26 1.32-4.91z" transform="translate(-22.88 -19.92)"/><path fill="url(#q)" d="M451.9 72.62a27 27 0 01-.56 5 31.43 31.43 0 01-1.34 4.84 23.16 23.16 0 01-2.25 4.54 13.27 13.27 0 01-3.45 3.67 21.72 21.72 0 002.78-4.07 36.58 36.58 0 002-4.49c.59-1.53 1.06-3.11 1.54-4.69s.87-3.18 1.28-4.8z" transform="translate(-22.88 -19.92)"/><path fill="url(#r)" d="M395.42 58a16.78 16.78 0 00-2.05 4.16 21.75 21.75 0 00-1.07 4.49 27.08 27.08 0 00-.18 4.59c.07 1.52.25 3.11.33 4.67a29.47 29.47 0 01-.71 9.44 13.55 13.55 0 01-2 4.31 12.8 12.8 0 01-3.45 3.2 13.7 13.7 0 004.75-7.7 34.48 34.48 0 00.45-9.2c-.06-1.56-.23-3.08-.27-4.69a22.19 22.19 0 01.37-4.74 17.77 17.77 0 013.83-8.53z" transform="translate(-22.88 -19.92)"/><path fill="url(#s)" d="M392.52 58.76c-.4 1.39-.77 2.78-1.06 4.18s-.57 2.81-.77 4.22a45 45 0 00-.43 8.51 30.67 30.67 0 01-.44 8.7 15.13 15.13 0 01-1.52 4.12 8.77 8.77 0 01-3 3.12 11.52 11.52 0 003.79-7.38 37.77 37.77 0 00.19-8.51 35.15 35.15 0 01.68-8.69 37.8 37.8 0 012.56-8.27z" transform="translate(-22.88 -19.92)"/><path fill="url(#t)" d="M382.55 61.88a28.46 28.46 0 011.83 7 18.36 18.36 0 01-.39 7.33 14.35 14.35 0 01-1.59 3.35c-.6 1-1.17 2.07-1.7 3.13a10.39 10.39 0 00-1.06 3.31 13.81 13.81 0 00.17 3.56 11.7 11.7 0 01-.66-3.59 10.83 10.83 0 01.85-3.6 30.13 30.13 0 011.58-3.29 13.66 13.66 0 001.42-3.14 20.81 20.81 0 00.58-7 32.67 32.67 0 00-.4-3.55c-.12-1.16-.37-2.33-.63-3.51z" transform="translate(-22.88 -19.92)"/><path fill="url(#u)" d="M386.25 60a9.53 9.53 0 00-.91 3.92 20.09 20.09 0 00.18 4 29 29 0 01.45 4.12 22.46 22.46 0 01-.31 4.17 24.53 24.53 0 01-2.81 7.81 17.55 17.55 0 00-1.85 3.61 7.67 7.67 0 00-.34 4 7.48 7.48 0 01-.14-4.12 17.48 17.48 0 011.69-3.78 28.45 28.45 0 002.5-7.63 26.73 26.73 0 00.09-8 20 20 0 01.1-4.16 8.85 8.85 0 011.35-3.94z" transform="translate(-22.88 -19.92)"/><path fill="url(#v)" d="M378.69 61.88a16.43 16.43 0 012.17 6.7 13.94 13.94 0 01-1 7.06 34.79 34.79 0 00-2.21 6.52 13 13 0 00.27 6.8 10.84 10.84 0 01-1.08-3.36 14.21 14.21 0 01.05-3.57 26.27 26.27 0 012.06-6.79 15 15 0 001.18-6.61 18 18 0 00-.43-3.41 20.57 20.57 0 00-1.01-3.34z" transform="translate(-22.88 -19.92)"/><path fill="url(#w)" d="M359.54 69.66a64.22 64.22 0 01-2.33 9.34 55.13 55.13 0 01-3.75 8.91 37.51 37.51 0 01-2.58 4.13 45 45 0 01-3.14 3.68q-1.62 1.77-3.17 3.6a22.73 22.73 0 00-2.9 3.8 8.75 8.75 0 011.14-2.13c.44-.67.9-1.33 1.37-2 1-1.29 2-2.54 3-3.79l1.53-1.86c.47-.63 1-1.21 1.42-1.88a37 37 0 002.47-4 76.44 76.44 0 003.91-8.7c.57-1.48 1.11-3 1.6-4.51s.97-3.05 1.43-4.59z" transform="translate(-22.88 -19.92)"/><path fill="url(#x)" d="M362.11 67.64a34.07 34.07 0 01-.27 8.13 25.2 25.2 0 01-2.43 7.85c-.3.62-.71 1.19-1.07 1.79s-.85 1.13-1.3 1.62c-.91 1-1.77 2-2.65 3s-1.74 2.06-2.56 3.12-1.66 2.13-2.43 3.24a42.76 42.76 0 014.39-6.84c.8-1.09 1.67-2.14 2.53-3.18.45-.52.81-1 1.22-1.56s.71-1.1 1-1.7a29.46 29.46 0 002.55-7.51c.29-1.31.49-2.64.66-4s.25-2.6.36-3.96z" transform="translate(-22.88 -19.92)"/><path fill="url(#y)" d="M367.1 66.86a39.67 39.67 0 01-.48 6.88 38.4 38.4 0 01-1.6 6.74 26.2 26.2 0 01-3 6.28 13.14 13.14 0 01-1 1.41l-.54.68c-.19.23-.41.42-.61.63a12.88 12.88 0 01-1.3 1.15c-.47.34-.95.67-1.43 1 .42-.4.83-.8 1.25-1.18a10.4 10.4 0 001.11-1.28c.18-.22.38-.42.54-.65l.47-.71a11 11 0 00.89-1.43 33.79 33.79 0 002.69-6.2 60.47 60.47 0 001.8-6.56c.25-1.11.47-2.23.66-3.35s.38-2.27.55-3.41z" transform="translate(-22.88 -19.92)"/><path fill="url(#z)" d="M370.16 66.08A38.07 38.07 0 01368 77.59a34.07 34.07 0 01-2.4 5.38 23.93 23.93 0 01-3.47 4.75 51.55 51.55 0 002.77-5.1c.79-1.76 1.54-3.53 2.16-5.36s1.2-3.66 1.71-5.52.97-3.74 1.39-5.66z" transform="translate(-22.88 -19.92)"/><path fill="url(#c)" d="M393.81 58.76a29.79 29.79 0 00-1.47 4.24 33.36 33.36 0 00-.91 4.4 37 37 0 00-.35 4.46c0 1.5.12 3 .22 4.5a28 28 0 01-.95 9.06 16.34 16.34 0 01-1.91 4.16 12.22 12.22 0 01-3.16 3.25 14.54 14.54 0 004.51-7.57 28.73 28.73 0 00.76-8.87c-.07-1.47-.2-3-.15-4.54a28.75 28.75 0 01.46-4.54 28.11 28.11 0 012.95-8.55z" transform="translate(-22.88 -19.92)"/><path fill="url(#A)" d="M405.46 58a9.69 9.69 0 00-3 3.72 14.07 14.07 0 00-1.34 4.57 23.78 23.78 0 00-.16 2.39c0 .8 0 1.6.11 2.4.15 1.58.45 3.21.54 4.84a32.32 32.32 0 010 4.92 21 21 0 01-.88 4.84 18.13 18.13 0 01-2 4.48 15.73 15.73 0 01-3.26 3.64 17.78 17.78 0 004.74-8.27 24.51 24.51 0 00.75-4.74 32.33 32.33 0 000-4.82c-.08-1.61-.35-3.18-.48-4.84a19.31 19.31 0 01.16-4.92 14.74 14.74 0 011.58-4.67 9.52 9.52 0 013.24-3.54z" transform="translate(-22.88 -19.92)"/><path fill="url(#B)" d="M425.19 60c-.54 1.15-1.05 2.32-1.48 3.51s-.86 2.39-1.22 3.6a45 45 0 00-1.58 7.4c-.21 1.25-.28 2.51-.37 3.77v1.89c0 .63 0 1.26.05 1.89s.07 1.26.12 1.89l.26 1.88a12.82 12.82 0 00.33 1.87l.39 1.88a29.81 29.81 0 01-1.69-7.47 34.12 34.12 0 01.16-7.69 41.75 41.75 0 011.78-7.48 34.5 34.5 0 013.25-6.94z" transform="translate(-22.88 -19.92)"/><path fill="url(#C)" d="M440.17 63.59a51.11 51.11 0 01-.3 6.66 58.88 58.88 0 01-1.06 6.6 40.05 40.05 0 01-2 6.39A20.74 20.74 0 01433.4 89a27.77 27.77 0 002.88-6 47.89 47.89 0 001.8-6.35c.53-2.14.88-4.32 1.22-6.5s.63-4.35.87-6.56z" transform="translate(-22.88 -19.92)"/><path fill="url(#D)" d="M450.29 70.91a21 21 0 01-.29 5.53 25 25 0 01-1.56 5.34c-.34.87-.79 1.68-1.21 2.51a21.3 21.3 0 01-1.52 2.34 21.68 21.68 0 01-3.78 4.05 37.45 37.45 0 003.31-4.37 29.37 29.37 0 002.5-4.82 33.27 33.27 0 001.7-5.17 33.85 33.85 0 00.85-5.41z" transform="translate(-22.88 -19.92)"/><path fill="url(#E)" d="M360.82 69.66a37.44 37.44 0 01-1.82 8.41 56.63 56.63 0 01-3.38 8c-.32.64-.7 1.25-1.05 1.88s-.72 1.25-1.12 1.85l-1.16 1.83c-.4.59-.83 1.17-1.26 1.75-.82 1.18-1.78 2.26-2.68 3.38s-1.94 2.12-2.93 3.15c1.78-2.25 3.56-4.48 5.14-6.86a69.7 69.7 0 004.4-7.33 67.14 67.14 0 003.5-7.79 51.66 51.66 0 002.36-8.27z" transform="translate(-22.88 -19.92)"/><path fill="url(#F)" d="M381.75 61.1a33 33 0 011.2 7.26 20.73 20.73 0 01-.81 7.37c-.81 2.34-2 4.52-2.89 6.75a12.19 12.19 0 00-.49 7.11 13.51 13.51 0 01-.65-3.63 10.48 10.48 0 01.6-3.68c.38-1.19.92-2.29 1.4-3.41s.94-2.24 1.32-3.38a21.54 21.54 0 00.95-7.12 52.46 52.46 0 00-.63-7.27z" transform="translate(-22.88 -19.92)"/><path fill="url(#G)" d="M329.77 137.06a55.72 55.72 0 01.36 7.07 47.89 47.89 0 01-.55 7.07c-.2 1.17-.48 2.32-.7 3.47a29.4 29.4 0 00-.46 3.5 20.41 20.41 0 00.7 7 24 24 0 01-.78-3.46 19.92 19.92 0 01-.08-3.54 28.09 28.09 0 01.42-3.53c.2-1.16.47-2.31.65-3.47a47.22 47.22 0 00.63-7q.04-3.58-.19-7.11z" transform="translate(-22.88 -19.92)"/><path fill="url(#H)" d="M331.54 134.73a25.25 25.25 0 011.31 6.61 21.54 21.54 0 01-.52 6.74c-.53 2.19-1.27 4.32-1.92 6.47s-1.19 4.44-.36 6.59a7.09 7.09 0 01-.49-3.32 17.7 17.7 0 01.69-3.31c.63-2.17 1.34-4.3 1.84-6.49a22 22 0 00.6-6.67 29 29 0 00-.39-3.34 26 26 0 00-.76-3.28z" transform="translate(-22.88 -19.92)"/><path fill="url(#I)" d="M330.05 120.72a39.5 39.5 0 00-2.67 3.4 29 29 0 00-2.21 3.71 21.53 21.53 0 00-1.57 4 15.45 15.45 0 00-.43 4.29 12.63 12.63 0 01.27-4.33 21.28 21.28 0 011.51-4.08 29.12 29.12 0 012.29-3.69 25.46 25.46 0 012.81-3.3z" transform="translate(-22.88 -19.92)"/><path fill="url(#J)" d="M330.05 124.3a44.15 44.15 0 00-2.35 4.06 35.63 35.63 0 00-1.83 4.32 27.21 27.21 0 00-1.19 4.53 21.52 21.52 0 00-.22 4.68 17.69 17.69 0 01.05-4.71 26.88 26.88 0 011.13-4.58 33.06 33.06 0 014.41-8.3z" transform="translate(-22.88 -19.92)"/><path fill="url(#K)" d="M336.2 124.3a16.88 16.88 0 00-1.19 1.49 15 15 0 00-1 1.61 9 9 0 00-1.16 3.59 6.25 6.25 0 01.2-1.92 9 9 0 01.74-1.79 10.78 10.78 0 012.41-2.98z" transform="translate(-22.88 -19.92)"/><path fill="url(#L)" d="M336.2 127.64c-.21.51-.39 1-.57 1.54s-.34 1-.46 1.56a30.94 30.94 0 00-.66 3.21 11.42 11.42 0 01.1-1.65 12.89 12.89 0 01.32-1.62 10.83 10.83 0 011.27-3.04z" transform="translate(-22.88 -19.92)"/><path fill="url(#M)" d="M336.2 132.08a18.33 18.33 0 00-.65 1.89c-.18.64-.35 1.28-.48 1.94a34.77 34.77 0 00-.56 4 16.78 16.78 0 01.32-4 13 13 0 011.37-3.83z" transform="translate(-22.88 -19.92)"/><path fill="url(#N)" d="M337.15 134.73a56.77 56.77 0 00-1.79 7.16 15.21 15.21 0 01.54-3.67 19.34 19.34 0 011.25-3.49z" transform="translate(-22.88 -19.92)"/><path fill="url(#O)" d="M337.15 138.93c-.24.52-.45 1-.65 1.58s-.38 1.07-.53 1.61a16 16 0 00-.39 1.66 15.61 15.61 0 00-.22 1.69 8.24 8.24 0 010-1.72 12 12 0 01.34-1.69 11.81 11.81 0 011.45-3.13z" transform="translate(-22.88 -19.92)"/><path fill="url(#P)" d="M340.55 106.55a18.21 18.21 0 00-2 1.6 16.06 16.06 0 00-1.74 1.85 12.46 12.46 0 00-1.4 2.11 11.56 11.56 0 00-.9 2.38 8.83 8.83 0 01.73-2.46 10.63 10.63 0 011.38-2.19 13.66 13.66 0 013.93-3.29z" transform="translate(-22.88 -19.92)"/><path fill="url(#Q)" d="M339.58 108.73a14.37 14.37 0 00-1.86 2.19 16.53 16.53 0 00-1.46 2.47 17.93 17.93 0 00-1.05 2.66 23.87 23.87 0 00-.7 2.8A16.22 16.22 0 01335 116a16.49 16.49 0 011-2.72 13.15 13.15 0 013.58-4.55z" transform="translate(-22.88 -19.92)"/><path fill="url(#R)" d="M461.4 115a29.6 29.6 0 015 4.74 15.52 15.52 0 013.25 6 18.46 18.46 0 00-3.44-5.85c-.71-.89-1.49-1.72-2.28-2.54s-1.67-1.64-2.53-2.35z" transform="translate(-22.88 -19.92)"/><path fill="url(#S)" d="M462.2 117.92a23.18 23.18 0 014.76 5.17 19.93 19.93 0 011.69 3.11 13.79 13.79 0 011 3.39 17.2 17.2 0 00-1.12-3.31 21.72 21.72 0 00-1.72-3 30.09 30.09 0 00-2.13-2.78 30.53 30.53 0 00-2.48-2.58z" transform="translate(-22.88 -19.92)"/><path fill="url(#T)" d="M463.25 122.23a20 20 0 014.35 4 10.64 10.64 0 011.54 2.52 5.54 5.54 0 01.46 2.89 6.06 6.06 0 00-.63-2.81 12.15 12.15 0 00-1.57-2.45 22.33 22.33 0 00-2-2.16c-.67-.71-1.4-1.37-2.15-1.99z" transform="translate(-22.88 -19.92)"/><path fill="url(#U)" d="M465.5 128.66a10.33 10.33 0 012.78 2.81 9.34 9.34 0 01.91 1.78 6.86 6.86 0 01.41 1.94 9.45 9.45 0 00-.59-1.87 10.56 10.56 0 00-.94-1.71 12.75 12.75 0 00-1.19-1.55 14 14 0 00-1.38-1.4z" transform="translate(-22.88 -19.92)"/><path fill="url(#V)" d="M465.5 130.52a19 19 0 012.62 4 19.57 19.57 0 01.92 2.22 14.63 14.63 0 01.56 2.33c-.22-.76-.45-1.52-.74-2.26s-.6-1.47-1-2.18-.73-1.41-1.13-2.1-.73-1.35-1.23-2.01z" transform="translate(-22.88 -19.92)"/><path fill="url(#W)" d="M464.62 132.7a29.22 29.22 0 013.1 4.76 25.29 25.29 0 011.16 2.61 15.24 15.24 0 01.72 2.75 25.28 25.28 0 00-2.1-5.24c-.43-.84-.9-1.66-1.38-2.47s-.98-1.62-1.5-2.41z" transform="translate(-22.88 -19.92)"/><path fill="url(#X)" d="M463.7 134a40.53 40.53 0 013.69 6 20.94 20.94 0 012.21 6.65 20.49 20.49 0 00-1-3.35c-.42-1.08-.91-2.14-1.43-3.18s-1.08-2.07-1.66-3.08-1.18-2.11-1.81-3.04z" transform="translate(-22.88 -19.92)"/><path fill="url(#Y)" d="M463.7 137.76a60.47 60.47 0 012.71 5.76c.39 1 .76 2 1.08 3a14 14 0 01.67 3.12 18 18 0 00-.85-3.06c-.36-1-.72-2-1.13-3-.79-1.93-1.65-3.87-2.48-5.82z" transform="translate(-22.88 -19.92)"/><path fill="url(#Z)" d="M462.2 137.76a64.25 64.25 0 012.56 6.12 30.42 30.42 0 011.68 6.41 31.88 31.88 0 00-.85-3.19c-.33-1-.69-2.1-1.07-3.13s-.75-2.08-1.14-3.11z" transform="translate(-22.88 -19.92)"/><path fill="url(#aa)" d="M467.55 157.64c.21-.15.49 0 .66.16a3 3 0 01.43.58 8.33 8.33 0 01.52 1.33 12.53 12.53 0 01.3 1.38 13.18 13.18 0 01.17 1.39c-.13-.45-.23-.9-.35-1.35s-.23-.91-.36-1.35a9.67 9.67 0 00-.46-1.31 2.16 2.16 0 00-.34-.59c-.12-.16-.34-.34-.57-.24z" transform="translate(-22.88 -19.92)"/><path fill="url(#ab)" d="M469.6 156.62a12 12 0 011.4 2.78 7.77 7.77 0 01.51 3.08 12.85 12.85 0 00-.75-3c-.16-.49-.36-1-.56-1.45s-.38-.94-.6-1.41z" transform="translate(-22.88 -19.92)"/><path fill="url(#ac)" d="M468.59 165.24a27.83 27.83 0 011.38 3.87 13.63 13.63 0 01.6 4.06 15.06 15.06 0 00-.34-2c-.15-.67-.31-1.33-.5-2-.35-1.31-.73-2.61-1.14-3.93z" transform="translate(-22.88 -19.92)"/><path fill="url(#ad)" d="M467.55 167.88a27.78 27.78 0 011.5 3.86c.19.66.36 1.33.49 2a6 6 0 01.06 2.07 7.34 7.34 0 00-.25-2c-.16-.67-.33-1.33-.54-2-.38-1.32-.81-2.61-1.26-3.93z" transform="translate(-22.88 -19.92)"/><path fill="url(#ae)" d="M453.67 94.72a34 34 0 014.61 2.08 32.29 32.29 0 014.27 2.7 18.91 18.91 0 013.6 3.55 9.84 9.84 0 012 4.59 10.93 10.93 0 00-2.14-4.49 18.79 18.79 0 00-3.62-3.45 33.41 33.41 0 00-4.2-2.76c-1.47-.8-2.97-1.56-4.52-2.22z" transform="translate(-22.88 -19.92)"/><path fill="url(#af)" d="M456.25 92.85a28.14 28.14 0 016.56 4.88 22.66 22.66 0 012.57 3.2 15 15 0 011.73 3.7 19.29 19.29 0 00-1.87-3.61 23.58 23.58 0 00-2.61-3.12 30.14 30.14 0 00-3-2.72c-1.11-.82-2.22-1.62-3.38-2.33z" transform="translate(-22.88 -19.92)"/><path fill="url(#ag)" d="M456.25 99.55a35.83 35.83 0 014.18 3.06 43.86 43.86 0 013.8 3.54 31.59 31.59 0 013.2 4.1 17.45 17.45 0 012.15 4.71 21.39 21.39 0 00-2.29-4.62 30.48 30.48 0 00-3.24-4 44.92 44.92 0 00-3.72-3.58c-1.33-1.13-2.67-2.22-4.08-3.21z" transform="translate(-22.88 -19.92)"/><path fill="url(#ah)" d="M470.57 121.34a38.11 38.11 0 013.24 6.64 34.45 34.45 0 011.07 3.55 20.69 20.69 0 01.52 3.66 31.85 31.85 0 00-1.83-7.12c-.42-1.15-.89-2.29-1.39-3.41s-1.03-2.23-1.61-3.32z" transform="translate(-22.88 -19.92)"/><path fill="#5fbb4b" d="M695.56 558.19l-74.44-1.11c-6.06-.1-11.21 5.23-11.43 11.89s4.58 12 10.64 11.91l74.48-1c5-.07 9.11-4.92 9.31-10.85s-3.59-10.76-8.56-10.84z" opacity=".5"/><path fill="#63bc46" d="M677.83 584.16l-40.38 1a6.55 6.55 0 00-6 6.5c-.12 3.51 2.4 6.24 5.6 6.1l40.41-1.79c2.77-.12 5.08-2.84 5.19-6.06s-2.05-5.83-4.82-5.75z" opacity=".5"/><path fill="#209e48" d="M686.78 531.6l-37.56-1.84c-2.91-.15-5.37 2.41-5.48 5.72s2.17 6.06 5.09 6.16l37.57 1.3c2.63.09 4.84-2.36 4.94-5.47s-1.93-5.74-4.56-5.87zM702.78 537.92c-.1 3-2.23 5.45-4.77 5.36s-4.56-2.66-4.46-5.75 2.27-5.48 4.83-5.36 4.5 2.7 4.4 5.75z"/><g fill="#6cbe45" opacity=".5"><path d="M701.12 546.13l-28.28-.88c-2.16-.07-4 1.93-4.08 4.46s1.61 4.61 3.78 4.65l28.29.55c2 0 3.69-1.88 3.77-4.3s-1.48-4.42-3.48-4.48zM713.36 550.83c-.09 2.37-1.74 4.26-3.69 4.21s-3.47-2-3.38-4.42 1.76-4.29 3.71-4.22 3.45 2.05 3.36 4.43z"/></g><path fill="#add136" d="M140.53 270.77a8 8 0 00.43-2.54c0-3.14-3.24-3.32-6.43-3.32h-.8v-.74h13.89v.74c-3.61 0-4.88 2.26-6.05 5.63l-7.37 21.73c-.56 1.61-1 2.81-2.77 2.81h-.14l-6.52-20.76-6.1 17.95c-.56 1.61-1 2.81-2.77 2.81h-.14l-9.48-30.17h-3.33v-.74h12.17v.74h-3.47l7 23.81h.28l5.3-15.88-2.49-7.93h-3.33v-.74h12.2v.74h-3.47l7 23.81h.28z"/><path fill="#60bb46" d="M90.65 709.42l-62.92 9A11.25 11.25 0 0115 708.87l-5.17-36.23a11.26 11.26 0 019.55-12.73l62.92-9a11.25 11.25 0 0112.73 9.55l5.17 36.23a11.26 11.26 0 01-9.55 12.73z"/><path fill="#fff" d="M71.05 683.69a2.47 2.47 0 00-.6-4.23L45.38 669.4a2.47 2.47 0 00-3.36 2.68l3.82 26.74a2.46 2.46 0 004 1.59z"/><path fill="#67bd45" d="M573.65 233.86c17.1-1 26.83 19.6 15.27 32.34a13 13 0 00-3.27 8.38l-.25 10.63a5.62 5.62 0 01-5.3 5.48l-6.48.36a5.61 5.61 0 01-5.88-4.85c-1.46-10.59-1.23-14.6-5.64-18.48-12.91-11.37-5.56-32.89 11.55-33.86z"/><path fill="#fff" d="M580.86 278.35c-.85-8.59-1.47-18.07-1.58-21.63a26 26 0 01-9.46-.55c1 7.08 1.94 14.25 2.63 21.36l-.92.08c-.7-7.22-1.6-14.51-2.69-21.7-1.86-.54-4-1.28-5.06-2.89a3.4 3.4 0 01-.39-2.64c.63-2.31 3.46-2.33 4.85-.42.93 1.27 1.09 3 1.43 5.22a25 25 0 009.59.61 8.46 8.46 0 011.23-4.93c3.46-5 9.28 4.14-.3 5.73.09 2.78.68 12.52 1.59 21.67zm.39-27a7.49 7.49 0 00-1.07 4.27c2.08-.36 3.4-1.07 4-2.16 1.11-1.81-1.06-4.78-2.93-2.08zm-16.23-1.73c-.94.48-1 2-.46 2.87.82 1.3 2.61 1.91 4.13 2.38-.27-1.77-.41-3.32-1.19-4.39a3.74 3.74 0 00-2.48-.83z"/><path fill="#2a293a" d="M585.67 274.31v.27l-.25 10.63a5.62 5.62 0 01-5.3 5.48l-6.48.36a5.61 5.61 0 01-5.88-4.85c-.65-4.71-1-8.12-1.5-10.79z"/><path fill="#6cbf57" d="M584.2 223.62l2.92-10.11a1.84 1.84 0 10-3.54-1l-2.92 10.1a1.84 1.84 0 003.54 1zM599.84 242.99l10.54-3.33a1.85 1.85 0 00-1.11-3.52l-10.55 3.34a1.842 1.842 0 101.12 3.51z"/><path fill="#6fbf57" d="M617.85 273.58a1.84 1.84 0 00-.58-2.54 60.53 60.53 0 00-10.21-5.12 1.844 1.844 0 10-1.33 3.44 56.11 56.11 0 019.58 4.81 1.85 1.85 0 002.54-.59z"/><path fill="#7ac258" d="M557.52 229.08a1.84 1.84 0 00.78-2.48 70.16 70.16 0 01-5.33-13.52 1.844 1.844 0 10-3.55 1 73.69 73.69 0 005.61 14.18 1.84 1.84 0 002.49.82z"/><path fill="#6cbf5a" d="M549.53 245.35a1.85 1.85 0 00-1.71-2l-11.93-.87a1.84 1.84 0 10-.27 3.67l11.93.88a1.84 1.84 0 001.98-1.68z"/><path fill="#6cbf5d" d="M537.8 279.19a2 2 0 00.47-.17 58.23 58.23 0 0010.19-7 1.84 1.84 0 10-2.39-2.8 54.55 54.55 0 01-9.55 6.54 1.84 1.84 0 001.28 3.42z"/><path fill="#5db447" d="M82.42 114.82l-2.66 32.43-18.84-21.17L0 76.14l52 16.37s25.58 12.42 26.75 14.06 3.67 8.25 3.67 8.25z"/><path fill="#7fbf43" d="M110.03 100.88L0 76.14l82.42 38.68 27.61-13.94zM40.11 138.83l33.91-16.92L0 76.14l40.11 62.69z"/><path fill="#292929" d="M91.26 145.08a26.76 26.76 0 00-5.89 0l-.2-1.5a26.54 26.54 0 016.28 0zM175.52 264.73a96.43 96.43 0 01-11.14-3.17l.52-1.43a94.91 94.91 0 0011 3.12zm-21.75-7.82a62.58 62.58 0 01-9.68-6.38l1-1.18a61.51 61.51 0 009.45 6.22zm-17.93-14.52a60.469 60.469 0 01-3.23-4.31 62.427 62.427 0 01-3.22-5.31l1.34-.73a59.48 59.48 0 003.15 5.18c1 1.45 2 2.86 3.14 4.2zm-9.65-20.73l-1.44.51a96.76 96.76 0 01-3.13-11.09l1.49-.34a95.83 95.83 0 003.08 10.92zm-5.07-22.19l-1.51.22c-.47-3.33-.89-7-1.33-11.43l1.51-.16c.43 4.44.85 8.06 1.33 11.37zm-2.39-22.81l-1.52.17v-.09a53.62 53.62 0 00-2.13-11l1.46-.46a55.71 55.71 0 012.19 11.32zm-8.58-21a26.09 26.09 0 00-8.26-7.35l.75-1.32a27.13 27.13 0 018.74 7.77zM193.05 267.36c-2.07-.18-4.12-.4-6.09-.65l.21-1.51c1.95.25 4 .47 6 .64z"/><path fill="#6cbe45" d="M617.2 65.15l9.54 3.15s15.12-4.9 16.61-8 1.91-10.56 4.07-10.76a6.51 6.51 0 017.3 5.61c.72 3.72-4.72 14.46-3.87 15.6.53.72 6 2.68 9.95 4.06a7.41 7.41 0 014.92 6 4.08 4.08 0 01-2.55 4.4l-2.75 1.06.88 2.84a4.09 4.09 0 01-2.59 5.07l-2.12.71.68 1.73a4.09 4.09 0 01-2.65 5.46l-1.85.54.08.5a4.1 4.1 0 01-3 4.57l-1.84.48-25.41-8.38a18.22 18.22 0 01-6.44-3.74l-8.44-4.46a2.09 2.09 0 01-1-2.55l7.82-22.52a2.1 2.1 0 012.66-1.37z"/></g></svg>